  0
SECTION
  2
HEADER
  9
$ACADVER
  1
AC1015
  9
$ACADMAINTVER
 70
6
  9
$DWGCODEPAGE
  3
ANSI_1252
  9
$EXTMIN
 10
1e+20
 20
1e+20
 30
1e+20
  9
$EXTMAX
 10
-1e+20
 20
-1e+20
 30
-1e+20
  9
$LIMMIN
 10
0.0
 20
0.0
  9
$LIMMAX
 10
420.0
 20
297.0
  9
$TDCREATE
 40
2460454.574513889
  9
$TDUPDATE
 40
2460454.574513889
  9
$HANDSEED
  5
1008E
  9
$PEXTMIN
 10
1e+20
 20
1e+20
 30
1e+20
  9
$PEXTMAX
 10
-1e+20
 20
-1e+20
 30
-1e+20
  9
$PLIMMIN
 10
0.0
 20
0.0
  9
$PLIMMAX
 10
420.0
 20
297.0
  9
$INSUNITS
 70
4
  9
$FINGERPRINTGUID
  2
{FE5D4CED-F2D7-409A-8E8D-3B82C182322D}
  9
$VERSIONGUID
  2
{B3508103-E5D5-44AC-AA3D-D686959BF911}
  0
ENDSEC
  0
SECTION
  2
CLASSES
  0
CLASS
  1
ACDBDICTIONARYWDFLT
  2
AcDbDictionaryWithDefault
  3
ObjectDBX Classes
 90
0
280
0
281
0
  0
CLASS
  1
SUN
  2
AcDbSun
  3
SCENEOE
 90
1153
280
0
281
0
  0
CLASS
  1
VISUALSTYLE
  2
AcDbVisualStyle
  3
ObjectDBX Classes
 90
4095
280
0
281
0
  0
CLASS
  1
MATERIAL
  2
AcDbMaterial
  3
ObjectDBX Classes
 90
1153
280
0
281
0
  0
CLASS
  1
SCALE
  2
AcDbScale
  3
ObjectDBX Classes
 90
1153
280
0
281
0
  0
CLASS
  1
TABLESTYLE
  2
AcDbTableStyle
  3
ObjectDBX Classes
 90
4095
280
0
281
0
  0
CLASS
  1
MLEADERSTYLE
  2
AcDbMLeaderStyle
  3
ACDB_MLEADERSTYLE_CLASS
 90
4095
280
0
281
0
  0
CLASS
  1
DICTIONARYVAR
  2
AcDbDictionaryVar
  3
ObjectDBX Classes
 90
0
280
0
281
0
  0
CLASS
  1
CELLSTYLEMAP
  2
AcDbCellStyleMap
  3
ObjectDBX Classes
 90
1152
280
0
281
0
  0
CLASS
  1
MENTALRAYRENDERSETTINGS
  2
AcDbMentalRayRenderSettings
  3
SCENEOE
 90
1024
280
0
281
0
  0
CLASS
  1
ACDBDETAILVIEWSTYLE
  2
AcDbDetailViewStyle
  3
ObjectDBX Classes
 90
1025
280
0
281
0
  0
CLASS
  1
ACDBSECTIONVIEWSTYLE
  2
AcDbSectionViewStyle
  3
ObjectDBX Classes
 90
1025
280
0
281
0
  0
CLASS
  1
RASTERVARIABLES
  2
AcDbRasterVariables
  3
ISM
 90
0
280
0
281
0
  0
CLASS
  1
ACDBPLACEHOLDER
  2
AcDbPlaceHolder
  3
ObjectDBX Classes
 90
0
280
0
281
0
  0
CLASS
  1
LAYOUT
  2
AcDbLayout
  3
ObjectDBX Classes
 90
0
280
0
281
0
  0
ENDSEC
  0
SECTION
  2
TABLES
  0
TABLE
  2
VPORT
  5
8
330
0
100
AcDbSymbolTable
 70
1
  0
VPORT
  5
1006A
330
8
100
AcDbSymbolTableRecord
100
AcDbViewportTableRecord
  2
*Active
 70
0
 10
0.0
 20
0.0
 11
1.0
 21
1.0
 12
0.0
 22
0.0
 13
0.0
 23
0.0
 14
0.5
 24
0.5
 15
0.5
 25
0.5
 16
0.0
 26
0.0
 36
1.0
 17
0.0
 27
0.0
 37
0.0
 40
1000.0
 41
1.34
 42
50.0
 43
0.0
 44
0.0
 50
0.0
 51
0.0
 71
0
 72
1000
 73
1
 74
3
 75
0
 76
0
 77
0
 78
0
281
0
 65
0
146
0.0
  0
ENDTAB
  0
TABLE
  2
LTYPE
  5
5
330
0
100
AcDbSymbolTable
 70
3
  0
LTYPE
  5
1006B
330
5
100
AcDbSymbolTableRecord
100
AcDbLinetypeTableRecord
  2
Continuous
 70
0
  3

 72
65
 73
0
 40
0.0
  0
ENDTAB
  0
TABLE
  2
LAYER
  5
2
330
0
100
AcDbSymbolTable
 70
2
  0
LAYER
  5
50
330
2
100
AcDbSymbolTableRecord
100
AcDbLayerTableRecord
  2
0
 70
0
 62
7
  6
CONTINUOUS
370
-3
390
10060
  0
LAYER
  5
1006C
330
2
100
AcDbSymbolTableRecord
100
AcDbLayerTableRecord
  2
Defpoints
 70
0
 62
7
  6
Continuous
290
0
370
-3
390
10060
  0
ENDTAB
  0
TABLE
  2
STYLE
  5
3
330
0
100
AcDbSymbolTable
 70
1
  0
STYLE
  5
11
330
3
100
AcDbSymbolTableRecord
100
AcDbTextStyleTableRecord
  2
STANDARD
 70
0
 40
0.0
 41
1.0
 50
0.0
 71
0
 42
2.5
  3
txt
  4

  0
ENDTAB
  0
TABLE
  2
VIEW
  5
6
330
0
100
AcDbSymbolTable
 70
0
  0
ENDTAB
  0
TABLE
  2
UCS
  5
7
330
0
100
AcDbSymbolTable
 70
0
  0
ENDTAB
  0
TABLE
  2
APPID
  5
9
330
0
100
AcDbSymbolTable
 70
3
  0
APPID
  5
12
330
9
100
AcDbSymbolTableRecord
100
AcDbRegAppTableRecord
  2
ACAD
 70
0
  0
APPID
  5
1008A
330
9
100
AcDbSymbolTableRecord
100
AcDbRegAppTableRecord
  2
HATCHBACKGROUNDCOLOR
 70
0
  0
APPID
  5
1008B
330
9
100
AcDbSymbolTableRecord
100
AcDbRegAppTableRecord
  2
EZDXF
 70
0
  0
ENDTAB
  0
TABLE
  2
DIMSTYLE
  5
A
330
0
100
AcDbSymbolTable
 70
1
100
AcDbDimStyleTable
  0
DIMSTYLE
105
1006D
330
A
100
AcDbSymbolTableRecord
100
AcDbDimStyleTableRecord
  2
Standard
 70
0
  3

  4

 40
1.0
 41
2.5
 42
0.625
 43
3.75
 44
1.25
 45
0.0
 46
0.0
 47
0.0
 48
0.0
140
2.5
141
2.5
142
0.0
143
0.03937007874
144
1.0
145
0.0
146
1.0
147
0.625
148
0.0
 71
0
 72
0
 73
0
 74
0
 75
0
 76
0
 77
1
 78
8
 79
3
170
0
171
3
172
1
173
0
174
0
175
0
176
0
177
0
178
0
179
2
271
2
272
2
273
2
274
3
275
0
276
0
277
2
278
44
279
0
280
0
281
0
282
0
283
0
284
8
285
0
286
0
288
0
289
3
371
-2
372
-2
  0
ENDTAB
  0
TABLE
  2
BLOCK_RECORD
  5
1
330
0
100
AcDbSymbolTable
 70
22
  0
BLOCK_RECORD
  5
1F
330
1
100
AcDbSymbolTableRecord
100
AcDbBlockTableRecord
  2
*MODEL_SPACE
340
10064
  0
BLOCK_RECORD
  5
1B
330
1
100
AcDbSymbolTableRecord
100
AcDbBlockTableRecord
  2
*PAPER_SPACE
340
10065
  0
BLOCK_RECORD
  5
FFFF
330
1
100
AcDbSymbolTableRecord
100
AcDbBlockTableRecord
  2
_CLOSEDFILLED
340
0
  0
BLOCK_RECORD
  5
10003
330
1
100
AcDbSymbolTableRecord
100
AcDbBlockTableRecord
  2
_OPEN30
340
0
  0
BLOCK_RECORD
  5
10008
330
1
100
AcDbSymbolTableRecord
100
AcDbBlockTableRecord
  2
_ORIGIN
340
0
  0
BLOCK_RECORD
  5
1000D
330
1
100
AcDbSymbolTableRecord
100
AcDbBlockTableRecord
  2
_OPEN90
340
0
  0
BLOCK_RECORD
  5
10012
330
1
100
AcDbSymbolTableRecord
100
AcDbBlockTableRecord
  2
_OBLIQUE
340
0
  0
BLOCK_RECORD
  5
10016
330
1
100
AcDbSymbolTableRecord
100
AcDbBlockTableRecord
  2
_BOXBLANK
340
0
  0
BLOCK_RECORD
  5
1001B
330
1
100
AcDbSymbolTableRecord
100
AcDbBlockTableRecord
  2
_DOTSMALL
340
0
  0
BLOCK_RECORD
  5
1001F
330
1
100
AcDbSymbolTableRecord
100
AcDbBlockTableRecord
  2
_NONE
340
0
  0
BLOCK_RECORD
  5
10022
330
1
100
AcDbSymbolTableRecord
100
AcDbBlockTableRecord
  2
_DOTBLANK
340
0
  0
BLOCK_RECORD
  5
10027
330
1
100
AcDbSymbolTableRecord
100
AcDbBlockTableRecord
  2
_INTEGRAL
340
0
  0
BLOCK_RECORD
  5
1002C
330
1
100
AcDbSymbolTableRecord
100
AcDbBlockTableRecord
  2
_DOT
340
0
  0
BLOCK_RECORD
  5
10031
330
1
100
AcDbSymbolTableRecord
100
AcDbBlockTableRecord
  2
_ARCHTICK
340
0
  0
BLOCK_RECORD
  5
10035
330
1
100
AcDbSymbolTableRecord
100
AcDbBlockTableRecord
  2
_ORIGIN2
340
0
  0
BLOCK_RECORD
  5
1003B
330
1
100
AcDbSymbolTableRecord
100
AcDbBlockTableRecord
  2
_BOXFILLED
340
0
  0
BLOCK_RECORD
  5
10040
330
1
100
AcDbSymbolTableRecord
100
AcDbBlockTableRecord
  2
_CLOSED
340
0
  0
BLOCK_RECORD
  5
10045
330
1
100
AcDbSymbolTableRecord
100
AcDbBlockTableRecord
  2
_DATUMFILLED
340
0
  0
BLOCK_RECORD
  5
10049
330
1
100
AcDbSymbolTableRecord
100
AcDbBlockTableRecord
  2
_SMALL
340
0
  0
BLOCK_RECORD
  5
1004D
330
1
100
AcDbSymbolTableRecord
100
AcDbBlockTableRecord
  2
_DATUMBLANK
340
0
  0
BLOCK_RECORD
  5
10051
330
1
100
AcDbSymbolTableRecord
100
AcDbBlockTableRecord
  2
_CLOSEDBLANK
340
0
  0
BLOCK_RECORD
  5
10055
330
1
100
AcDbSymbolTableRecord
100
AcDbBlockTableRecord
  2
_OPEN
340
0
  0
ENDTAB
  0
ENDSEC
  0
SECTION
  2
BLOCKS
  0
BLOCK
  5
20
330
1F
100
AcDbEntity
  8
0
100
AcDbBlockBegin
  2
*MODEL_SPACE
 70
0
 10
0.0
 20
0.0
 30
0.0
  3
*MODEL_SPACE
  1

  0
ENDBLK
  5
21
330
1F
100
AcDbEntity
  8
0
100
AcDbBlockEnd
  0
BLOCK
  5
1C
330
1B
100
AcDbEntity
  8
0
100
AcDbBlockBegin
  2
*PAPER_SPACE
 70
0
 10
0.0
 20
0.0
 30
0.0
  3
*PAPER_SPACE
  1

  0
ENDBLK
  5
1D
330
1B
100
AcDbEntity
  8
0
100
AcDbBlockEnd
  0
BLOCK
  5
10000
330
FFFF
100
AcDbEntity
  8
0
100
AcDbBlockBegin
  2
_CLOSEDFILLED
 70
0
 10
0.0
 20
0.0
 30
0.0
  3
_CLOSEDFILLED
  1

  0
SOLID
  5
10002
330
FFFF
100
AcDbEntity
  8
0
  6
BYBLOCK
 62
0
100
AcDbTrace
 10
-1.0
 20
0.16439898372402537
 30
0.0
 11
0.0
 21
0.0
 31
0.0
 12
-1.0
 22
-0.16439898372402537
 32
0.0
 13
-1.0
 23
-0.16439898372402537
 33
0.0
  0
ENDBLK
  5
10001
330
FFFF
100
AcDbEntity
  8
0
100
AcDbBlockEnd
  0
BLOCK
  5
10004
330
10003
100
AcDbEntity
  8
0
100
AcDbBlockBegin
  2
_OPEN30
 70
0
 10
0.0
 20
0.0
 30
0.0
  3
_OPEN30
  1

  0
LWPOLYLINE
  5
10006
330
10003
100
AcDbEntity
  8
0
  6
BYBLOCK
 62
0
100
AcDbPolyline
 90
3
 70
0
 10
-1.0
 20
0.25881904510252074
 10
0.0
 20
0.0
 10
-1.0
 20
-0.25881904510252074
  0
LINE
  5
10007
330
10003
100
AcDbEntity
  8
0
  6
BYBLOCK
 62
0
100
AcDbLine
 10
0.0
 20
0.0
 30
0.0
 11
-1.0
 21
0.0
 31
0.0
  0
ENDBLK
  5
10005
330
10003
100
AcDbEntity
  8
0
100
AcDbBlockEnd
  0
BLOCK
  5
10009
330
10008
100
AcDbEntity
  8
0
100
AcDbBlockBegin
  2
_ORIGIN
 70
0
 10
0.0
 20
0.0
 30
0.0
  3
_ORIGIN
  1

  0
CIRCLE
  5
1000B
330
10008
100
AcDbEntity
  8
0
  6
BYBLOCK
 62
0
100
AcDbCircle
 10
0.0
 20
0.0
 30
0.0
 40
0.5
  0
LINE
  5
1000C
330
10008
100
AcDbEntity
  8
0
  6
BYBLOCK
 62
0
100
AcDbLine
 10
0.0
 20
0.0
 30
0.0
 11
-1.0
 21
0.0
 31
0.0
  0
ENDBLK
  5
1000A
330
10008
100
AcDbEntity
  8
0
100
AcDbBlockEnd
  0
BLOCK
  5
1000E
330
1000D
100
AcDbEntity
  8
0
100
AcDbBlockBegin
  2
_OPEN90
 70
0
 10
0.0
 20
0.0
 30
0.0
  3
_OPEN90
  1

  0
LWPOLYLINE
  5
10010
330
1000D
100
AcDbEntity
  8
0
  6
BYBLOCK
 62
0
100
AcDbPolyline
 90
3
 70
0
 10
-1.0
 20
0.7071067811865475
 10
0.0
 20
0.0
 10
-1.0
 20
-0.7071067811865475
  0
LINE
  5
10011
330
1000D
100
AcDbEntity
  8
0
  6
BYBLOCK
 62
0
100
AcDbLine
 10
0.0
 20
0.0
 30
0.0
 11
-1.0
 21
0.0
 31
0.0
  0
ENDBLK
  5
1000F
330
1000D
100
AcDbEntity
  8
0
100
AcDbBlockEnd
  0
BLOCK
  5
10013
330
10012
100
AcDbEntity
  8
0
100
AcDbBlockBegin
  2
_OBLIQUE
 70
0
 10
0.0
 20
0.0
 30
0.0
  3
_OBLIQUE
  1

  0
LINE
  5
10015
330
10012
100
AcDbEntity
  8
0
  6
BYBLOCK
 62
0
100
AcDbLine
 10
-0.5
 20
-0.5
 30
0.0
 11
0.5
 21
0.5
 31
0.0
  0
ENDBLK
  5
10014
330
10012
100
AcDbEntity
  8
0
100
AcDbBlockEnd
  0
BLOCK
  5
10017
330
10016
100
AcDbEntity
  8
0
100
AcDbBlockBegin
  2
_BOXBLANK
 70
0
 10
0.0
 20
0.0
 30
0.0
  3
_BOXBLANK
  1

  0
LWPOLYLINE
  5
10019
330
10016
100
AcDbEntity
  8
0
  6
BYBLOCK
 62
0
100
AcDbPolyline
 90
4
 70
1
 10
-0.5
 20
-0.5
 10
0.5
 20
-0.5
 10
0.5
 20
0.5
 10
-0.5
 20
0.5
  0
LINE
  5
1001A
330
10016
100
AcDbEntity
  8
0
  6
BYBLOCK
 62
0
100
AcDbLine
 10
-0.5
 20
0.0
 30
0.0
 11
-1.0
 21
0.0
 31
0.0
  0
ENDBLK
  5
10018
330
10016
100
AcDbEntity
  8
0
100
AcDbBlockEnd
  0
BLOCK
  5
1001C
330
1001B
100
AcDbEntity
  8
0
100
AcDbBlockBegin
  2
_DOTSMALL
 70
0
 10
0.0
 20
0.0
 30
0.0
  3
_DOTSMALL
  1

  0
LWPOLYLINE
  5
1001E
330
1001B
100
AcDbEntity
  8
0
  6
BYBLOCK
 62
0
100
AcDbPolyline
 90
2
 70
1
 43
0.125
 10
-0.0625
 20
0.0
 42
1.0
 10
0.0625
 20
0.0
 42
1.0
  0
ENDBLK
  5
1001D
330
1001B
100
AcDbEntity
  8
0
100
AcDbBlockEnd
  0
BLOCK
  5
10020
330
1001F
100
AcDbEntity
  8
0
100
AcDbBlockBegin
  2
_NONE
 70
0
 10
0.0
 20
0.0
 30
0.0
  3
_NONE
  1

  0
ENDBLK
  5
10021
330
1001F
100
AcDbEntity
  8
0
100
AcDbBlockEnd
  0
BLOCK
  5
10023
330
10022
100
AcDbEntity
  8
0
100
AcDbBlockBegin
  2
_DOTBLANK
 70
0
 10
0.0
 20
0.0
 30
0.0
  3
_DOTBLANK
  1

  0
CIRCLE
  5
10025
330
10022
100
AcDbEntity
  8
0
  6
BYBLOCK
 62
0
100
AcDbCircle
 10
0.0
 20
0.0
 30
0.0
 40
0.5
  0
LINE
  5
10026
330
10022
100
AcDbEntity
  8
0
  6
BYBLOCK
 62
0
100
AcDbLine
 10
-0.5
 20
0.0
 30
0.0
 11
-1.0
 21
0.0
 31
0.0
  0
ENDBLK
  5
10024
330
10022
100
AcDbEntity
  8
0
100
AcDbBlockEnd
  0
BLOCK
  5
10028
330
10027
100
AcDbEntity
  8
0
100
AcDbBlockBegin
  2
_INTEGRAL
 70
0
 10
0.0
 20
0.0
 30
0.0
  3
_INTEGRAL
  1

  0
ARC
  5
1002A
330
10027
100
AcDbEntity
  8
0
  6
BYBLOCK
 62
0
100
AcDbCircle
 10
-0.3535534
 20
0.0
 30
0.0
 40
0.3535534
100
AcDbArc
 50
-90.0
 51
0.0
  0
ARC
  5
1002B
330
10027
100
AcDbEntity
  8
0
  6
BYBLOCK
 62
0
100
AcDbCircle
 10
0.3535534
 20
0.0
 30
0.0
 40
0.3535534
100
AcDbArc
 50
90.0
 51
180.0
  0
ENDBLK
  5
10029
330
10027
100
AcDbEntity
  8
0
100
AcDbBlockEnd
  0
BLOCK
  5
1002D
330
1002C
100
AcDbEntity
  8
0
100
AcDbBlockBegin
  2
_DOT
 70
0
 10
0.0
 20
0.0
 30
0.0
  3
_DOT
  1

  0
LINE
  5
1002F
330
1002C
100
AcDbEntity
  8
0
  6
BYBLOCK
 62
0
100
AcDbLine
 10
-0.5
 20
0.0
 30
0.0
 11
-1.0
 21
0.0
 31
0.0
  0
LWPOLYLINE
  5
10030
330
1002C
100
AcDbEntity
  8
0
  6
BYBLOCK
 62
0
100
AcDbPolyline
 90
2
 70
1
 43
0.5
 10
-0.25
 20
0.0
 42
1.0
 10
0.25
 20
0.0
 42
1.0
  0
ENDBLK
  5
1002E
330
1002C
100
AcDbEntity
  8
0
100
AcDbBlockEnd
  0
BLOCK
  5
10032
330
10031
100
AcDbEntity
  8
0
100
AcDbBlockBegin
  2
_ARCHTICK
 70
0
 10
0.0
 20
0.0
 30
0.0
  3
_ARCHTICK
  1

  0
LWPOLYLINE
  5
10034
330
10031
100
AcDbEntity
  8
0
  6
BYBLOCK
 62
0
100
AcDbPolyline
 90
2
 70
0
 43
0.15
 10
-0.5
 20
-0.5
 10
0.5
 20
0.5
  0
ENDBLK
  5
10033
330
10031
100
AcDbEntity
  8
0
100
AcDbBlockEnd
  0
BLOCK
  5
10036
330
10035
100
AcDbEntity
  8
0
100
AcDbBlockBegin
  2
_ORIGIN2
 70
0
 10
0.0
 20
0.0
 30
0.0
  3
_ORIGIN2
  1

  0
CIRCLE
  5
10038
330
10035
100
AcDbEntity
  8
0
  6
BYBLOCK
 62
0
100
AcDbCircle
 10
0.0
 20
0.0
 30
0.0
 40
0.5
  0
CIRCLE
  5
10039
330
10035
100
AcDbEntity
  8
0
  6
BYBLOCK
 62
0
100
AcDbCircle
 10
0.0
 20
0.0
 30
0.0
 40
0.25
  0
LINE
  5
1003A
330
10035
100
AcDbEntity
  8
0
  6
BYBLOCK
 62
0
100
AcDbLine
 10
-0.5
 20
0.0
 30
0.0
 11
-1.0
 21
0.0
 31
0.0
  0
ENDBLK
  5
10037
330
10035
100
AcDbEntity
  8
0
100
AcDbBlockEnd
  0
BLOCK
  5
1003C
330
1003B
100
AcDbEntity
  8
0
100
AcDbBlockBegin
  2
_BOXFILLED
 70
0
 10
0.0
 20
0.0
 30
0.0
  3
_BOXFILLED
  1

  0
SOLID
  5
1003E
330
1003B
100
AcDbEntity
  8
0
  6
BYBLOCK
 62
0
100
AcDbTrace
 10
-0.5
 20
-0.5
 30
0.0
 11
0.5
 21
-0.5
 31
0.0
 12
-0.5
 22
0.5
 32
0.0
 13
0.5
 23
0.5
 33
0.0
  0
LINE
  5
1003F
330
1003B
100
AcDbEntity
  8
0
  6
BYBLOCK
 62
0
100
AcDbLine
 10
-0.5
 20
0.0
 30
0.0
 11
-1.0
 21
0.0
 31
0.0
  0
ENDBLK
  5
1003D
330
1003B
100
AcDbEntity
  8
0
100
AcDbBlockEnd
  0
BLOCK
  5
10041
330
10040
100
AcDbEntity
  8
0
100
AcDbBlockBegin
  2
_CLOSED
 70
0
 10
0.0
 20
0.0
 30
0.0
  3
_CLOSED
  1

  0
LWPOLYLINE
  5
10043
330
10040
100
AcDbEntity
  8
0
  6
BYBLOCK
 62
0
100
AcDbPolyline
 90
3
 70
1
 10
-1.0
 20
0.16439898372402537
 10
0.0
 20
0.0
 10
-1.0
 20
-0.16439898372402537
  0
LINE
  5
10044
330
10040
100
AcDbEntity
  8
0
  6
BYBLOCK
 62
0
100
AcDbLine
 10
0.0
 20
0.0
 30
0.0
 11
-1.0
 21
0.0
 31
0.0
  0
ENDBLK
  5
10042
330
10040
100
AcDbEntity
  8
0
100
AcDbBlockEnd
  0
BLOCK
  5
10046
330
10045
100
AcDbEntity
  8
0
100
AcDbBlockBegin
  2
_DATUMFILLED
 70
0
 10
0.0
 20
0.0
 30
0.0
  3
_DATUMFILLED
  1

  0
SOLID
  5
10048
330
10045
100
AcDbEntity
  8
0
  6
BYBLOCK
 62
0
100
AcDbTrace
 10
0.0
 20
0.577350269
 30
0.0
 11
0.0
 21
-0.577350269
 31
0.0
 12
-1.0
 22
0.0
 32
0.0
 13
-1.0
 23
0.0
 33
0.0
  0
ENDBLK
  5
10047
330
10045
100
AcDbEntity
  8
0
100
AcDbBlockEnd
  0
BLOCK
  5
1004A
330
10049
100
AcDbEntity
  8
0
100
AcDbBlockBegin
  2
_SMALL
 70
0
 10
0.0
 20
0.0
 30
0.0
  3
_SMALL
  1

  0
CIRCLE
  5
1004C
330
10049
100
AcDbEntity
  8
0
  6
BYBLOCK
 62
0
100
AcDbCircle
 10
0.0
 20
0.0
 30
0.0
 40
0.25
  0
ENDBLK
  5
1004B
330
10049
100
AcDbEntity
  8
0
100
AcDbBlockEnd
  0
BLOCK
  5
1004E
330
1004D
100
AcDbEntity
  8
0
100
AcDbBlockBegin
  2
_DATUMBLANK
 70
0
 10
0.0
 20
0.0
 30
0.0
  3
_DATUMBLANK
  1

  0
LWPOLYLINE
  5
10050
330
1004D
100
AcDbEntity
  8
0
  6
BYBLOCK
 62
0
100
AcDbPolyline
 90
3
 70
1
 10
0.0
 20
0.577350269
 10
0.0
 20
-0.577350269
 10
-1.0
 20
0.0
  0
ENDBLK
  5
1004F
330
1004D
100
AcDbEntity
  8
0
100
AcDbBlockEnd
  0
BLOCK
  5
10052
330
10051
100
AcDbEntity
  8
0
100
AcDbBlockBegin
  2
_CLOSEDBLANK
 70
0
 10
0.0
 20
0.0
 30
0.0
  3
_CLOSEDBLANK
  1

  0
LWPOLYLINE
  5
10054
330
10051
100
AcDbEntity
  8
0
  6
BYBLOCK
 62
0
100
AcDbPolyline
 90
3
 70
1
 10
-1.0
 20
0.16439898372402537
 10
0.0
 20
0.0
 10
-1.0
 20
-0.16439898372402537
  0
ENDBLK
  5
10053
330
10051
100
AcDbEntity
  8
0
100
AcDbBlockEnd
  0
BLOCK
  5
10056
330
10055
100
AcDbEntity
  8
0
100
AcDbBlockBegin
  2
_OPEN
 70
0
 10
0.0
 20
0.0
 30
0.0
  3
_OPEN
  1

  0
LWPOLYLINE
  5
10058
330
10055
100
AcDbEntity
  8
0
  6
BYBLOCK
 62
0
100
AcDbPolyline
 90
3
 70
0
 10
-1.0
 20
0.16439898372402537
 10
0.0
 20
0.0
 10
-1.0
 20
-0.16439898372402537
  0
LINE
  5
10059
330
10055
100
AcDbEntity
  8
0
  6
BYBLOCK
 62
0
100
AcDbLine
 10
0.0
 20
0.0
 30
0.0
 11
-1.0
 21
0.0
 31
0.0
  0
ENDBLK
  5
10057
330
10055
100
AcDbEntity
  8
0
100
AcDbBlockEnd
  0
ENDSEC
  0
SECTION
  2
ENTITIES
  0
LWPOLYLINE
  5
100
330
1F
100
AcDbEntity
  8
0
100
AcDbPolyline
 90
8
 70
1
 10
3.571875000000011
 20
-64.29374999999999
 10
3.571875000000011
 20
-59.53125
 42
0.4142135623730951
 10
2.3812500000000103
 20
-58.34062499999998
 10
0.0
 20
-58.34062499999998
 42
0.4142135623730951
 10
-1.1906249999999918
 20
-59.53125
 10
-1.1906249999999918
 20
-64.29374999999999
 42
0.4142135623730951
 10
0.0
 20
-65.484375
 10
2.3812500000000103
 20
-65.484375
 42
0.4142135623730951
  0
CIRCLE
  5
101
330
1F
100
AcDbEntity
  8
0
100
AcDbCircle
 10
47.625
 20
-23.81249999999996
 30
0.0
 40
1.25
  0
CIRCLE
  5
102
330
1F
100
AcDbEntity
  8
0
100
AcDbCircle
 10
-2.3812499999999925
 20
-42.86249999999997
 30
0.0
 40
1.25
  0
CIRCLE
  5
103
330
1F
100
AcDbEntity
  8
0
100
AcDbCircle
 10
209.55
 20
-42.86249999999997
 30
0.0
 40
1.25
  0
CIRCLE
  5
104
330
1F
100
AcDbEntity
  8
0
100
AcDbCircle
 10
309.5625
 20
-80.96249999999996
 30
0.0
 40
1.25
  0
CIRCLE
  5
105
330
1F
100
AcDbEntity
  8
0
100
AcDbCircle
 10
219.07500000000005
 20
0.0
 30
0.0
 40
1.25
  0
CIRCLE
  5
106
330
1F
100
AcDbEntity
  8
0
100
AcDbCircle
 10
76.2
 20
-42.86249999999997
 30
0.0
 40
1.25
  0
LINE
  5
107
330
1F
100
AcDbEntity
  8
0
100
AcDbLine
 10
318.81381400000004
 20
6.038460000000008
 30
0.0
 11
318.81381400000004
 21
-106.06154000000002
 31
0.0
  0
ARC
  5
108
330
1F
100
AcDbEntity
  8
0
100
AcDbCircle
 10
-25.29901999999999
 20
-106.06157400000002
 30
0.0
 40
2.999966000066667
100
AcDbArc
 50
179.99935065027495
 51
269.9996180199999
  0
CIRCLE
  5
109
330
1F
100
AcDbEntity
  8
0
100
AcDbCircle
 10
-9.524999999999988
 20
-23.81249999999996
 30
0.0
 40
1.25
  0
CIRCLE
  5
110
330
1F
100
AcDbEntity
  8
0
100
AcDbCircle
 10
23.812500000000007
 20
-61.91249999999998
 30
0.0
 40
1.25
  0
CIRCLE
  5
111
330
1F
100
AcDbEntity
  8
0
100
AcDbCircle
 10
28.57500000000001
 20
0.0
 30
0.0
 40
1.25
  0
CIRCLE
  5
112
330
1F
100
AcDbEntity
  8
0
100
AcDbCircle
 10
258.289209
 20
-100.01154000000001
 30
0.0
 40
1.25
  0
CIRCLE
  5
113
330
1F
100
AcDbEntity
  8
0
100
AcDbCircle
 10
-26.193749999999998
 20
-61.91249999999998
 30
0.0
 40
1.25
  0
CIRCLE
  5
114
330
1F
100
AcDbEntity
  8
0
100
AcDbCircle
 10
119.06250000000003
 20
-61.91249999999998
 30
0.0
 40
1.25
  0
ARC
  5
115
330
1F
100
AcDbEntity
  8
0
100
AcDbCircle
 10
-25.29902999999999
 20
6.05094600000001
 30
0.0
 40
3.0000100000326717
100
AcDbArc
 50
90.00019098999992
 51
179.9997326202298
  0
LINE
  5
116
330
1F
100
AcDbEntity
  8
0
100
AcDbLine
 10
-25.299040000246336
 20
9.050956000016015
 30
0.0
 11
315.8138140000001
 21
9.038460000000015
 31
0.0
  0
CIRCLE
  5
117
330
1F
100
AcDbEntity
  8
0
100
AcDbCircle
 10
0.0
 20
0.0
 30
0.0
 40
1.25
  0
CIRCLE
  5
118
330
1F
100
AcDbEntity
  8
0
100
AcDbCircle
 10
259.55625000000003
 20
0.0
 30
0.0
 40
1.25
  0
ARC
  5
119
330
1F
100
AcDbEntity
  8
0
100
AcDbCircle
 10
315.81378000000007
 20
6.038426000000001
 30
0.0
 40
3.0000340001926777
100
AcDbArc
 50
0.0006493446735626173
 51
89.99935065519092
  0
CIRCLE
  5
120
330
1F
100
AcDbEntity
  8
0
100
AcDbCircle
 10
280.9875
 20
-23.81249999999996
 30
0.0
 40
1.25
  0
ARC
  5
121
330
1F
100
AcDbEntity
  8
0
100
AcDbCircle
 10
315.8138800000001
 20
-106.06157400000002
 30
0.0
 40
2.999934000192683
100
AcDbArc
 50
-90.0012605200012
 51
0.0006493660018840114
  0
CIRCLE
  5
122
330
1F
100
AcDbEntity
  8
0
100
AcDbCircle
 10
152.40000000000003
 20
-42.86249999999997
 30
0.0
 40
1.25
  0
CIRCLE
  5
123
330
1F
100
AcDbEntity
  8
0
100
AcDbCircle
 10
300.0375
 20
0.0
 30
0.0
 40
1.25
  0
CIRCLE
  5
124
330
1F
100
AcDbEntity
  8
0
100
AcDbCircle
 10
300.0375
 20
-100.0125
 30
0.0
 40
1.25
  0
CIRCLE
  5
125
330
1F
100
AcDbEntity
  8
0
100
AcDbCircle
 10
90.48750000000001
 20
0.0
 30
0.0
 40
1.25
  0
CIRCLE
  5
126
330
1F
100
AcDbEntity
  8
0
100
AcDbCircle
 10
200.02500000000003
 20
-23.81249999999996
 30
0.0
 40
1.25
  0
CIRCLE
  5
127
330
1F
100
AcDbEntity
  8
0
100
AcDbCircle
 10
166.68750000000003
 20
-80.96249999999996
 30
0.0
 40
1.25
  0
CIRCLE
  5
128
330
1F
100
AcDbEntity
  8
0
100
AcDbCircle
 10
14.287500000000017
 20
-80.96249999999996
 30
0.0
 40
1.25
  0
CIRCLE
  5
129
330
1F
100
AcDbEntity
  8
0
100
AcDbCircle
 10
152.40000000000003
 20
0.0
 30
0.0
 40
1.25
  0
CIRCLE
  5
130
330
1F
100
AcDbEntity
  8
0
100
AcDbCircle
 10
284.760706
 20
-58.10153599999998
 30
0.0
 40
1.25
  0
LINE
  5
131
330
1F
100
AcDbEntity
  8
0
100
AcDbLine
 10
-28.299039999999998
 20
-106.06154000000002
 30
0.0
 11
-28.29903999999999
 21
6.050960000030745
 31
0.0
  0
CIRCLE
  5
132
330
1F
100
AcDbEntity
  8
0
100
AcDbCircle
 10
71.4375
 20
-80.96249999999996
 30
0.0
 40
1.25
  0
CIRCLE
  5
133
330
1F
100
AcDbEntity
  8
0
100
AcDbCircle
 10
300.0375
 20
-42.86249999999997
 30
0.0
 40
1.25
  0
LINE
  5
134
330
1F
100
AcDbEntity
  8
0
100
AcDbLine
 10
-25.299040000199355
 20
-109.06154000000002
 30
0.0
 11
315.8138140000001
 21
-109.06154000000002
 31
0.0
  0
CIRCLE
  5
135
330
1F
100
AcDbEntity
  8
0
100
AcDbCircle
 10
123.82500000000005
 20
-23.81249999999996
 30
0.0
 40
1.25
  0
LWPOLYLINE
  5
136
330
1F
100
AcDbEntity
  8
0
100
AcDbPolyline
 90
8
 70
1
 10
-23.968749999999996
 20
-55.412499999999994
 10
-23.968749999999996
 20
-68.41250000000001
 42
0.41421239080304495
 10
-23.46874999999999
 20
-68.91249999999998
 10
-5.1049098616390465
 20
-68.91153999863356
 42
0.4141982509586091
 10
-4.604935999999995
 20
-68.41154000000002
 10
-4.604935999999995
 20
-55.41154
 42
0.4142288739533564
 10
-5.10496213836094
 20
-54.911540001366426
 10
-23.46874999999999
 20
-54.912499999999994
 42
0.4142123908030554
  0
LWPOLYLINE
  5
137
330
1F
100
AcDbEntity
  8
0
100
AcDbPolyline
 90
8
 70
1
 10
59.376314
 20
-36.36153999999999
 10
59.376314
 20
-49.361539999999984
 42
0.4142135623730951
 10
59.87631400000001
 20
-49.86153999999999
 10
73.476314
 20
-49.86153999999999
 42
0.41421239080304495
 10
73.97631399999999
 20
-49.361539999999984
 10
73.97631399999999
 20
-36.36153999999999
 42
0.41421239080304495
 10
73.476314
 20
-35.86153999999999
 10
59.87631400000001
 20
-35.86153999999999
 42
0.4142135623730951
  0
LWPOLYLINE
  5
138
330
1F
100
AcDbEntity
  8
0
100
AcDbPolyline
 90
8
 70
1
 10
87.95131400000002
 20
-17.311539999999983
 10
87.95131400000002
 20
-30.31153999999999
 42
0.41421239080306577
 10
88.45131400000002
 20
-30.811539999999997
 10
102.05131400000002
 20
-30.811539999999997
 42
0.4142135623730951
 10
102.55131400000003
 20
-30.31153999999999
 10
102.55131400000003
 20
-17.311539999999983
 42
0.4142135623730951
 10
102.05131400000002
 20
-16.811539999999994
 10
88.45131400000002
 20
-16.811539999999994
 42
0.4142123908030554
  0
LWPOLYLINE
  5
139
330
1F
100
AcDbEntity
  8
0
100
AcDbPolyline
 90
8
 70
1
 10
78.426314
 20
-36.36153999999999
 10
78.426314
 20
-49.361539999999984
 42
0.4142135623730951
 10
78.92631400000002
 20
-49.86153999999999
 10
92.52631400000001
 20
-49.86153999999999
 42
0.41421239080304495
 10
93.02631400000003
 20
-49.361539999999984
 10
93.02631400000003
 20
-36.36153999999999
 42
0.41421239080304495
 10
92.52631400000001
 20
-35.86153999999999
 10
78.92631400000002
 20
-35.86153999999999
 42
0.4142135623730951
  0
LWPOLYLINE
  5
140
330
1F
100
AcDbEntity
  8
0
100
AcDbPolyline
 90
8
 70
1
 10
240.35118400000005
 20
6.500960000000031
 10
240.35118400000005
 20
-6.499039999999994
 42
0.4142135623730951
 10
240.85118400000005
 20
-6.999039999999983
 10
254.451184
 20
-6.999039999999983
 42
0.41421239080304495
 10
254.95118399999998
 20
-6.499039999999994
 10
254.95118399999998
 20
6.500960000000031
 42
0.41421239080304495
 10
254.451184
 20
7.0009600000000205
 10
240.85118400000005
 20
7.0009600000000205
 42
0.4142135623730951
  0
LWPOLYLINE
  5
141
330
1F
100
AcDbEntity
  8
0
100
AcDbPolyline
 90
8
 70
1
 10
68.90104000000002
 20
6.500960000000031
 10
68.90104000000002
 20
-6.499039999999994
 42
0.4142135623730951
 10
69.40104000000001
 20
-6.999039999999983
 10
83.00104000000002
 20
-6.999039999999983
 42
0.41421239080304495
 10
83.50104000000002
 20
-6.499039999999994
 10
83.50104000000002
 20
6.500960000000031
 42
0.41421239080304495
 10
83.00104000000002
 20
7.0009600000000205
 10
69.40104000000001
 20
7.0009600000000205
 42
0.4142135623730951
  0
LWPOLYLINE
  5
142
330
1F
100
AcDbEntity
  8
0
100
AcDbPolyline
 90
8
 70
1
 10
145.10131400000003
 20
-17.311539999999983
 10
145.10131400000003
 20
-30.31153999999999
 42
0.41421239080304495
 10
145.60131400000003
 20
-30.811539999999997
 10
159.20131400000002
 20
-30.811539999999997
 42
0.4142135623730951
 10
159.70131400000002
 20
-30.31153999999999
 10
159.70131400000002
 20
-17.311539999999983
 42
0.4142135623730951
 10
159.20131400000002
 20
-16.811539999999994
 10
145.60131400000003
 20
-16.811539999999994
 42
0.4142123908030345
  0
LWPOLYLINE
  5
143
330
1F
100
AcDbEntity
  8
0
100
AcDbPolyline
 90
8
 70
1
 10
-7.2986859999999965
 20
-17.311539999999983
 10
-7.2986859999999965
 20
-30.31153999999999
 42
0.41421239080304495
 10
-6.798685999999998
 20
-30.811539999999997
 10
6.801314000000005
 20
-30.811539999999997
 42
0.4142135623730951
 10
7.301314000000003
 20
-30.31153999999999
 10
7.301314000000003
 20
-17.311539999999983
 42
0.4142135623730951
 10
6.801314000000005
 20
-16.811539999999994
 10
-6.798685999999998
 20
-16.811539999999994
 42
0.4142123908030345
  0
LWPOLYLINE
  5
144
330
1F
100
AcDbEntity
  8
0
100
AcDbPolyline
 90
8
 70
1
 10
149.86381400000002
 20
-74.46153999999994
 10
149.86381400000002
 20
-87.46153999999999
 42
0.4142123908030554
 10
150.36381400000005
 20
-87.96154
 10
163.963814
 20
-87.96154
 42
0.4142135623730951
 10
164.46381400000004
 20
-87.46153999999999
 10
164.46381400000004
 20
-74.46153999999994
 42
0.4142135623730951
 10
163.963814
 20
-73.96153999999994
 10
150.36381400000005
 20
-73.96153999999994
 42
0.4142123908030345
  0
LWPOLYLINE
  5
145
330
1F
100
AcDbEntity
  8
0
100
AcDbPolyline
 90
8
 70
1
 10
11.751314000000006
 20
-17.311539999999983
 10
11.751314000000006
 20
-30.31153999999999
 42
0.4142123908030554
 10
12.251314000000013
 20
-30.811539999999997
 10
25.85131400000001
 20
-30.811539999999997
 42
0.4142135623730951
 10
26.351314000000016
 20
-30.31153999999999
 10
26.351314000000016
 20
-17.311539999999983
 42
0.4142135623730951
 10
25.85131400000001
 20
-16.811539999999994
 10
12.251314000000013
 20
-16.811539999999994
 42
0.41421239080304495
  0
LWPOLYLINE
  5
146
330
1F
100
AcDbEntity
  8
0
100
AcDbPolyline
 90
8
 70
1
 10
164.15131400000004
 20
-17.311539999999983
 10
164.15131400000004
 20
-30.31153999999999
 42
0.41421239080304495
 10
164.651314
 20
-30.811539999999997
 10
178.251314
 20
-30.811539999999997
 42
0.4142135623730951
 10
178.751314
 20
-30.31153999999999
 10
178.751314
 20
-17.311539999999983
 42
0.4142135623730951
 10
178.251314
 20
-16.811539999999994
 10
164.651314
 20
-16.811539999999994
 42
0.4142123908030345
  0
LWPOLYLINE
  5
147
330
1F
100
AcDbEntity
  8
0
100
AcDbPolyline
 90
8
 70
1
 10
97.47606399999998
 20
6.500960000000031
 10
97.47606399999998
 20
-6.499039999999994
 42
0.4142135623730951
 10
97.976064
 20
-6.999039999999983
 10
111.57606400000003
 20
-6.999039999999983
 42
0.41421239080306577
 10
112.07606400000003
 20
-6.499039999999994
 10
112.07606400000003
 20
6.500960000000031
 42
0.41421239080306577
 10
111.57606400000003
 20
7.0009600000000205
 10
97.976064
 20
7.0009600000000205
 42
0.4142135623730951
  0
LWPOLYLINE
  5
148
330
1F
100
AcDbEntity
  8
0
100
AcDbPolyline
 90
8
 70
1
 10
154.62631400000004
 20
-36.36153999999999
 10
154.62631400000004
 20
-49.361539999999984
 42
0.4142135623730951
 10
155.126314
 20
-49.86153999999999
 10
168.72631400000003
 20
-49.86153999999999
 42
0.41421239080306577
 10
169.22631400000003
 20
-49.361539999999984
 10
169.22631400000003
 20
-36.36153999999999
 42
0.41421239080306577
 10
168.72631400000003
 20
-35.86153999999999
 10
155.126314
 20
-35.86153999999999
 42
0.4142135623730951
  0
LWPOLYLINE
  5
149
330
1F
100
AcDbEntity
  8
0
100
AcDbPolyline
 90
8
 70
1
 10
49.85102400000002
 20
6.500960000000031
 10
49.85102400000002
 20
-6.499039999999994
 42
0.4142135623730951
 10
50.351024000000024
 20
-6.999039999999983
 10
63.95102400000002
 20
-6.999039999999983
 42
0.41421239080304495
 10
64.451024
 20
-6.499039999999994
 10
64.451024
 20
6.500960000000031
 42
0.41421239080304495
 10
63.95102400000002
 20
7.0009600000000205
 10
50.351024000000024
 20
7.0009600000000205
 42
0.4142135623730951
  0
LWPOLYLINE
  5
150
330
1F
100
AcDbEntity
  8
0
100
AcDbPolyline
 90
8
 70
1
 10
30.80131400000002
 20
-17.311539999999983
 10
30.80131400000002
 20
-30.31153999999999
 42
0.41421239080306577
 10
31.301314000000026
 20
-30.811539999999997
 10
44.901314
 20
-30.811539999999997
 42
0.4142135623730951
 10
45.401314000000006
 20
-30.31153999999999
 10
45.401314000000006
 20
-17.311539999999983
 42
0.4142135623730951
 10
44.901314
 20
-16.811539999999994
 10
31.301314000000026
 20
-16.811539999999994
 42
0.4142123908030554
  0
LWPOLYLINE
  5
151
330
1F
100
AcDbEntity
  8
0
100
AcDbPolyline
 90
8
 70
1
 10
92.71381400000003
 20
-74.46153999999994
 10
92.71381400000003
 20
-87.46153999999999
 42
0.4142123908030345
 10
93.213814
 20
-87.96154
 10
106.813814
 20
-87.96154
 42
0.4142135623730951
 10
107.31381400000001
 20
-87.46153999999999
 10
107.31381400000001
 20
-74.46153999999994
 42
0.4142135623730951
 10
106.813814
 20
-73.96153999999994
 10
93.213814
 20
-73.96153999999994
 42
0.41421239080301375
  0
LWPOLYLINE
  5
152
330
1F
100
AcDbEntity
  8
0
100
AcDbPolyline
 90
8
 70
1
 10
187.963814
 20
-74.46153999999994
 10
187.963814
 20
-87.46153999999999
 42
0.4142123908030345
 10
188.463814
 20
-87.96154
 10
202.06381400000004
 20
-87.96154
 42
0.4142135623730951
 10
202.56381400000006
 20
-87.46153999999999
 10
202.56381400000006
 20
-74.46153999999994
 42
0.4142135623730951
 10
202.06381400000004
 20
-73.96153999999994
 10
188.463814
 20
-73.96153999999994
 42
0.41421239080301375
  0
LWPOLYLINE
  5
153
330
1F
100
AcDbEntity
  8
0
100
AcDbPolyline
 90
8
 70
1
 10
130.813814
 20
-74.46153999999994
 10
130.813814
 20
-87.46153999999999
 42
0.4142123908030554
 10
131.31381400000004
 20
-87.96154
 10
144.91381400000006
 20
-87.96154
 42
0.4142135623730951
 10
145.41381400000003
 20
-87.46153999999999
 10
145.41381400000003
 20
-74.46153999999994
 42
0.4142135623730951
 10
144.91381400000006
 20
-73.96153999999994
 10
131.31381400000004
 20
-73.96153999999994
 42
0.4142123908030345
  0
LWPOLYLINE
  5
154
330
1F
100
AcDbEntity
  8
0
100
AcDbPolyline
 90
8
 70
1
 10
102.23881400000003
 20
-55.41154
 10
102.23881400000003
 20
-68.41154000000002
 42
0.4142135623730951
 10
102.738814
 20
-68.91153999999999
 10
116.338814
 20
-68.91153999999999
 42
0.4142123908030554
 10
116.83881400000001
 20
-68.41154000000002
 10
116.83881400000001
 20
-55.41154
 42
0.41421239080306577
 10
116.338814
 20
-54.91154
 10
102.738814
 20
-54.91154
 42
0.4142135623730951
  0
LWPOLYLINE
  5
155
330
1F
100
AcDbEntity
  8
0
100
AcDbPolyline
 90
8
 70
1
 10
35.56381400000002
 20
-74.46153999999994
 10
35.56381400000002
 20
-87.46153999999999
 42
0.41421239080304495
 10
36.06381400000001
 20
-87.96154
 10
49.663814
 20
-87.96154
 42
0.4142135623730951
 10
50.16381400000001
 20
-87.46153999999999
 10
50.16381400000001
 20
-74.46153999999994
 42
0.4142135623730951
 10
49.663814
 20
-73.96153999999994
 10
36.06381400000001
 20
-73.96153999999994
 42
0.41421239080302413
  0
LWPOLYLINE
  5
156
330
1F
100
AcDbEntity
  8
0
100
AcDbPolyline
 90
8
 70
1
 10
178.438814
 20
-55.41154
 10
178.438814
 20
-68.41154000000002
 42
0.4142135623730951
 10
178.938814
 20
-68.91153999999999
 10
192.538814
 20
-68.91153999999999
 42
0.4142123908030345
 10
193.038814
 20
-68.41154000000002
 10
193.038814
 20
-55.41154
 42
0.41421239080304495
 10
192.538814
 20
-54.91154
 10
178.938814
 20
-54.91154
 42
0.4142135623730951
  0
LWPOLYLINE
  5
157
330
1F
100
AcDbEntity
  8
0
100
AcDbPolyline
 90
8
 70
1
 10
159.38881400000002
 20
-55.41154
 10
159.38881400000002
 20
-68.41154000000002
 42
0.4142135623730951
 10
159.88881400000002
 20
-68.91153999999999
 10
173.48881400000005
 20
-68.91153999999999
 42
0.4142123908030345
 10
173.98881400000005
 20
-68.41154000000002
 10
173.98881400000005
 20
-55.41154
 42
0.41421239080304495
 10
173.48881400000005
 20
-54.91154
 10
159.88881400000002
 20
-54.91154
 42
0.4142135623730951
  0
LWPOLYLINE
  5
158
330
1F
100
AcDbEntity
  8
0
100
AcDbPolyline
 90
8
 70
1
 10
173.67631400000005
 20
-36.36153999999999
 10
173.67631400000005
 20
-49.361539999999984
 42
0.4142135623730951
 10
174.17631400000002
 20
-49.86153999999999
 10
187.776314
 20
-49.86153999999999
 42
0.41421239080306577
 10
188.276314
 20
-49.361539999999984
 10
188.276314
 20
-36.36153999999999
 42
0.41421239080306577
 10
187.776314
 20
-35.86153999999999
 10
174.17631400000002
 20
-35.86153999999999
 42
0.4142135623730951
  0
LWPOLYLINE
  5
159
330
1F
100
AcDbEntity
  8
0
100
AcDbPolyline
 90
8
 70
1
 10
283.213822
 20
6.500960000000031
 10
283.213822
 20
-6.499039999999994
 42
0.4142135623730951
 10
283.71382200000005
 20
-6.999039999999983
 10
297.313822
 20
-6.999039999999983
 42
0.41421239080304495
 10
297.813822
 20
-6.499039999999994
 10
297.813822
 20
6.500960000000031
 42
0.41421239080304495
 10
297.313822
 20
7.0009600000000205
 10
283.71382200000005
 20
7.0009600000000205
 42
0.4142135623730951
  0
LWPOLYLINE
  5
160
330
1F
100
AcDbEntity
  8
0
100
AcDbPolyline
 90
8
 70
1
 10
302.263822
 20
-93.51155599999997
 10
302.263822
 20
-106.51155599999997
 42
0.41421239080309696
 10
302.76382200000006
 20
-107.01155599999998
 10
316.363822
 20
-107.01155599999998
 42
0.4142135623730951
 10
316.8638220000001
 20
-106.51155599999997
 10
316.8638220000001
 20
-93.51155599999997
 42
0.4142135623730951
 10
316.363822
 20
-93.011556
 10
302.76382200000006
 20
-93.011556
 42
0.4142123908030554
  0
LWPOLYLINE
  5
161
330
1F
100
AcDbEntity
  8
0
100
AcDbPolyline
 90
8
 70
1
 10
283.213822
 20
-36.361555999999965
 10
283.213822
 20
-49.36155599999998
 42
0.41421239080304495
 10
283.71382200000005
 20
-49.86155599999998
 10
297.313822
 20
-49.86155599999998
 42
0.4142135623730951
 10
297.813822
 20
-49.36155599999998
 10
297.813822
 20
-36.361555999999965
 42
0.4142135623730951
 10
297.313822
 20
-35.86155599999998
 10
283.71382200000005
 20
-35.86155599999998
 42
0.41421239080302413
  0
LWPOLYLINE
  5
162
330
1F
100
AcDbEntity
  8
0
100
AcDbPolyline
 90
8
 70
1
 10
68.901314
 20
-17.311539999999983
 10
68.901314
 20
-30.31153999999999
 42
0.4142123908030554
 10
69.40131400000001
 20
-30.811539999999997
 10
83.00131400000001
 20
-30.811539999999997
 42
0.4142135623730951
 10
83.50131399999998
 20
-30.31153999999999
 10
83.50131399999998
 20
-17.311539999999983
 42
0.4142135623730951
 10
83.00131400000001
 20
-16.811539999999994
 10
69.40131400000001
 20
-16.811539999999994
 42
0.41421239080304495
  0
LWPOLYLINE
  5
163
330
1F
100
AcDbEntity
  8
0
100
AcDbPolyline
 90
8
 70
1
 10
49.85131400000001
 20
-17.311539999999983
 10
49.85131400000001
 20
-30.31153999999999
 42
0.41421239080304495
 10
50.351314
 20
-30.811539999999997
 10
63.95131400000001
 20
-30.811539999999997
 42
0.4142135623730951
 10
64.45131400000002
 20
-30.31153999999999
 10
64.45131400000002
 20
-17.311539999999983
 42
0.4142135623730951
 10
63.95131400000001
 20
-16.811539999999994
 10
50.351314
 20
-16.811539999999994
 42
0.4142123908030345
  0
LWPOLYLINE
  5
164
330
1F
100
AcDbEntity
  8
0
100
AcDbPolyline
 90
8
 70
1
 10
302.263838
 20
6.500960000000031
 10
302.263838
 20
-6.499039999999994
 42
0.41421239080304495
 10
302.763838
 20
-6.999039999999983
 10
316.3638380000001
 20
-6.999039999999983
 42
0.4142135623730951
 10
316.86383800000004
 20
-6.499039999999994
 10
316.86383800000004
 20
6.500960000000031
 42
0.4142135623730951
 10
316.3638380000001
 20
7.0009600000000205
 10
302.763838
 20
7.0009600000000205
 42
0.41421239080304495
  0
LWPOLYLINE
  5
165
330
1F
100
AcDbEntity
  8
0
100
AcDbPolyline
 90
8
 70
1
 10
135.57609600000004
 20
6.500960000000031
 10
135.57609600000004
 20
-6.499039999999994
 42
0.4142135623730951
 10
136.076096
 20
-6.999039999999983
 10
149.67609600000003
 20
-6.999039999999983
 42
0.41421239080306577
 10
150.17609600000003
 20
-6.499039999999994
 10
150.17609600000003
 20
6.500960000000031
 42
0.41421239080306577
 10
149.67609600000003
 20
7.0009600000000205
 10
136.076096
 20
7.0009600000000205
 42
0.4142135623730951
  0
LWPOLYLINE
  5
166
330
1F
100
AcDbEntity
  8
0
100
AcDbPolyline
 90
8
 70
1
 10
6.988814000000003
 20
-55.41154
 10
6.988814000000003
 20
-68.41154000000002
 42
0.4142135623730951
 10
7.48881400000001
 20
-68.91153999999999
 10
21.088814000000006
 20
-68.91153999999999
 42
0.41421239080304495
 10
21.588813999999992
 20
-68.41154000000002
 10
21.588813999999992
 20
-55.41154
 42
0.4142123908030554
 10
21.088814000000006
 20
-54.91154
 10
7.48881400000001
 20
-54.91154
 42
0.4142135623730951
  0
LWPOLYLINE
  5
167
330
1F
100
AcDbEntity
  8
0
100
AcDbPolyline
 90
8
 70
1
 10
11.750991999999991
 20
6.500960000000031
 10
11.750991999999991
 20
-6.499039999999994
 42
0.4142135623730951
 10
12.250991999999998
 20
-6.999039999999983
 10
25.850992000000026
 20
-6.999039999999983
 42
0.41421239080304495
 10
26.35099200000002
 20
-6.499039999999994
 10
26.35099200000002
 20
6.500960000000031
 42
0.41421239080304495
 10
25.850992000000026
 20
7.0009600000000205
 10
12.250991999999998
 20
7.0009600000000205
 42
0.4142135623730951
  0
LWPOLYLINE
  5
168
330
1F
100
AcDbEntity
  8
0
100
AcDbPolyline
 90
8
 70
1
 10
302.263838
 20
-17.311539999999983
 10
302.263838
 20
-30.31153999999999
 42
0.41421239080304495
 10
302.763838
 20
-30.811539999999997
 10
316.3638380000001
 20
-30.811539999999997
 42
0.4142135623730951
 10
316.86383800000004
 20
-30.31153999999999
 10
316.86383800000004
 20
-17.311539999999983
 42
0.4142135623730951
 10
316.3638380000001
 20
-16.811539999999994
 10
302.763838
 20
-16.811539999999994
 42
0.4142123908030345
  0
LWPOLYLINE
  5
169
330
1F
100
AcDbEntity
  8
0
100
AcDbPolyline
 90
8
 70
1
 10
283.21380600000003
 20
-74.46153999999994
 10
283.21380600000003
 20
-87.46153999999999
 42
0.4142135623730951
 10
283.713806
 20
-87.96154
 10
297.313806
 20
-87.96154
 42
0.4142123908030762
 10
297.813806
 20
-87.46153999999999
 10
297.813806
 20
-74.46153999999994
 42
0.4142123908030554
 10
297.313806
 20
-73.96153999999994
 10
283.713806
 20
-73.96153999999994
 42
0.4142135623730951
  0
LWPOLYLINE
  5
170
330
1F
100
AcDbEntity
  8
0
100
AcDbPolyline
 90
8
 70
1
 10
221.30116800000002
 20
6.500960000000031
 10
221.30116800000002
 20
-6.499039999999994
 42
0.4142135623730951
 10
221.80116800000005
 20
-6.999039999999983
 10
235.40116800000004
 20
-6.999039999999983
 42
0.41421239080306577
 10
235.90116800000004
 20
-6.499039999999994
 10
235.90116800000004
 20
6.500960000000031
 42
0.41421239080306577
 10
235.40116800000004
 20
7.0009600000000205
 10
221.80116800000005
 20
7.0009600000000205
 42
0.4142135623730951
  0
LWPOLYLINE
  5
171
330
1F
100
AcDbEntity
  8
0
100
AcDbPolyline
 90
8
 70
1
 10
302.263838
 20
-36.361555999999965
 10
302.263838
 20
-49.36155599999998
 42
0.41421239080304495
 10
302.763838
 20
-49.86155599999998
 10
316.3638380000001
 20
-49.86155599999998
 42
0.4142135623730951
 10
316.86383800000004
 20
-49.36155599999998
 10
316.86383800000004
 20
-36.361555999999965
 42
0.4142135623730951
 10
316.3638380000001
 20
-35.86155599999998
 10
302.763838
 20
-35.86155599999998
 42
0.41421239080302413
  0
LWPOLYLINE
  5
172
330
1F
100
AcDbEntity
  8
0
100
AcDbPolyline
 90
8
 70
1
 10
197.48881400000005
 20
-55.41154
 10
197.48881400000005
 20
-68.41154000000002
 42
0.4142135623730951
 10
197.98881400000005
 20
-68.91153999999999
 10
211.588814
 20
-68.91153999999999
 42
0.4142123908030345
 10
212.088814
 20
-68.41154000000002
 10
212.088814
 20
-55.41154
 42
0.41421239080304495
 10
211.588814
 20
-54.91154
 10
197.98881400000005
 20
-54.91154
 42
0.4142135623730951
  0
LWPOLYLINE
  5
173
330
1F
100
AcDbEntity
  8
0
100
AcDbPolyline
 90
8
 70
1
 10
45.088814000000006
 20
-55.41154
 10
45.088814000000006
 20
-68.41154000000002
 42
0.4142135623730951
 10
45.588814
 20
-68.91153999999999
 10
59.188813999999994
 20
-68.91153999999999
 42
0.41421239080304495
 10
59.688814
 20
-68.41154000000002
 10
59.688814
 20
-55.41154
 42
0.4142123908030554
 10
59.188813999999994
 20
-54.91154
 10
45.588814
 20
-54.91154
 42
0.4142135623730951
  0
LWPOLYLINE
  5
174
330
1F
100
AcDbEntity
  8
0
100
AcDbPolyline
 90
8
 70
1
 10
30.80100800000001
 20
6.500960000000031
 10
30.80100800000001
 20
-6.499039999999994
 42
0.4142135623730951
 10
31.301008000000017
 20
-6.999039999999983
 10
44.90100800000003
 20
-6.999039999999983
 42
0.41421239080304495
 10
45.40100800000004
 20
-6.499039999999994
 10
45.40100800000004
 20
6.500960000000031
 42
0.41421239080304495
 10
44.90100800000003
 20
7.0009600000000205
 10
31.301008000000017
 20
7.0009600000000205
 42
0.4142135623730951
  0
LWPOLYLINE
  5
175
330
1F
100
AcDbEntity
  8
0
100
AcDbPolyline
 90
8
 70
1
 10
116.52608000000001
 20
6.500960000000031
 10
116.52608000000001
 20
-6.499039999999994
 42
0.4142135623730951
 10
117.02608000000001
 20
-6.999039999999983
 10
130.62608000000006
 20
-6.999039999999983
 42
0.41421239080304495
 10
131.12608000000006
 20
-6.499039999999994
 10
131.12608000000006
 20
6.500960000000031
 42
0.41421239080304495
 10
130.62608000000006
 20
7.0009600000000205
 10
117.02608000000001
 20
7.0009600000000205
 42
0.4142135623730951
  0
LWPOLYLINE
  5
176
330
1F
100
AcDbEntity
  8
0
100
AcDbPolyline
 90
8
 70
1
 10
54.61381400000003
 20
-74.46153999999994
 10
54.61381400000003
 20
-87.46153999999999
 42
0.4142123908030554
 10
55.11381400000004
 20
-87.96154
 10
68.713814
 20
-87.96154
 42
0.4142135623730951
 10
69.213814
 20
-87.46153999999999
 10
69.213814
 20
-74.46153999999994
 42
0.4142135623730951
 10
68.713814
 20
-73.96153999999994
 10
55.11381400000004
 20
-73.96153999999994
 42
0.4142123908030345
  0
LWPOLYLINE
  5
177
330
1F
100
AcDbEntity
  8
0
100
AcDbPolyline
 90
8
 70
1
 10
168.91381400000003
 20
-74.46153999999994
 10
168.91381400000003
 20
-87.46153999999999
 42
0.4142123908030554
 10
169.41381400000006
 20
-87.96154
 10
183.01381400000002
 20
-87.96154
 42
0.4142135623730951
 10
183.51381400000005
 20
-87.46153999999999
 10
183.51381400000005
 20
-74.46153999999994
 42
0.4142135623730951
 10
183.01381400000002
 20
-73.96153999999994
 10
169.41381400000006
 20
-73.96153999999994
 42
0.4142123908030345
  0
LWPOLYLINE
  5
178
330
1F
100
AcDbEntity
  8
0
100
AcDbPolyline
 90
8
 70
1
 10
283.21380600000003
 20
-93.51155599999997
 10
283.21380600000003
 20
-106.51155599999997
 42
0.4142135623730951
 10
283.713806
 20
-107.01155599999998
 10
297.313806
 20
-107.01155599999998
 42
0.41421239080309696
 10
297.813806
 20
-106.51155599999997
 10
297.813806
 20
-93.51155599999997
 42
0.4142123908030554
 10
297.313806
 20
-93.011556
 10
283.713806
 20
-93.011556
 42
0.4142135623730951
  0
LWPOLYLINE
  5
179
330
1F
100
AcDbEntity
  8
0
100
AcDbPolyline
 90
8
 70
1
 10
21.276313999999992
 20
-36.36153999999999
 10
21.276313999999992
 20
-49.361539999999984
 42
0.4142135623730951
 10
21.776314
 20
-49.86153999999999
 10
35.376314000000015
 20
-49.86153999999999
 42
0.4142123908030554
 10
35.87631400000002
 20
-49.361539999999984
 10
35.87631400000002
 20
-36.36153999999999
 42
0.4142123908030554
 10
35.376314000000015
 20
-35.86153999999999
 10
21.776314
 20
-35.86153999999999
 42
0.4142135623730951
  0
LWPOLYLINE
  5
180
330
1F
100
AcDbEntity
  8
0
100
AcDbPolyline
 90
8
 70
1
 10
135.57631400000002
 20
-36.36153999999999
 10
135.57631400000002
 20
-49.361539999999984
 42
0.4142135623730951
 10
136.07631400000002
 20
-49.86153999999999
 10
149.67631400000002
 20
-49.86153999999999
 42
0.41421239080306577
 10
150.17631400000002
 20
-49.361539999999984
 10
150.17631400000002
 20
-36.36153999999999
 42
0.41421239080306577
 10
149.67631400000002
 20
-35.86153999999999
 10
136.07631400000002
 20
-35.86153999999999
 42
0.4142135623730951
  0
LWPOLYLINE
  5
181
330
1F
100
AcDbEntity
  8
0
100
AcDbPolyline
 90
8
 70
1
 10
-26.349999999999998
 20
6.5000000000000036
 10
-26.349999999999998
 20
-6.5000000000000036
 42
0.4142135623730951
 10
-25.84999999999999
 20
-6.999999999999993
 10
-12.249999999999988
 20
-6.999999999999993
 42
0.4142123908030345
 10
-11.74999999999999
 20
-6.5000000000000036
 10
-11.74999999999999
 20
6.5000000000000036
 42
0.41421239080304495
 10
-12.249999999999988
 20
7.000000000000011
 10
-25.84999999999999
 20
7.000000000000011
 42
0.4142135623730951
  0
LWPOLYLINE
  5
182
330
1F
100
AcDbEntity
  8
0
100
AcDbPolyline
 90
8
 70
1
 10
264.163806
 20
-17.311539999999983
 10
264.163806
 20
-30.31153999999999
 42
0.41421239080304495
 10
264.663806
 20
-30.811539999999997
 10
278.26380600000005
 20
-30.811539999999997
 42
0.4142135623730951
 10
278.7638060000001
 20
-30.31153999999999
 10
278.7638060000001
 20
-17.311539999999983
 42
0.4142135623730951
 10
278.26380600000005
 20
-16.811539999999994
 10
264.663806
 20
-16.811539999999994
 42
0.4142123908030345
  0
LWPOLYLINE
  5
183
330
1F
100
AcDbEntity
  8
0
100
AcDbPolyline
 90
8
 70
1
 10
264.16379
 20
-93.51155599999997
 10
264.16379
 20
-106.51155599999997
 42
0.4142135623730951
 10
264.66379
 20
-107.01155599999998
 10
278.2637900000001
 20
-107.01155599999998
 42
0.4142123908030554
 10
278.76379000000003
 20
-106.51155599999997
 10
278.76379000000003
 20
-93.51155599999997
 42
0.41421239080301375
 10
278.2637900000001
 20
-93.011556
 10
264.66379
 20
-93.011556
 42
0.4142135623730951
  0
LWPOLYLINE
  5
184
330
1F
100
AcDbEntity
  8
0
100
AcDbPolyline
 90
8
 70
1
 10
202.25131400000006
 20
-17.311539999999983
 10
202.25131400000006
 20
-30.31153999999999
 42
0.41421239080304495
 10
202.75131400000004
 20
-30.811539999999997
 10
216.35131400000003
 20
-30.811539999999997
 42
0.4142135623730951
 10
216.851314
 20
-30.31153999999999
 10
216.851314
 20
-17.311539999999983
 42
0.4142135623730951
 10
216.35131400000003
 20
-16.811539999999994
 10
202.75131400000004
 20
-16.811539999999994
 42
0.4142123908030345
  0
LWPOLYLINE
  5
185
330
1F
100
AcDbEntity
  8
0
100
AcDbPolyline
 90
8
 70
1
 10
183.20131400000005
 20
-17.311539999999983
 10
183.20131400000005
 20
-30.31153999999999
 42
0.41421239080304495
 10
183.70131400000002
 20
-30.811539999999997
 10
197.30131400000005
 20
-30.811539999999997
 42
0.4142135623730951
 10
197.80131400000005
 20
-30.31153999999999
 10
197.80131400000005
 20
-17.311539999999983
 42
0.4142135623730951
 10
197.30131400000005
 20
-16.811539999999994
 10
183.70131400000002
 20
-16.811539999999994
 42
0.4142123908030345
  0
LWPOLYLINE
  5
186
330
1F
100
AcDbEntity
  8
0
100
AcDbPolyline
 90
8
 70
1
 10
183.20113600000002
 20
6.500960000000031
 10
183.20113600000002
 20
-6.499039999999994
 42
0.4142135623730951
 10
183.70113600000002
 20
-6.999039999999983
 10
197.30113600000007
 20
-6.999039999999983
 42
0.41421239080304495
 10
197.80113600000004
 20
-6.499039999999994
 10
197.80113600000004
 20
6.500960000000031
 42
0.41421239080304495
 10
197.30113600000007
 20
7.0009600000000205
 10
183.70113600000002
 20
7.0009600000000205
 42
0.4142135623730951
  0
LWPOLYLINE
  5
187
330
1F
100
AcDbEntity
  8
0
100
AcDbPolyline
 90
8
 70
1
 10
154.626112
 20
6.500960000000031
 10
154.626112
 20
-6.499039999999994
 42
0.4142135623730951
 10
155.12611200000003
 20
-6.999039999999983
 10
168.72611200000006
 20
-6.999039999999983
 42
0.41421239080304495
 10
169.22611200000003
 20
-6.499039999999994
 10
169.22611200000003
 20
6.500960000000031
 42
0.41421239080304495
 10
168.72611200000006
 20
7.0009600000000205
 10
155.12611200000003
 20
7.0009600000000205
 42
0.4142135623730951
  0
LWPOLYLINE
  5
188
330
1F
100
AcDbEntity
  8
0
100
AcDbPolyline
 90
8
 70
1
 10
2.2263139999999915
 20
-36.36153999999999
 10
2.2263139999999915
 20
-49.361539999999984
 42
0.4142135623730951
 10
2.7263139999999897
 20
-49.86153999999999
 10
16.326314000000004
 20
-49.86153999999999
 42
0.4142123908030554
 10
16.82631399999999
 20
-49.361539999999984
 10
16.82631399999999
 20
-36.36153999999999
 42
0.4142123908030554
 10
16.326314000000004
 20
-35.86153999999999
 10
2.7263139999999897
 20
-35.86153999999999
 42
0.4142135623730951
  0
LWPOLYLINE
  5
189
330
1F
100
AcDbEntity
  8
0
100
AcDbPolyline
 90
8
 70
1
 10
116.52631400000001
 20
-36.36153999999999
 10
116.52631400000001
 20
-49.361539999999984
 42
0.4142135623730951
 10
117.02631400000001
 20
-49.86153999999999
 10
130.626314
 20
-49.86153999999999
 42
0.41421239080306577
 10
131.126314
 20
-49.361539999999984
 10
131.126314
 20
-36.36153999999999
 42
0.41421239080306577
 10
130.626314
 20
-35.86153999999999
 10
117.02631400000001
 20
-35.86153999999999
 42
0.4142135623730951
  0
LWPOLYLINE
  5
190
330
1F
100
AcDbEntity
  8
0
100
AcDbPolyline
 90
8
 70
1
 10
-26.348693999999995
 20
-17.311539999999983
 10
-26.348693999999995
 20
-30.31153999999999
 42
0.4142123908030501
 10
-25.848693999999995
 20
-30.811539999999997
 10
-12.248693999999993
 20
-30.811539999999997
 42
0.4142135623730951
 10
-11.748693999999995
 20
-30.31153999999999
 10
-11.748693999999995
 20
-17.311539999999983
 42
0.4142135623730951
 10
-12.248693999999993
 20
-16.811539999999994
 10
-25.848693999999995
 20
-16.811539999999994
 42
0.41421239080303973
  0
LWPOLYLINE
  5
191
330
1F
100
AcDbEntity
  8
0
100
AcDbPolyline
 90
8
 70
1
 10
211.776314
 20
-36.36153999999999
 10
211.776314
 20
-49.361539999999984
 42
0.4142135623730951
 10
212.27631400000004
 20
-49.86153999999999
 10
225.87631400000004
 20
-49.86153999999999
 42
0.41421239080306577
 10
226.37631400000004
 20
-49.361539999999984
 10
226.37631400000004
 20
-36.36153999999999
 42
0.41421239080306577
 10
225.87631400000004
 20
-35.86153999999999
 10
212.27631400000004
 20
-35.86153999999999
 42
0.4142135623730951
  0
LWPOLYLINE
  5
192
330
1F
100
AcDbEntity
  8
0
100
AcDbPolyline
 90
8
 70
1
 10
121.28881400000004
 20
-55.41154
 10
121.28881400000004
 20
-68.41154000000002
 42
0.4142135623730951
 10
121.78881400000006
 20
-68.91153999999999
 10
135.38881400000005
 20
-68.91153999999999
 42
0.4142123908030345
 10
135.88881400000002
 20
-68.41154000000002
 10
135.88881400000002
 20
-55.41154
 42
0.41421239080304495
 10
135.38881400000005
 20
-54.91154
 10
121.78881400000006
 20
-54.91154
 42
0.4142135623730951
  0
LWPOLYLINE
  5
193
330
1F
100
AcDbEntity
  8
0
100
AcDbPolyline
 90
8
 70
1
 10
140.338814
 20
-55.41154
 10
140.338814
 20
-68.41154000000002
 42
0.4142135623730951
 10
140.838814
 20
-68.91153999999999
 10
154.43881400000004
 20
-68.91153999999999
 42
0.4142123908030345
 10
154.93881400000004
 20
-68.41154000000002
 10
154.93881400000004
 20
-55.41154
 42
0.41421239080304495
 10
154.43881400000004
 20
-54.91154
 10
140.838814
 20
-54.91154
 42
0.4142135623730951
  0
LWPOLYLINE
  5
194
330
1F
100
AcDbEntity
  8
0
100
AcDbPolyline
 90
8
 70
1
 10
16.513805999999988
 20
-74.46153999999994
 10
16.513805999999988
 20
-87.46153999999999
 42
0.41421239080304495
 10
17.013805999999995
 20
-87.96154
 10
30.613806000000025
 20
-87.96154
 42
0.4142135623730951
 10
31.11380600000001
 20
-87.46153999999999
 10
31.11380600000001
 20
-74.46153999999994
 42
0.4142135623730951
 10
30.613806000000025
 20
-73.96153999999994
 10
17.013805999999995
 20
-73.96153999999994
 42
0.41421239080302413
  0
LWPOLYLINE
  5
195
330
1F
100
AcDbEntity
  8
0
100
AcDbPolyline
 90
8
 70
1
 10
202.25115200000005
 20
6.500960000000031
 10
202.25115200000005
 20
-6.499039999999994
 42
0.4142135623730951
 10
202.75115200000005
 20
-6.999039999999983
 10
216.351152
 20
-6.999039999999983
 42
0.41421239080306577
 10
216.851152
 20
-6.499039999999994
 10
216.851152
 20
6.500960000000031
 42
0.41421239080306577
 10
216.351152
 20
7.0009600000000205
 10
202.75115200000005
 20
7.0009600000000205
 42
0.4142135623730951
  0
LWPOLYLINE
  5
196
330
1F
100
AcDbEntity
  8
0
100
AcDbPolyline
 90
8
 70
1
 10
97.476314
 20
-36.36153999999999
 10
97.476314
 20
-49.361539999999984
 42
0.4142135623730951
 10
97.976314
 20
-49.86153999999999
 10
111.57631400000002
 20
-49.86153999999999
 42
0.41421239080304495
 10
112.07631400000004
 20
-49.361539999999984
 10
112.07631400000004
 20
-36.36153999999999
 42
0.41421239080304495
 10
111.57631400000002
 20
-35.86153999999999
 10
97.976314
 20
-35.86153999999999
 42
0.4142135623730951
  0
LWPOLYLINE
  5
197
330
1F
100
AcDbEntity
  8
0
100
AcDbPolyline
 90
8
 70
1
 10
126.05131400000002
 20
-17.311539999999983
 10
126.05131400000002
 20
-30.31153999999999
 42
0.41421239080304495
 10
126.55131400000002
 20
-30.811539999999997
 10
140.151314
 20
-30.811539999999997
 42
0.4142135623730951
 10
140.651314
 20
-30.31153999999999
 10
140.651314
 20
-17.311539999999983
 42
0.4142135623730951
 10
140.151314
 20
-16.811539999999994
 10
126.55131400000002
 20
-16.811539999999994
 42
0.4142123908030345
  0
LWPOLYLINE
  5
198
330
1F
100
AcDbEntity
  8
0
100
AcDbPolyline
 90
8
 70
1
 10
192.726314
 20
-36.36153999999999
 10
192.726314
 20
-49.361539999999984
 42
0.4142135623730951
 10
193.22631400000003
 20
-49.86153999999999
 10
206.82631400000002
 20
-49.86153999999999
 42
0.41421239080306577
 10
207.32631400000002
 20
-49.361539999999984
 10
207.32631400000002
 20
-36.36153999999999
 42
0.41421239080306577
 10
206.82631400000002
 20
-35.86153999999999
 10
193.22631400000003
 20
-35.86153999999999
 42
0.4142135623730951
  0
LWPOLYLINE
  5
199
330
1F
100
AcDbEntity
  8
0
100
AcDbPolyline
 90
8
 70
1
 10
64.13881400000002
 20
-55.41154
 10
64.13881400000002
 20
-68.41154000000002
 42
0.4142135623730951
 10
64.63881400000001
 20
-68.91153999999999
 10
78.238814
 20
-68.91153999999999
 42
0.41421239080304495
 10
78.738814
 20
-68.41154000000002
 10
78.738814
 20
-55.41154
 42
0.4142123908030554
 10
78.238814
 20
-54.91154
 10
64.63881400000001
 20
-54.91154
 42
0.4142135623730951
  0
LWPOLYLINE
  5
200
330
1F
100
AcDbEntity
  8
0
100
AcDbPolyline
 90
8
 70
1
 10
111.76381400000004
 20
-74.46153999999994
 10
111.76381400000004
 20
-87.46153999999999
 42
0.4142123908030345
 10
112.26381400000001
 20
-87.96154
 10
125.86381400000005
 20
-87.96154
 42
0.4142135623730951
 10
126.36381400000002
 20
-87.46153999999999
 10
126.36381400000002
 20
-74.46153999999994
 42
0.4142135623730951
 10
125.86381400000005
 20
-73.96153999999994
 10
112.26381400000001
 20
-73.96153999999994
 42
0.41421239080301375
  0
LWPOLYLINE
  5
201
330
1F
100
AcDbEntity
  8
0
100
AcDbPolyline
 90
8
 70
1
 10
264.163806
 20
-36.361555999999965
 10
264.163806
 20
-49.36155599999998
 42
0.41421239080304495
 10
264.663806
 20
-49.86155599999998
 10
278.26380600000005
 20
-49.86155599999998
 42
0.4142135623730951
 10
278.7638060000001
 20
-49.36155599999998
 10
278.7638060000001
 20
-36.361555999999965
 42
0.4142135623730951
 10
278.26380600000005
 20
-35.86155599999998
 10
264.663806
 20
-35.86155599999998
 42
0.41421239080302413
  0
LWPOLYLINE
  5
202
330
1F
100
AcDbEntity
  8
0
100
AcDbPolyline
 90
8
 70
1
 10
283.213822
 20
-17.311539999999983
 10
283.213822
 20
-30.31153999999999
 42
0.41421239080304495
 10
283.71382200000005
 20
-30.811539999999997
 10
297.313822
 20
-30.811539999999997
 42
0.4142135623730951
 10
297.813822
 20
-30.31153999999999
 10
297.813822
 20
-17.311539999999983
 42
0.4142135623730951
 10
297.313822
 20
-16.811539999999994
 10
283.71382200000005
 20
-16.811539999999994
 42
0.4142123908030345
  0
LWPOLYLINE
  5
203
330
1F
100
AcDbEntity
  8
0
100
AcDbPolyline
 90
8
 70
1
 10
264.163806
 20
6.500960000000031
 10
264.163806
 20
-6.499039999999994
 42
0.4142135623730951
 10
264.663806
 20
-6.999039999999983
 10
278.26380600000005
 20
-6.999039999999983
 42
0.41421239080304495
 10
278.7638060000001
 20
-6.499039999999994
 10
278.7638060000001
 20
6.500960000000031
 42
0.41421239080304495
 10
278.26380600000005
 20
7.0009600000000205
 10
264.663806
 20
7.0009600000000205
 42
0.4142135623730951
  0
LWPOLYLINE
  5
204
330
1F
100
AcDbEntity
  8
0
100
AcDbPolyline
 90
8
 70
1
 10
26.038814000000016
 20
-55.41154
 10
26.038814000000016
 20
-68.41154000000002
 42
0.4142135623730951
 10
26.538814000000002
 20
-68.91153999999999
 10
40.13881400000002
 20
-68.91153999999999
 42
0.4142123908030345
 10
40.638814000000025
 20
-68.41154000000002
 10
40.638814000000025
 20
-55.41154
 42
0.41421239080304495
 10
40.13881400000002
 20
-54.91154
 10
26.538814000000002
 20
-54.91154
 42
0.4142135623730951
  0
LWPOLYLINE
  5
205
330
1F
100
AcDbEntity
  8
0
100
AcDbPolyline
 90
8
 70
1
 10
107.00131400000001
 20
-17.311539999999983
 10
107.00131400000001
 20
-30.31153999999999
 42
0.41421239080304495
 10
107.50131400000001
 20
-30.811539999999997
 10
121.10131400000003
 20
-30.811539999999997
 42
0.4142135623730951
 10
121.60131400000004
 20
-30.31153999999999
 10
121.60131400000004
 20
-17.311539999999983
 42
0.4142135623730951
 10
121.10131400000003
 20
-16.811539999999994
 10
107.50131400000001
 20
-16.811539999999994
 42
0.4142123908030345
  0
LWPOLYLINE
  5
206
330
1F
100
AcDbEntity
  8
0
100
AcDbPolyline
 90
8
 70
1
 10
-21.586185999999998
 20
-36.36153999999999
 10
-21.586185999999998
 20
-49.361539999999984
 42
0.4142123908030501
 10
-21.086185999999998
 20
-49.86153999999999
 10
-7.486185999999995
 20
-49.86153999999999
 42
0.4142135623730951
 10
-6.9861859999999965
 20
-49.361539999999984
 10
-6.9861859999999965
 20
-36.36153999999999
 42
0.4142135623730951
 10
-7.486185999999995
 20
-35.86153999999999
 10
-21.086185999999998
 20
-35.86153999999999
 42
0.4142123908030501
  0
LWPOLYLINE
  5
207
330
1F
100
AcDbEntity
  8
0
100
AcDbPolyline
 90
8
 70
1
 10
83.18881399999998
 20
-55.41154
 10
83.18881399999998
 20
-68.41154000000002
 42
0.4142135623730951
 10
83.688814
 20
-68.91153999999999
 10
97.28881399999999
 20
-68.91153999999999
 42
0.4142123908030554
 10
97.788814
 20
-68.41154000000002
 10
97.788814
 20
-55.41154
 42
0.41421239080306577
 10
97.28881399999999
 20
-54.91154
 10
83.688814
 20
-54.91154
 42
0.4142135623730951
  0
LWPOLYLINE
  5
208
330
1F
100
AcDbEntity
  8
0
100
AcDbPolyline
 90
8
 70
1
 10
73.66381399999999
 20
-74.46153999999994
 10
73.66381399999999
 20
-87.46153999999999
 42
0.41421239080304495
 10
74.163814
 20
-87.96154
 10
87.76381400000002
 20
-87.96154
 42
0.4142135623730951
 10
88.26381400000002
 20
-87.46153999999999
 10
88.26381400000002
 20
-74.46153999999994
 42
0.4142135623730951
 10
87.76381400000002
 20
-73.96153999999994
 10
74.163814
 20
-73.96153999999994
 42
0.41421239080302413
  0
LWPOLYLINE
  5
209
330
1F
100
AcDbEntity
  8
0
100
AcDbPolyline
 90
8
 70
1
 10
40.326314000000025
 20
-36.36153999999999
 10
40.326314000000025
 20
-49.361539999999984
 42
0.4142135623730951
 10
40.82631400000001
 20
-49.86153999999999
 10
54.42631400000004
 20
-49.86153999999999
 42
0.4142123908030345
 10
54.92631400000003
 20
-49.361539999999984
 10
54.92631400000003
 20
-36.36153999999999
 42
0.4142123908030345
 10
54.42631400000004
 20
-35.86153999999999
 10
40.82631400000001
 20
-35.86153999999999
 42
0.4142135623730951
  0
CIRCLE
  5
1006F
330
1F
100
AcDbEntity
  8
0
100
AcDbCircle
 10
254.52631400000004
 20
-31.011539999999993
 30
0.0
 40
1.25
  0
LWPOLYLINE
  5
10070
330
1F
100
AcDbEntity
  8
0
100
AcDbPolyline
 90
8
 70
1
 10
222.12631400000004
 20
-17.336539999999996
 10
222.12631400000004
 20
-29.054540000000006
 10
225.12631400000004
 20
-30.786540000000002
 10
251.126314
 20
-30.786540000000002
 10
254.12631400000006
 20
-29.054540000000006
 10
254.12631400000006
 20
-17.336539999999996
 42
0.4142135623730951
 10
253.626314
 20
-16.83653999999999
 10
222.62631400000004
 20
-16.83653999999999
 42
0.41421239080304495
  0
CIRCLE
  5
10071
330
1F
100
AcDbEntity
  8
0
100
AcDbCircle
 10
-23.542435999999995
 20
-88.16153999999999
 30
0.0
 40
1.25
  0
LWPOLYLINE
  5
10072
330
1F
100
AcDbEntity
  8
0
100
AcDbPolyline
 90
8
 70
1
 10
-23.142435999999993
 20
-74.48653999999999
 10
-23.142435999999993
 20
-86.20454000000001
 10
-20.142435999999996
 20
-87.93654000000002
 10
5.857564000000002
 20
-87.93654000000002
 10
8.857564
 20
-86.20454000000001
 10
8.857564
 20
-74.48653999999999
 42
0.4142135623730951
 10
8.357564000000002
 20
-73.98653999999999
 10
-22.642435999999996
 20
-73.98653999999999
 42
0.41421239080306055
  0
LWPOLYLINE
  5
10073
330
1F
100
AcDbEntity
  8
0
100
AcDbPolyline
 90
8
 70
1
 10
214.98256400000002
 20
-74.48653999999999
 10
214.98256400000002
 20
-86.20454000000001
 10
217.98256400000002
 20
-87.93654000000002
 10
243.98256400000005
 20
-87.93654000000002
 10
246.98256400000002
 20
-86.20454000000001
 10
246.98256400000002
 20
-74.48653999999999
 42
0.4142135623730951
 10
246.48256400000005
 20
-73.98653999999999
 10
215.48256400000002
 20
-73.98653999999999
 42
0.4142123908030554
  0
CIRCLE
  5
10074
330
1F
100
AcDbEntity
  8
0
100
AcDbCircle
 10
219.34506400000004
 20
-69.11153999999998
 30
0.0
 40
1.25
  0
CIRCLE
  5
10075
330
1F
100
AcDbEntity
  8
0
100
AcDbCircle
 10
252.14506400000008
 20
-69.11153999999998
 30
0.0
 40
1.25
  0
LWPOLYLINE
  5
10076
330
1F
100
AcDbEntity
  8
0
100
AcDbPolyline
 90
8
 70
1
 10
219.745064
 20
-55.43653999999998
 10
219.745064
 20
-67.15454
 10
222.74506400000004
 20
-68.88654000000001
 10
248.745064
 20
-68.88654000000001
 10
251.745064
 20
-67.15454
 10
251.745064
 20
-55.43653999999998
 42
0.4142135623730951
 10
251.24506400000004
 20
-54.93653999999998
 10
220.24506400000004
 20
-54.93653999999998
 42
0.4142123908030554
  0
LWPOLYLINE
  5
10077
330
1F
100
AcDbEntity
  8
0
100
AcDbPolyline
 90
8
 70
1
 10
235.589774
 20
-36.36058
 10
235.589774
 20
-49.36057999999999
 42
0.4142123908030033
 10
236.08977399999998
 20
-49.86058
 10
249.689774
 20
-49.86058
 42
0.4142135623730951
 10
250.189774
 20
-49.36057999999999
 10
250.189774
 20
-36.36058
 42
0.4142135623730951
 10
249.689774
 20
-35.86058
 10
236.08977399999998
 20
-35.86058
 42
0.4142123908030033
  0
CIRCLE
  5
10078
330
1F
100
AcDbEntity
  8
0
100
AcDbCircle
 10
232.171875
 20
-100.0125
 30
0.0
 40
1.25
  0
CIRCLE
  5
10079
330
1F
100
AcDbEntity
  8
0
100
AcDbCircle
 10
184.54687500000003
 20
-100.0125
 30
0.0
 40
1.25
  0
CIRCLE
  5
1007A
330
1F
100
AcDbEntity
  8
0
100
AcDbCircle
 10
123.82500000000005
 20
-100.0125
 30
0.0
 40
1.25
  0
CIRCLE
  5
1007B
330
1F
100
AcDbEntity
  8
0
100
AcDbCircle
 10
83.613763
 20
-107.21154
 30
0.0
 40
1.25
  0
CIRCLE
  5
1007C
330
1F
100
AcDbEntity
  8
0
100
AcDbCircle
 10
-3.5718749999999932
 20
-100.0125
 30
0.0
 40
1.25
  0
CIRCLE
  5
1007D
330
1F
100
AcDbEntity
  8
0
100
AcDbCircle
 10
42.86250000000002
 20
-100.0125
 30
0.0
 40
1.25
  0
LINE
  5
1007E
330
1F
100
AcDbEntity
  8
0
100
AcDbLine
 10
109.19476300000002
 20
-93.01153999999998
 30
0.0
 11
95.59476300001162
 21
-93.01154000000002
 31
0.0
  0
LINE
  5
1007F
330
1F
100
AcDbEntity
  8
0
100
AcDbLine
 10
95.59476300001162
 20
-107.01153999999997
 30
0.0
 11
109.19476300000002
 21
-107.01154000000001
 31
0.0
  0
LWPOLYLINE
  5
10080
330
1F
100
AcDbEntity
  8
0
100
AcDbPolyline
 90
8
 70
1
 10
252.57012300000002
 20
-106.51154
 10
252.57012300000002
 20
-93.51154
 42
0.4142135623730951
 10
252.07012300000005
 20
-93.01153999999998
 10
236.08912300000003
 20
-93.01153999999998
 42
0.4142123908030345
 10
235.58912300000003
 20
-93.51154
 10
235.58912300000003
 20
-106.51154
 42
0.4142123908030345
 10
236.08912300000003
 20
-107.01154000000001
 10
252.07012300000005
 20
-107.01154000000001
 42
0.4142135623730951
  0
LWPOLYLINE
  5
10081
330
1F
100
AcDbEntity
  8
0
100
AcDbPolyline
 90
8
 70
1
 10
211.776563
 20
-93.51154
 10
211.776563
 20
-106.51154
 42
0.4142123908030554
 10
212.27656300000004
 20
-107.01154000000001
 10
228.257563
 20
-107.01154000000001
 42
0.4142135623730951
 10
228.75756300000003
 20
-106.51154
 10
228.75756300000003
 20
-93.51154
 42
0.4142135623730951
 10
228.257563
 20
-93.01153999999998
 10
212.27656300000004
 20
-93.01153999999998
 42
0.4142123908030554
  0
LWPOLYLINE
  5
10082
330
1F
100
AcDbEntity
  8
0
100
AcDbPolyline
 90
8
 70
1
 10
187.964003
 20
-93.51154
 10
187.964003
 20
-106.51154
 42
0.41421239080301375
 10
188.464003
 20
-107.01154000000001
 10
204.44500300000004
 20
-107.01154000000001
 42
0.4142135623730951
 10
204.94500300000004
 20
-106.51154
 10
204.94500300000004
 20
-93.51154
 42
0.4142135623730951
 10
204.44500300000004
 20
-93.01153999999998
 10
188.464003
 20
-93.01153999999998
 42
0.41421239080301375
  0
LWPOLYLINE
  5
10083
330
1F
100
AcDbEntity
  8
0
100
AcDbPolyline
 90
8
 70
1
 10
173.489742
 20
-107.01189099999999
 42
0.4142135623730951
 10
173.989742
 20
-106.51189099999998
 10
173.989742
 20
-93.51189099999998
 42
0.4142135623730951
 10
173.489742
 20
-93.01189099999996
 10
159.88974200001164
 20
-93.011891
 42
0.41421239081664507
 10
159.38974200000004
 20
-93.51189100001159
 10
159.38974200000004
 20
-106.5118909999884
 42
0.41421239081664507
 10
159.88974200001164
 20
-107.01189099999999
  0
LWPOLYLINE
  5
10084
330
1F
100
AcDbEntity
  8
0
100
AcDbPolyline
 90
8
 70
1
 10
23.657339000000015
 20
-93.51154
 10
23.657339000000015
 20
-106.51154
 42
0.4142123908030345
 10
24.157339
 20
-107.01154000000001
 10
40.13833900000001
 20
-107.01154000000001
 42
0.4142135623730951
 10
40.638339000000016
 20
-106.51154
 10
40.638339000000016
 20
-93.51154
 42
0.4142135623730951
 10
40.13833900000001
 20
-93.01153999999998
 10
24.157339
 20
-93.01153999999998
 42
0.4142123908030345
  0
LWPOLYLINE
  5
10085
330
1F
100
AcDbEntity
  8
0
100
AcDbPolyline
 90
8
 70
1
 10
-0.15522099999999206
 20
-93.51179199999999
 10
-0.15522099999999206
 20
-106.511792
 42
0.41421239080304495
 10
0.34477900000000616
 20
-107.011792
 10
16.325778999999983
 20
-107.011792
 42
0.4142135623730951
 10
16.82577899999999
 20
-106.511792
 10
16.82577899999999
 20
-93.51179199999999
 42
0.4142135623730951
 10
16.325778999999983
 20
-93.01179199999999
 10
0.34477900000000616
 20
-93.01179199999999
 42
0.41421239080304495
  0
LWPOLYLINE
  5
10086
330
1F
100
AcDbEntity
  8
0
100
AcDbPolyline
 90
8
 70
1
 10
-23.967780999999995
 20
-93.51154
 10
-23.967780999999995
 20
-106.51154
 42
0.41421239080303973
 10
-23.467781
 20
-107.01154000000001
 10
-7.4867809999999935
 20
-107.01154000000001
 42
0.4142135623730951
 10
-6.986780999999995
 20
-106.51154
 10
-6.986780999999995
 20
-93.51154
 42
0.4142135623730951
 10
-7.4867809999999935
 20
-93.01153999999998
 10
-23.467781
 20
-93.01153999999998
 42
0.41421239080303973
  0
LWPOLYLINE
  5
10087
330
1F
100
AcDbEntity
  8
0
100
AcDbPolyline
 90
8
 70
1
 10
116.01376300000001
 20
-93.53654
 42
0.4142135623730951
 10
115.51376300000001
 20
-93.03654
 10
84.51376300001158
 20
-93.03654
 42
0.41421239081664507
 10
84.01376299999995
 20
-93.53654000001158
 10
84.01376299999998
 20
-105.25453999999998
 10
87.013763
 20
-106.98653999999999
 10
113.01376300000001
 20
-106.98653999999999
 10
116.01376300000001
 20
-105.25453999999998
  0
LWPOLYLINE
  5
10088
330
1F
100
AcDbEntity
  8
0
100
AcDbPolyline
 90
8
 70
1
 10
144.91477400000005
 20
-107.01058000000002
 42
0.4142135623730951
 10
145.41477400000005
 20
-106.51058
 10
145.41477400000005
 20
-93.51058
 42
0.4142135623730951
 10
144.91477400000005
 20
-93.01057999999999
 10
131.31477400001162
 20
-93.01058000000003
 42
0.41421239081664507
 10
130.81477400000006
 20
-93.51058000001161
 10
130.81477400000006
 20
-106.5105799999884
 42
0.41421239081664507
 10
131.31477400001162
 20
-107.01057999999998
  0
LWPOLYLINE
  5
10089
330
1F
100
AcDbEntity
  8
0
100
AcDbPolyline
 90
8
 70
1
 10
54.614766
 20
-93.51058
 10
54.614766
 20
-106.51058
 42
0.41421239080304495
 10
55.11476600000001
 20
-107.01058000000002
 10
68.71476600000003
 20
-107.01058000000002
 42
0.4142135623730951
 10
69.21476600000001
 20
-106.51058
 10
69.21476600000001
 20
-93.51058
 42
0.4142135623730951
 10
68.71476600000003
 20
-93.01057999999999
 10
55.11476600000001
 20
-93.01057999999999
 42
0.41421239080304495
  0
ENDSEC
  0
SECTION
  2
OBJECTS
  0
DICTIONARY
  5
C
330
None
100
AcDbDictionary
281
1
  3
ACAD_GROUP
350
D
  3
ACAD_MLINESTYLE
350
17
  3
ACAD_COLOR
350
1005A
  3
ACAD_LAYOUT
350
1005B
  3
ACAD_MATERIAL
350
1005C
  3
ACAD_MLEADERSTYLE
350
1005D
  3
ACAD_PLOTSETTINGS
350
1005E
  3
ACAD_PLOTSTYLENAME
350
1005F
  3
ACAD_SCALELIST
350
10061
  3
ACAD_TABLESTYLE
350
10062
  3
ACAD_VISUALSTYLE
350
10063
  3
EZDXF_META
350
1008C
  0
DICTIONARY
  5
D
330
None
100
AcDbDictionary
281
1
  0
DICTIONARY
  5
1A
330
C
100
AcDbDictionary
281
1
  0
DICTIONARY
  5
17
330
None
100
AcDbDictionary
281
1
  3
Standard
350
10069
  0
DICTIONARY
  5
1005A
330
C
100
AcDbDictionary
280
0
281
1
  0
DICTIONARY
  5
1005B
330
C
100
AcDbDictionary
280
0
281
1
  3
Model
350
10064
  3
Layout1
350
10065
  0
DICTIONARY
  5
1005C
330
C
100
AcDbDictionary
280
0
281
1
  3
ByBlock
350
10066
  3
ByLayer
350
10067
  3
Global
350
10068
  0
DICTIONARY
  5
1005D
330
C
100
AcDbDictionary
280
0
281
1
  3
Standard
350
1006E
  0
DICTIONARY
  5
1005E
330
C
100
AcDbDictionary
280
0
281
1
  0
ACDBDICTIONARYWDFLT
  5
1005F
330
C
100
AcDbDictionary
280
0
281
1
  3
Normal
350
10060
100
AcDbDictionaryWithDefault
340
10060
  0
ACDBPLACEHOLDER
  5
10060
330
1005F
  0
DICTIONARY
  5
10061
330
C
100
AcDbDictionary
280
0
281
1
  0
DICTIONARY
  5
10062
330
C
100
AcDbDictionary
280
0
281
1
  0
DICTIONARY
  5
10063
330
C
100
AcDbDictionary
280
0
281
1
  0
LAYOUT
  5
10064
330
1005B
100
AcDbPlotSettings
  1

  2
Adobe PDF
  4
A3
  6

 40
7.5
 41
20.0
 42
7.5
 43
20.0
 44
420.0
 45
297.0
 46
0.0
 47
0.0
 48
0.0
 49
0.0
140
0.0
141
0.0
142
1.0
143
1.0
 70
1024
 72
1
 73
0
 74
5
  7

 75
16
 76
0
 77
2
 78
300
147
1.0
148
0.0
149
0.0
100
AcDbLayout
  1
Model
 70
1
 71
0
 10
0.0
 20
0.0
 11
420.0
 21
297.0
 12
0.0
 22
0.0
 32
0.0
 14
1e+20
 24
1e+20
 34
1e+20
 15
-1e+20
 25
-1e+20
 35
-1e+20
146
0.0
 13
0.0
 23
0.0
 33
0.0
 16
1.0
 26
0.0
 36
0.0
 17
0.0
 27
1.0
 37
0.0
 76
1
330
1F
  0
LAYOUT
  5
10065
330
1005B
100
AcDbPlotSettings
  1

  2
Adobe PDF
  4
A3
  6

 40
7.5
 41
20.0
 42
7.5
 43
20.0
 44
420.0
 45
297.0
 46
0.0
 47
0.0
 48
0.0
 49
0.0
140
0.0
141
0.0
142
1.0
143
1.0
 70
0
 72
1
 73
0
 74
5
  7

 75
16
 76
0
 77
2
 78
300
147
1.0
148
0.0
149
0.0
100
AcDbLayout
  1
Layout1
 70
1
 71
1
 10
0.0
 20
0.0
 11
420.0
 21
297.0
 12
0.0
 22
0.0
 32
0.0
 14
1e+20
 24
1e+20
 34
1e+20
 15
-1e+20
 25
-1e+20
 35
-1e+20
146
0.0
 13
0.0
 23
0.0
 33
0.0
 16
1.0
 26
0.0
 36
0.0
 17
0.0
 27
1.0
 37
0.0
 76
1
330
1B
  0
MATERIAL
  5
10066
102
{ACAD_REACTORS
330
1005C
102
}
330
1005C
100
AcDbMaterial
  1
ByBlock
  2

 70
0
 40
1.0
 71
1
 41
1.0
 91
-1023410177
 42
1.0
 72
1
  3

 73
1
 74
1
 75
1
 44
0.5
 73
0
 45
1.0
 46
1.0
 77
1
  4

 78
1
 79
1
170
1
 48
1.0
171
1
  6

172
1
173
1
174
1
140
1.0
141
1.0
175
1
  7

176
1
177
1
178
1
143
1.0
179
1
  8

270
1
271
1
272
1
145
1.0
146
1.0
273
1
  9

274
1
275
1
276
1
 42
1.0
 72
1
  3

 73
1
 74
1
 75
1
 94
63
  0
MATERIAL
  5
10067
102
{ACAD_REACTORS
330
1005C
102
}
330
1005C
100
AcDbMaterial
  1
ByLayer
  2

 70
0
 40
1.0
 71
1
 41
1.0
 91
-1023410177
 42
1.0
 72
1
  3

 73
1
 74
1
 75
1
 44
0.5
 73
0
 45
1.0
 46
1.0
 77
1
  4

 78
1
 79
1
170
1
 48
1.0
171
1
  6

172
1
173
1
174
1
140
1.0
141
1.0
175
1
  7

176
1
177
1
178
1
143
1.0
179
1
  8

270
1
271
1
272
1
145
1.0
146
1.0
273
1
  9

274
1
275
1
276
1
 42
1.0
 72
1
  3

 73
1
 74
1
 75
1
 94
63
  0
MATERIAL
  5
10068
102
{ACAD_REACTORS
330
1005C
102
}
330
1005C
100
AcDbMaterial
  1
Global
  2

 70
0
 40
1.0
 71
1
 41
1.0
 91
-1023410177
 42
1.0
 72
1
  3

 73
1
 74
1
 75
1
 44
0.5
 73
0
 45
1.0
 46
1.0
 77
1
  4

 78
1
 79
1
170
1
 48
1.0
171
1
  6

172
1
173
1
174
1
140
1.0
141
1.0
175
1
  7

176
1
177
1
178
1
143
1.0
179
1
  8

270
1
271
1
272
1
145
1.0
146
1.0
273
1
  9

274
1
275
1
276
1
 42
1.0
 72
1
  3

 73
1
 74
1
 75
1
 94
63
  0
MLINESTYLE
  5
10069
102
{ACAD_REACTORS
330
17
102
}
330
17
100
AcDbMlineStyle
  2
Standard
 70
0
  3

 62
256
 51
90.0
 52
90.0
 71
2
 49
0.5
 62
256
  6
BYLAYER
 49
-0.5
 62
256
  6
BYLAYER
  0
MLEADERSTYLE
  5
1006E
102
{ACAD_REACTORS
330
1005D
102
}
330
1005D
100
AcDbMLeaderStyle
179
2
170
2
171
1
172
0
 90
2
 40
0.0
 41
0.0
173
1
 91
-1056964608
 92
-2
290
1
 42
2.0
291
1
 43
8.0
  3
Standard
 44
4.0
300

342
11
174
1
175
1
176
0
178
1
 93
-1056964608
 45
4.0
292
0
297
0
 46
4.0
 94
-1056964608
 47
1.0
 49
1.0
140
1.0
294
1
141
0.0
177
0
142
1.0
295
0
296
0
143
3.75
271
0
272
9
273
9
  0
DICTIONARY
  5
1008C
330
C
100
AcDbDictionary
281
1
  3
WRITTEN_BY_EZDXF
350
1008D
  0
DICTIONARYVAR
  5
1008D
330
1008C
100
DictionaryVariables
280
0
  1
1.3.0 @ 2024-05-23T11:47:18.503029+00:00
  0
ENDSEC
  0
EOF
