  0
SECTION
  2
HEADER
  9
$ACADVER
  1
AC1032
  9
$ACADMAINTVER
 90
       55
  9
$DWGCODEPAGE
  3
ANSI_1252
  9
$LASTSAVEDBY
  1
cipulot
  9
$REQUIREDVERSIONS
160
                 0
  9
$INSBASE
 10
0.0
 20
0.0
 30
0.0
  9
$EXTMIN
 10
1.000000000000000E+20
 20
1.000000000000000E+20
 30
1.000000000000000E+20
  9
$EXTMAX
 10
-1.000000000000000E+20
 20
-1.000000000000000E+20
 30
-1.000000000000000E+20
  9
$LIMMIN
 10
0.0
 20
0.0
  9
$LIMMAX
 10
12.0
 20
9.0
  9
$ORTHOMODE
 70
     0
  9
$REGENMODE
 70
     1
  9
$FILLMODE
 70
     1
  9
$QTEXTMODE
 70
     0
  9
$MIRRTEXT
 70
     1
  9
$LTSCALE
 40
1.0
  9
$ATTMODE
 70
     1
  9
$TEXTSIZE
 40
0.2
  9
$TRACEWID
 40
0.05
  9
$TEXTSTYLE
  7
STANDARD
  9
$CLAYER
  8
0
  9
$CELTYPE
  6
BYBLOCK
  9
$CECOLOR
 62
   256
  9
$CELTSCALE
 40
1.0
  9
$DISPSILH
 70
     0
  9
$DIMSCALE
 40
1.0
  9
$DIMASZ
 40
0.18
  9
$DIMEXO
 40
0.0625
  9
$DIMDLI
 40
0.38
  9
$DIMRND
 40
0.0
  9
$DIMDLE
 40
0.0
  9
$DIMEXE
 40
0.18
  9
$DIMTP
 40
0.0
  9
$DIMTM
 40
0.0
  9
$DIMTXT
 40
0.18
  9
$DIMCEN
 40
0.09
  9
$DIMTSZ
 40
0.0
  9
$DIMTOL
 70
     0
  9
$DIMLIM
 70
     0
  9
$DIMTIH
 70
     1
  9
$DIMTOH
 70
     1
  9
$DIMSE1
 70
     0
  9
$DIMSE2
 70
     0
  9
$DIMTAD
 70
     0
  9
$DIMZIN
 70
     0
  9
$DIMBLK
  1

  9
$DIMASO
 70
     1
  9
$DIMSHO
 70
     1
  9
$DIMPOST
  1

  9
$DIMAPOST
  1

  9
$DIMALT
 70
     0
  9
$DIMALTD
 70
     2
  9
$DIMALTF
 40
25.4
  9
$DIMLFAC
 40
1.0
  9
$DIMTOFL
 70
     0
  9
$DIMTVP
 40
0.0
  9
$DIMTIX
 70
     0
  9
$DIMSOXD
 70
     0
  9
$DIMSAH
 70
     0
  9
$DIMBLK1
  1

  9
$DIMBLK2
  1

  9
$DIMSTYLE
  2
Standard
  9
$DIMCLRD
 70
     0
  9
$DIMCLRE
 70
     0
  9
$DIMCLRT
 70
     0
  9
$DIMTFAC
 40
1.0
  9
$DIMGAP
 40
0.09
  9
$DIMJUST
 70
     0
  9
$DIMSD1
 70
     0
  9
$DIMSD2
 70
     0
  9
$DIMTOLJ
 70
     1
  9
$DIMTZIN
 70
     0
  9
$DIMALTZ
 70
     0
  9
$DIMALTTZ
 70
     0
  9
$DIMUPT
 70
     0
  9
$DIMDEC
 70
     4
  9
$DIMTDEC
 70
     4
  9
$DIMALTU
 70
     2
  9
$DIMALTTD
 70
     2
  9
$DIMTXSTY
  7
STANDARD
  9
$DIMAUNIT
 70
     0
  9
$DIMADEC
 70
     0
  9
$DIMALTRND
 40
0.0
  9
$DIMAZIN
 70
     0
  9
$DIMDSEP
 70
    46
  9
$DIMATFIT
 70
     3
  9
$DIMFRAC
 70
     0
  9
$DIMLDRBLK
  1

  9
$DIMLUNIT
 70
     2
  9
$DIMLWD
 70
    -2
  9
$DIMLWE
 70
    -2
  9
$DIMTMOVE
 70
     2
  9
$DIMFXL
 40
1.0
  9
$DIMFXLON
 70
     0
  9
$DIMJOGANG
 40
0.7853981633974483
  9
$DIMTFILL
 70
     0
  9
$DIMTFILLCLR
 70
     0
  9
$DIMARCSYM
 70
     0
  9
$DIMLTYPE
  6

  9
$DIMLTEX1
  6

  9
$DIMLTEX2
  6

  9
$DIMTXTDIRECTION
 70
     0
  9
$LUNITS
 70
     2
  9
$LUPREC
 70
     4
  9
$SKETCHINC
 40
0.1
  9
$FILLETRAD
 40
0.0
  9
$AUNITS
 70
     0
  9
$AUPREC
 70
     0
  9
$MENU
  1
.
  9
$ELEVATION
 40
0.0
  9
$PELEVATION
 40
0.0
  9
$THICKNESS
 40
0.0
  9
$LIMCHECK
 70
     0
  9
$CHAMFERA
 40
0.0
  9
$CHAMFERB
 40
0.0
  9
$CHAMFERC
 40
0.0
  9
$CHAMFERD
 40
0.0
  9
$SKPOLY
 70
     0
  9
$TDCREATE
 40
0.0
  9
$TDUCREATE
 40
0.0
  9
$TDUPDATE
 40
2460494.859735764
  9
$TDUUPDATE
 40
2460494.818069097
  9
$TDINDWG
 40
0.0
  9
$TDUSRTIMER
 40
0.0
  9
$USRTIMER
 70
     1
  9
$ANGBASE
 50
0.0
  9
$ANGDIR
 70
     0
  9
$PDMODE
 70
     0
  9
$PDSIZE
 40
0.0
  9
$PLINEWID
 40
0.0
  9
$SPLFRAME
 70
     0
  9
$SPLINETYPE
 70
     6
  9
$SPLINESEGS
 70
     8
  9
$HANDSEED
  5
10068
  9
$SURFTAB1
 70
     6
  9
$SURFTAB2
 70
     6
  9
$SURFTYPE
 70
     6
  9
$SURFU
 70
     6
  9
$SURFV
 70
     6
  9
$UCSBASE
  2

  9
$UCSNAME
  2

  9
$UCSORG
 10
0.0
 20
0.0
 30
0.0
  9
$UCSXDIR
 10
1.0
 20
0.0
 30
0.0
  9
$UCSYDIR
 10
0.0
 20
1.0
 30
0.0
  9
$UCSORTHOREF
  2

  9
$UCSORTHOVIEW
 70
     0
  9
$UCSORGTOP
 10
0.0
 20
0.0
 30
0.0
  9
$UCSORGBOTTOM
 10
0.0
 20
0.0
 30
0.0
  9
$UCSORGLEFT
 10
0.0
 20
0.0
 30
0.0
  9
$UCSORGRIGHT
 10
0.0
 20
0.0
 30
0.0
  9
$UCSORGFRONT
 10
0.0
 20
0.0
 30
0.0
  9
$UCSORGBACK
 10
0.0
 20
0.0
 30
0.0
  9
$PUCSBASE
  2

  9
$PUCSNAME
  2

  9
$PUCSORG
 10
0.0
 20
0.0
 30
0.0
  9
$PUCSXDIR
 10
1.0
 20
0.0
 30
0.0
  9
$PUCSYDIR
 10
0.0
 20
1.0
 30
0.0
  9
$PUCSORTHOREF
  2

  9
$PUCSORTHOVIEW
 70
     0
  9
$PUCSORGTOP
 10
0.0
 20
0.0
 30
0.0
  9
$PUCSORGBOTTOM
 10
0.0
 20
0.0
 30
0.0
  9
$PUCSORGLEFT
 10
0.0
 20
0.0
 30
0.0
  9
$PUCSORGRIGHT
 10
0.0
 20
0.0
 30
0.0
  9
$PUCSORGFRONT
 10
0.0
 20
0.0
 30
0.0
  9
$PUCSORGBACK
 10
0.0
 20
0.0
 30
0.0
  9
$USERI1
 70
     0
  9
$USERI2
 70
     0
  9
$USERI3
 70
     0
  9
$USERI4
 70
     0
  9
$USERI5
 70
     0
  9
$USERR1
 40
0.0
  9
$USERR2
 40
0.0
  9
$USERR3
 40
0.0
  9
$USERR4
 40
0.0
  9
$USERR5
 40
0.0
  9
$WORLDVIEW
 70
     1
  9
$SHADEDGE
 70
     3
  9
$SHADEDIF
 70
    70
  9
$TILEMODE
 70
     1
  9
$MAXACTVP
 70
    64
  9
$PINSBASE
 10
0.0
 20
0.0
 30
0.0
  9
$PLIMCHECK
 70
     0
  9
$PEXTMIN
 10
1.000000000000000E+20
 20
1.000000000000000E+20
 30
1.000000000000000E+20
  9
$PEXTMAX
 10
-1.000000000000000E+20
 20
-1.000000000000000E+20
 30
-1.000000000000000E+20
  9
$PLIMMIN
 10
0.0
 20
0.0
  9
$PLIMMAX
 10
12.0
 20
9.0
  9
$UNITMODE
 70
     0
  9
$VISRETAIN
 70
     1
  9
$PLINEGEN
 70
     0
  9
$PSLTSCALE
 70
     1
  9
$TREEDEPTH
 70
  3020
  9
$CMLSTYLE
  2
Standard
  9
$CMLJUST
 70
     0
  9
$CMLSCALE
 40
1.0
  9
$PROXYGRAPHICS
 70
     1
  9
$MEASUREMENT
 70
     0
  9
$CELWEIGHT
370
    -1
  9
$ENDCAPS
280
     0
  9
$JOINSTYLE
280
     0
  9
$LWDISPLAY
290
     0
  9
$INSUNITS
 70
     4
  9
$HYPERLINKBASE
  1

  9
$STYLESHEET
  1

  9
$XEDIT
290
     1
  9
$CEPSNTYPE
380
     0
  9
$PSTYLEMODE
290
     1
  9
$FINGERPRINTGUID
  2
{8d0ef125-1fdf-4743-aa40-8da842617995}
  9
$VERSIONGUID
  2
{37BCB956-745C-4603-A318-BF7673A43C70}
  9
$EXTNAMES
290
     1
  9
$PSVPSCALE
 40
0.0
  9
$OLESTARTUP
290
     0
  9
$SORTENTS
280
   127
  9
$INDEXCTL
280
     0
  9
$HIDETEXT
280
     1
  9
$XCLIPFRAME
280
     2
  9
$HALOGAP
280
     0
  9
$OBSCOLOR
 70
   257
  9
$OBSLTYPE
280
     0
  9
$INTERSECTIONDISPLAY
280
     0
  9
$INTERSECTIONCOLOR
 70
   257
  9
$DIMASSOC
280
     2
  9
$PROJECTNAME
  1

  9
$CAMERADISPLAY
290
     0
  9
$LENSLENGTH
 40
50.0
  9
$CAMERAHEIGHT
 40
0.0
  9
$STEPSPERSEC
 40
2.0
  9
$STEPSIZE
 40
6.0
  9
$3DDWFPREC
 40
2.0
  9
$PSOLWIDTH
 40
0.25
  9
$PSOLHEIGHT
 40
4.0
  9
$LOFTANG1
 40
1.570796326794897
  9
$LOFTANG2
 40
1.570796326794897
  9
$LOFTMAG1
 40
0.0
  9
$LOFTMAG2
 40
0.0
  9
$LOFTPARAM
 70
     7
  9
$LOFTNORMALS
280
     1
  9
$LATITUDE
 40
37.795
  9
$LONGITUDE
 40
-122.394
  9
$NORTHDIRECTION
 40
0.0
  9
$TIMEZONE
 70
 -8000
  9
$LIGHTGLYPHDISPLAY
280
     1
  9
$TILEMODELIGHTSYNCH
280
     1
  9
$CMATERIAL
347
1001C
  9
$SOLIDHIST
280
     0
  9
$SHOWHIST
280
     1
  9
$DWFFRAME
280
     2
  9
$DGNFRAME
280
     2
  9
$REALWORLDSCALE
290
     1
  9
$INTERFERECOLOR
 62
   256
  9
$CSHADOW
280
     0
  9
$SHADOWPLANELOCATION
 40
0.0
  0
ENDSEC
  0
SECTION
  2
CLASSES
  0
CLASS
  1
ACDBDICTIONARYWDFLT
  2
AcDbDictionaryWithDefault
  3
ObjectDBX Classes
 90
        0
 91
        3
280
     0
281
     0
  0
CLASS
  1
SCALE
  2
AcDbScale
  3
ObjectDBX Classes
 90
     1153
 91
        3
280
     0
281
     0
  0
CLASS
  1
MATERIAL
  2
AcDbMaterial
  3
ObjectDBX Classes
 90
     1153
 91
        3
280
     0
281
     0
  0
CLASS
  1
VISUALSTYLE
  2
AcDbVisualStyle
  3
ObjectDBX Classes
 90
     4095
 91
        3
280
     0
281
     0
  0
CLASS
  1
TABLESTYLE
  2
AcDbTableStyle
  3
ObjectDBX Classes
 90
     4095
 91
        3
280
     0
281
     0
  0
CLASS
  1
MLEADERSTYLE
  2
AcDbMLeaderStyle
  3
ACDB_MLEADERSTYLE_CLASS
 90
     4095
 91
        3
280
     0
281
     0
  0
CLASS
  1
DICTIONARYVAR
  2
AcDbDictionaryVar
  3
ObjectDBX Classes
 90
        0
 91
        3
280
     0
281
     0
  0
CLASS
  1
CELLSTYLEMAP
  2
AcDbCellStyleMap
  3
ObjectDBX Classes
 90
     1152
 91
        3
280
     0
281
     0
  0
CLASS
  1
SUN
  2
AcDbSun
  3
SCENEOE
 90
     1153
 91
        3
280
     0
281
     0
  0
CLASS
  1
MENTALRAYRENDERSETTINGS
  2
AcDbMentalRayRenderSettings
  3
SCENEOE
 90
     1024
 91
        3
280
     0
281
     0
  0
CLASS
  1
ACDBDETAILVIEWSTYLE
  2
AcDbDetailViewStyle
  3
ObjectDBX Classes
 90
     1025
 91
        3
280
     0
281
     0
  0
CLASS
  1
ACDBSECTIONVIEWSTYLE
  2
AcDbSectionViewStyle
  3
ObjectDBX Classes
 90
     1025
 91
        3
280
     0
281
     0
  0
CLASS
  1
RASTERVARIABLES
  2
AcDbRasterVariables
  3
ISM
 90
        0
 91
        3
280
     0
281
     0
  0
CLASS
  1
ACDBPLACEHOLDER
  2
AcDbPlaceHolder
  3
ObjectDBX Classes
 90
        0
 91
        1
280
     0
281
     0
  0
CLASS
  1
LAYOUT
  2
AcDbLayout
  3
ObjectDBX Classes
 90
        0
 91
        1
280
     0
281
     0
  0
ENDSEC
  0
SECTION
  2
TABLES
  0
TABLE
  2
VPORT
  5
8
330
0
100
AcDbSymbolTable
 70
     1
  0
VPORT
  5
10001
330
8
100
AcDbSymbolTableRecord
100
AcDbViewportTableRecord
  2
*Active
 70
     0
 10
0.0
 20
0.0
 11
1.0
 21
1.0
 12
10.42990654205607
 22
4.5
 13
0.0
 23
0.0
 14
0.5
 24
0.5
 15
0.5
 25
0.5
 16
0.0
 26
0.0
 36
1.0
 17
0.0
 27
0.0
 37
0.0
 40
9.0
 41
1.972972972850329
 42
50.0
 43
0.0
 44
0.0
 50
0.0
 51
0.0
 71
     0
 72
   100
 73
     1
 74
     3
 75
     0
 76
     0
 77
     0
 78
     0
281
     0
 65
     1
110
0.0
120
0.0
130
0.0
111
1.0
121
0.0
131
0.0
112
0.0
122
1.0
132
0.0
 79
     0
146
0.0
348
10024
 60
     3
 61
     5
292
     1
282
     1
141
0.0
142
0.0
 63
   250
  0
ENDTAB
  0
TABLE
  2
LTYPE
  5
5
330
0
100
AcDbSymbolTable
 70
     1
  0
LTYPE
  5
14
330
5
100
AcDbSymbolTableRecord
100
AcDbLinetypeTableRecord
  2
BYBLOCK
 70
     0
  3

 72
    65
 73
     0
 40
0.0
  0
LTYPE
  5
15
330
5
100
AcDbSymbolTableRecord
100
AcDbLinetypeTableRecord
  2
BYLAYER
 70
     0
  3

 72
    65
 73
     0
 40
0.0
  0
LTYPE
  5
FFFF
330
5
100
AcDbSymbolTableRecord
100
AcDbLinetypeTableRecord
  2
Continuous
 70
     0
  3
Solid line
 72
    65
 73
     0
 40
0.0
  0
ENDTAB
  0
TABLE
  2
LAYER
  5
2
330
0
100
AcDbSymbolTable
 70
     2
  0
LAYER
  5
50
330
2
100
AcDbSymbolTableRecord
100
AcDbLayerTableRecord
  2
0
 70
     0
 62
     7
  6
Continuous
370
    -3
390
10005
347
1001E
348
0
  0
LAYER
  5
10047
330
2
100
AcDbSymbolTableRecord
100
AcDbLayerTableRecord
  2
Defpoints
 70
     0
 62
     7
  6
Continuous
290
     0
370
    -3
390
10005
347
1001E
348
0
  0
ENDTAB
  0
TABLE
  2
STYLE
  5
3
330
0
100
AcDbSymbolTable
 70
     1
  0
STYLE
  5
11
330
3
100
AcDbSymbolTableRecord
100
AcDbTextStyleTableRecord
  2
STANDARD
 70
     0
 40
0.2
 41
1.0
 50
0.0
 71
     0
 42
0.2
  3

  4

  0
ENDTAB
  0
TABLE
  2
VIEW
  5
6
330
0
100
AcDbSymbolTable
 70
     0
  0
ENDTAB
  0
TABLE
  2
UCS
  5
7
330
0
100
AcDbSymbolTable
 70
     0
  0
ENDTAB
  0
TABLE
  2
APPID
  5
9
330
0
100
AcDbSymbolTable
 70
     3
  0
APPID
  5
12
330
9
100
AcDbSymbolTableRecord
100
AcDbRegAppTableRecord
  2
ACAD
 70
     0
  0
APPID
  5
10061
330
9
100
AcDbSymbolTableRecord
100
AcDbRegAppTableRecord
  2
HATCHBACKGROUNDCOLOR
 70
     0
  0
APPID
  5
10062
330
9
100
AcDbSymbolTableRecord
100
AcDbRegAppTableRecord
  2
EZDXF
 70
     0
  0
ENDTAB
  0
TABLE
  2
DIMSTYLE
  5
A
330
0
100
AcDbSymbolTable
 70
     1
100
AcDbDimStyleTable
  0
DIMSTYLE
105
10000
330
A
100
AcDbSymbolTableRecord
100
AcDbDimStyleTableRecord
  2
Standard
 70
     0
 41
2.5
 42
0.625
 43
3.75
 44
1.25
 49
2.5
 73
     0
 74
     0
 77
     1
 78
     8
 79
     3
140
2.5
141
2.5
143
0.03937007874
147
0.625
171
     3
172
     1
178
     0
179
     2
271
     2
272
     2
274
     3
278
    44
283
     0
284
     8
340
11
  0
ENDTAB
  0
TABLE
  2
BLOCK_RECORD
  5
1
330
0
100
AcDbSymbolTable
 70
     0
  0
BLOCK_RECORD
  5
1F
330
1
100
AcDbSymbolTableRecord
100
AcDbBlockTableRecord
  2
*MODEL_SPACE
340
10019
 70
     0
280
     1
281
     0
  0
BLOCK_RECORD
  5
1B
330
1
100
AcDbSymbolTableRecord
100
AcDbBlockTableRecord
  2
*PAPER_SPACE
340
1001A
 70
     0
280
     1
281
     0
  0
ENDTAB
  0
ENDSEC
  0
SECTION
  2
BLOCKS
  0
BLOCK
  5
20
330
1F
100
AcDbEntity
  8
0
100
AcDbBlockBegin
  2
*MODEL_SPACE
 70
     0
 10
0.0
 20
0.0
 30
0.0
  3
*MODEL_SPACE
  1

  0
ENDBLK
  5
21
330
1F
100
AcDbEntity
  8
0
100
AcDbBlockEnd
  0
BLOCK
  5
1C
330
1B
100
AcDbEntity
 67
     1
  8
0
100
AcDbBlockBegin
  2
*PAPER_SPACE
 70
     0
 10
0.0
 20
0.0
 30
0.0
  3
*PAPER_SPACE
  1

  0
ENDBLK
  5
1D
330
1B
100
AcDbEntity
 67
     1
  8
0
100
AcDbBlockEnd
  0
ENDSEC
  0
SECTION
  2
ENTITIES
  0
CIRCLE
  5
100
330
1F
100
AcDbEntity
  8
0
100
AcDbCircle
 10
47.625
 20
-23.81249999999996
 30
0.0
 40
1.25
  0
CIRCLE
  5
101
330
1F
100
AcDbEntity
  8
0
100
AcDbCircle
 10
-2.381249999999993
 20
-42.86249999999997
 30
0.0
 40
1.25
  0
CIRCLE
  5
102
330
1F
100
AcDbEntity
  8
0
100
AcDbCircle
 10
209.55
 20
-42.86249999999997
 30
0.0
 40
1.25
  0
CIRCLE
  5
103
330
1F
100
AcDbEntity
  8
0
100
AcDbCircle
 10
309.5625
 20
-80.96249999999996
 30
0.0
 40
1.25
  0
CIRCLE
  5
104
330
1F
100
AcDbEntity
  8
0
100
AcDbCircle
 10
219.075
 20
0.0
 30
0.0
 40
1.25
  0
CIRCLE
  5
105
330
1F
100
AcDbEntity
  8
0
100
AcDbCircle
 10
76.2
 20
-42.86249999999997
 30
0.0
 40
1.25
  0
LINE
  5
106
330
1F
100
AcDbEntity
  8
0
100
AcDbLine
 10
318.813814
 20
6.038460000000008
 30
0.0
 11
318.813814
 21
-106.06154
 31
0.0
  0
ARC
  5
107
330
1F
100
AcDbEntity
  8
0
100
AcDbCircle
 10
-25.29901999999999
 20
-106.061574
 30
0.0
 40
2.999966000066667
100
AcDbArc
 50
179.9993506502749
 51
269.9996180199999
  0
CIRCLE
  5
108
330
1F
100
AcDbEntity
  8
0
100
AcDbCircle
 10
-9.524999999999988
 20
-23.81249999999996
 30
0.0
 40
1.25
  0
CIRCLE
  5
109
330
1F
100
AcDbEntity
  8
0
100
AcDbCircle
 10
23.81250000000001
 20
-61.91249999999998
 30
0.0
 40
1.25
  0
CIRCLE
  5
110
330
1F
100
AcDbEntity
  8
0
100
AcDbCircle
 10
28.57500000000001
 20
0.0
 30
0.0
 40
1.25
  0
CIRCLE
  5
111
330
1F
100
AcDbEntity
  8
0
100
AcDbCircle
 10
258.289209
 20
-100.01154
 30
0.0
 40
1.25
  0
CIRCLE
  5
112
330
1F
100
AcDbEntity
  8
0
100
AcDbCircle
 10
-26.19375
 20
-61.91249999999998
 30
0.0
 40
1.25
  0
CIRCLE
  5
113
330
1F
100
AcDbEntity
  8
0
100
AcDbCircle
 10
119.0625
 20
-61.91249999999998
 30
0.0
 40
1.25
  0
ARC
  5
114
330
1F
100
AcDbEntity
  8
0
100
AcDbCircle
 10
-25.29902999999999
 20
6.05094600000001
 30
0.0
 40
3.000010000032672
100
AcDbArc
 50
90.00019098999992
 51
179.9997326202298
  0
LINE
  5
115
330
1F
100
AcDbEntity
  8
0
100
AcDbLine
 10
-25.29904000024634
 20
9.050956000016015
 30
0.0
 11
315.8138140000001
 21
9.038460000000015
 31
0.0
  0
CIRCLE
  5
116
330
1F
100
AcDbEntity
  8
0
100
AcDbCircle
 10
0.0
 20
0.0
 30
0.0
 40
1.25
  0
CIRCLE
  5
117
330
1F
100
AcDbEntity
  8
0
100
AcDbCircle
 10
259.55625
 20
0.0
 30
0.0
 40
1.25
  0
ARC
  5
118
330
1F
100
AcDbEntity
  8
0
100
AcDbCircle
 10
315.8137800000001
 20
6.038426000000001
 30
0.0
 40
3.000034000192678
100
AcDbArc
 50
0.0006493446735626
 51
89.99935065519092
  0
CIRCLE
  5
119
330
1F
100
AcDbEntity
  8
0
100
AcDbCircle
 10
280.9875
 20
-23.81249999999996
 30
0.0
 40
1.25
  0
ARC
  5
120
330
1F
100
AcDbEntity
  8
0
100
AcDbCircle
 10
315.8138800000001
 20
-106.061574
 30
0.0
 40
2.999934000192683
100
AcDbArc
 50
-90.0012605200012
 51
0.000649366001884
  0
CIRCLE
  5
121
330
1F
100
AcDbEntity
  8
0
100
AcDbCircle
 10
152.4
 20
-42.86249999999997
 30
0.0
 40
1.25
  0
CIRCLE
  5
122
330
1F
100
AcDbEntity
  8
0
100
AcDbCircle
 10
300.0375
 20
0.0
 30
0.0
 40
1.25
  0
CIRCLE
  5
123
330
1F
100
AcDbEntity
  8
0
100
AcDbCircle
 10
300.0375
 20
-100.0125
 30
0.0
 40
1.25
  0
CIRCLE
  5
124
330
1F
100
AcDbEntity
  8
0
100
AcDbCircle
 10
90.48750000000001
 20
0.0
 30
0.0
 40
1.25
  0
CIRCLE
  5
125
330
1F
100
AcDbEntity
  8
0
100
AcDbCircle
 10
200.025
 20
-23.81249999999996
 30
0.0
 40
1.25
  0
CIRCLE
  5
126
330
1F
100
AcDbEntity
  8
0
100
AcDbCircle
 10
166.6875
 20
-80.96249999999996
 30
0.0
 40
1.25
  0
CIRCLE
  5
127
330
1F
100
AcDbEntity
  8
0
100
AcDbCircle
 10
14.28750000000002
 20
-80.96249999999996
 30
0.0
 40
1.25
  0
CIRCLE
  5
128
330
1F
100
AcDbEntity
  8
0
100
AcDbCircle
 10
152.4
 20
0.0
 30
0.0
 40
1.25
  0
CIRCLE
  5
129
330
1F
100
AcDbEntity
  8
0
100
AcDbCircle
 10
284.760706
 20
-58.10153599999998
 30
0.0
 40
1.25
  0
LINE
  5
130
330
1F
100
AcDbEntity
  8
0
100
AcDbLine
 10
-28.29904
 20
-106.06154
 30
0.0
 11
-28.29903999999999
 21
6.050960000030745
 31
0.0
  0
CIRCLE
  5
131
330
1F
100
AcDbEntity
  8
0
100
AcDbCircle
 10
71.4375
 20
-80.96249999999996
 30
0.0
 40
1.25
  0
CIRCLE
  5
132
330
1F
100
AcDbEntity
  8
0
100
AcDbCircle
 10
300.0375
 20
-42.86249999999997
 30
0.0
 40
1.25
  0
LINE
  5
133
330
1F
100
AcDbEntity
  8
0
100
AcDbLine
 10
-25.29904000019935
 20
-109.06154
 30
0.0
 11
315.8138140000001
 21
-109.06154
 31
0.0
  0
CIRCLE
  5
134
330
1F
100
AcDbEntity
  8
0
100
AcDbCircle
 10
123.825
 20
-23.81249999999996
 30
0.0
 40
1.25
  0
LWPOLYLINE
  5
135
330
1F
100
AcDbEntity
  8
0
100
AcDbPolyline
 90
        8
 70
     1
 43
0.0
 10
-23.96875
 20
-55.41249999999999
 10
-23.96875
 20
-68.41250000000001
 42
0.4142123908030449
 10
-23.46874999999999
 20
-68.91249999999998
 10
-5.104909861639046
 20
-68.91153999863356
 42
0.4141982509586091
 10
-4.604935999999995
 20
-68.41154000000002
 10
-4.604935999999995
 20
-55.41154
 42
0.4142288739533564
 10
-5.10496213836094
 20
-54.91154000136643
 10
-23.46874999999999
 20
-54.91249999999999
 42
0.4142123908030554
  0
LWPOLYLINE
  5
136
330
1F
100
AcDbEntity
  8
0
100
AcDbPolyline
 90
        8
 70
     1
 43
0.0
 10
59.376314
 20
-36.36153999999999
 10
59.376314
 20
-49.36153999999998
 42
0.4142135623730951
 10
59.87631400000001
 20
-49.86153999999999
 10
73.476314
 20
-49.86153999999999
 42
0.4142123908030449
 10
73.97631399999999
 20
-49.36153999999998
 10
73.97631399999999
 20
-36.36153999999999
 42
0.4142123908030449
 10
73.476314
 20
-35.86153999999999
 10
59.87631400000001
 20
-35.86153999999999
 42
0.4142135623730951
  0
LWPOLYLINE
  5
137
330
1F
100
AcDbEntity
  8
0
100
AcDbPolyline
 90
        8
 70
     1
 43
0.0
 10
87.95131400000002
 20
-17.31153999999998
 10
87.95131400000002
 20
-30.31153999999999
 42
0.4142123908030658
 10
88.45131400000002
 20
-30.81154
 10
102.051314
 20
-30.81154
 42
0.4142135623730951
 10
102.551314
 20
-30.31153999999999
 10
102.551314
 20
-17.31153999999998
 42
0.4142135623730951
 10
102.051314
 20
-16.81153999999999
 10
88.45131400000002
 20
-16.81153999999999
 42
0.4142123908030554
  0
LWPOLYLINE
  5
138
330
1F
100
AcDbEntity
  8
0
100
AcDbPolyline
 90
        8
 70
     1
 43
0.0
 10
78.426314
 20
-36.36153999999999
 10
78.426314
 20
-49.36153999999998
 42
0.4142135623730951
 10
78.92631400000002
 20
-49.86153999999999
 10
92.52631400000001
 20
-49.86153999999999
 42
0.4142123908030449
 10
93.02631400000003
 20
-49.36153999999998
 10
93.02631400000003
 20
-36.36153999999999
 42
0.4142123908030449
 10
92.52631400000001
 20
-35.86153999999999
 10
78.92631400000002
 20
-35.86153999999999
 42
0.4142135623730951
  0
LWPOLYLINE
  5
139
330
1F
100
AcDbEntity
  8
0
100
AcDbPolyline
 90
        8
 70
     1
 43
0.0
 10
240.351184
 20
6.500960000000031
 10
240.351184
 20
-6.499039999999994
 42
0.4142135623730951
 10
240.851184
 20
-6.999039999999983
 10
254.451184
 20
-6.999039999999983
 42
0.4142123908030449
 10
254.951184
 20
-6.499039999999994
 10
254.951184
 20
6.500960000000031
 42
0.4142123908030449
 10
254.451184
 20
7.000960000000021
 10
240.851184
 20
7.000960000000021
 42
0.4142135623730951
  0
LWPOLYLINE
  5
140
330
1F
100
AcDbEntity
  8
0
100
AcDbPolyline
 90
        8
 70
     1
 43
0.0
 10
68.90104000000002
 20
6.500960000000031
 10
68.90104000000002
 20
-6.499039999999994
 42
0.4142135623730951
 10
69.40104000000001
 20
-6.999039999999983
 10
83.00104000000002
 20
-6.999039999999983
 42
0.4142123908030449
 10
83.50104000000002
 20
-6.499039999999994
 10
83.50104000000002
 20
6.500960000000031
 42
0.4142123908030449
 10
83.00104000000002
 20
7.000960000000021
 10
69.40104000000001
 20
7.000960000000021
 42
0.4142135623730951
  0
LWPOLYLINE
  5
141
330
1F
100
AcDbEntity
  8
0
100
AcDbPolyline
 90
        8
 70
     1
 43
0.0
 10
145.101314
 20
-17.31153999999998
 10
145.101314
 20
-30.31153999999999
 42
0.4142123908030449
 10
145.601314
 20
-30.81154
 10
159.201314
 20
-30.81154
 42
0.4142135623730951
 10
159.701314
 20
-30.31153999999999
 10
159.701314
 20
-17.31153999999998
 42
0.4142135623730951
 10
159.201314
 20
-16.81153999999999
 10
145.601314
 20
-16.81153999999999
 42
0.4142123908030345
  0
LWPOLYLINE
  5
142
330
1F
100
AcDbEntity
  8
0
100
AcDbPolyline
 90
        8
 70
     1
 43
0.0
 10
-7.298685999999996
 20
-17.31153999999998
 10
-7.298685999999996
 20
-30.31153999999999
 42
0.4142123908030449
 10
-6.798685999999998
 20
-30.81154
 10
6.801314000000005
 20
-30.81154
 42
0.4142135623730951
 10
7.301314000000003
 20
-30.31153999999999
 10
7.301314000000003
 20
-17.31153999999998
 42
0.4142135623730951
 10
6.801314000000005
 20
-16.81153999999999
 10
-6.798685999999998
 20
-16.81153999999999
 42
0.4142123908030345
  0
LWPOLYLINE
  5
143
330
1F
100
AcDbEntity
  8
0
100
AcDbPolyline
 90
        8
 70
     1
 43
0.0
 10
149.863814
 20
-74.46153999999994
 10
149.863814
 20
-87.46153999999999
 42
0.4142123908030554
 10
150.363814
 20
-87.96154
 10
163.963814
 20
-87.96154
 42
0.4142135623730951
 10
164.463814
 20
-87.46153999999999
 10
164.463814
 20
-74.46153999999994
 42
0.4142135623730951
 10
163.963814
 20
-73.96153999999994
 10
150.363814
 20
-73.96153999999994
 42
0.4142123908030345
  0
LWPOLYLINE
  5
144
330
1F
100
AcDbEntity
  8
0
100
AcDbPolyline
 90
        8
 70
     1
 43
0.0
 10
11.75131400000001
 20
-17.31153999999998
 10
11.75131400000001
 20
-30.31153999999999
 42
0.4142123908030554
 10
12.25131400000001
 20
-30.81154
 10
25.85131400000001
 20
-30.81154
 42
0.4142135623730951
 10
26.35131400000002
 20
-30.31153999999999
 10
26.35131400000002
 20
-17.31153999999998
 42
0.4142135623730951
 10
25.85131400000001
 20
-16.81153999999999
 10
12.25131400000001
 20
-16.81153999999999
 42
0.4142123908030449
  0
LWPOLYLINE
  5
145
330
1F
100
AcDbEntity
  8
0
100
AcDbPolyline
 90
        8
 70
     1
 43
0.0
 10
164.151314
 20
-17.31153999999998
 10
164.151314
 20
-30.31153999999999
 42
0.4142123908030449
 10
164.651314
 20
-30.81154
 10
178.251314
 20
-30.81154
 42
0.4142135623730951
 10
178.751314
 20
-30.31153999999999
 10
178.751314
 20
-17.31153999999998
 42
0.4142135623730951
 10
178.251314
 20
-16.81153999999999
 10
164.651314
 20
-16.81153999999999
 42
0.4142123908030345
  0
LWPOLYLINE
  5
146
330
1F
100
AcDbEntity
  8
0
100
AcDbPolyline
 90
        8
 70
     1
 43
0.0
 10
97.47606399999998
 20
6.500960000000031
 10
97.47606399999998
 20
-6.499039999999994
 42
0.4142135623730951
 10
97.976064
 20
-6.999039999999983
 10
111.576064
 20
-6.999039999999983
 42
0.4142123908030658
 10
112.076064
 20
-6.499039999999994
 10
112.076064
 20
6.500960000000031
 42
0.4142123908030658
 10
111.576064
 20
7.000960000000021
 10
97.976064
 20
7.000960000000021
 42
0.4142135623730951
  0
LWPOLYLINE
  5
147
330
1F
100
AcDbEntity
  8
0
100
AcDbPolyline
 90
        8
 70
     1
 43
0.0
 10
154.626314
 20
-36.36153999999999
 10
154.626314
 20
-49.36153999999998
 42
0.4142135623730951
 10
155.126314
 20
-49.86153999999999
 10
168.726314
 20
-49.86153999999999
 42
0.4142123908030658
 10
169.226314
 20
-49.36153999999998
 10
169.226314
 20
-36.36153999999999
 42
0.4142123908030658
 10
168.726314
 20
-35.86153999999999
 10
155.126314
 20
-35.86153999999999
 42
0.4142135623730951
  0
LWPOLYLINE
  5
148
330
1F
100
AcDbEntity
  8
0
100
AcDbPolyline
 90
        8
 70
     1
 43
0.0
 10
49.85102400000002
 20
6.500960000000031
 10
49.85102400000002
 20
-6.499039999999994
 42
0.4142135623730951
 10
50.35102400000002
 20
-6.999039999999983
 10
63.95102400000002
 20
-6.999039999999983
 42
0.4142123908030449
 10
64.451024
 20
-6.499039999999994
 10
64.451024
 20
6.500960000000031
 42
0.4142123908030449
 10
63.95102400000002
 20
7.000960000000021
 10
50.35102400000002
 20
7.000960000000021
 42
0.4142135623730951
  0
LWPOLYLINE
  5
149
330
1F
100
AcDbEntity
  8
0
100
AcDbPolyline
 90
        8
 70
     1
 43
0.0
 10
30.80131400000002
 20
-17.31153999999998
 10
30.80131400000002
 20
-30.31153999999999
 42
0.4142123908030658
 10
31.30131400000003
 20
-30.81154
 10
44.901314
 20
-30.81154
 42
0.4142135623730951
 10
45.40131400000001
 20
-30.31153999999999
 10
45.40131400000001
 20
-17.31153999999998
 42
0.4142135623730951
 10
44.901314
 20
-16.81153999999999
 10
31.30131400000003
 20
-16.81153999999999
 42
0.4142123908030554
  0
LWPOLYLINE
  5
150
330
1F
100
AcDbEntity
  8
0
100
AcDbPolyline
 90
        8
 70
     1
 43
0.0
 10
92.71381400000003
 20
-74.46153999999994
 10
92.71381400000003
 20
-87.46153999999999
 42
0.4142123908030345
 10
93.213814
 20
-87.96154
 10
106.813814
 20
-87.96154
 42
0.4142135623730951
 10
107.313814
 20
-87.46153999999999
 10
107.313814
 20
-74.46153999999994
 42
0.4142135623730951
 10
106.813814
 20
-73.96153999999994
 10
93.213814
 20
-73.96153999999994
 42
0.4142123908030138
  0
LWPOLYLINE
  5
151
330
1F
100
AcDbEntity
  8
0
100
AcDbPolyline
 90
        8
 70
     1
 43
0.0
 10
187.963814
 20
-74.46153999999994
 10
187.963814
 20
-87.46153999999999
 42
0.4142123908030345
 10
188.463814
 20
-87.96154
 10
202.063814
 20
-87.96154
 42
0.4142135623730951
 10
202.5638140000001
 20
-87.46153999999999
 10
202.5638140000001
 20
-74.46153999999994
 42
0.4142135623730951
 10
202.063814
 20
-73.96153999999994
 10
188.463814
 20
-73.96153999999994
 42
0.4142123908030138
  0
LWPOLYLINE
  5
152
330
1F
100
AcDbEntity
  8
0
100
AcDbPolyline
 90
        8
 70
     1
 43
0.0
 10
130.813814
 20
-74.46153999999994
 10
130.813814
 20
-87.46153999999999
 42
0.4142123908030554
 10
131.313814
 20
-87.96154
 10
144.9138140000001
 20
-87.96154
 42
0.4142135623730951
 10
145.413814
 20
-87.46153999999999
 10
145.413814
 20
-74.46153999999994
 42
0.4142135623730951
 10
144.9138140000001
 20
-73.96153999999994
 10
131.313814
 20
-73.96153999999994
 42
0.4142123908030345
  0
LWPOLYLINE
  5
153
330
1F
100
AcDbEntity
  8
0
100
AcDbPolyline
 90
        8
 70
     1
 43
0.0
 10
102.238814
 20
-55.41154
 10
102.238814
 20
-68.41154000000002
 42
0.4142135623730951
 10
102.738814
 20
-68.91153999999999
 10
116.338814
 20
-68.91153999999999
 42
0.4142123908030554
 10
116.838814
 20
-68.41154000000002
 10
116.838814
 20
-55.41154
 42
0.4142123908030658
 10
116.338814
 20
-54.91154
 10
102.738814
 20
-54.91154
 42
0.4142135623730951
  0
LWPOLYLINE
  5
154
330
1F
100
AcDbEntity
  8
0
100
AcDbPolyline
 90
        8
 70
     1
 43
0.0
 10
35.56381400000002
 20
-74.46153999999994
 10
35.56381400000002
 20
-87.46153999999999
 42
0.4142123908030449
 10
36.06381400000001
 20
-87.96154
 10
49.663814
 20
-87.96154
 42
0.4142135623730951
 10
50.16381400000001
 20
-87.46153999999999
 10
50.16381400000001
 20
-74.46153999999994
 42
0.4142135623730951
 10
49.663814
 20
-73.96153999999994
 10
36.06381400000001
 20
-73.96153999999994
 42
0.4142123908030241
  0
LWPOLYLINE
  5
155
330
1F
100
AcDbEntity
  8
0
100
AcDbPolyline
 90
        8
 70
     1
 43
0.0
 10
178.438814
 20
-55.41154
 10
178.438814
 20
-68.41154000000002
 42
0.4142135623730951
 10
178.938814
 20
-68.91153999999999
 10
192.538814
 20
-68.91153999999999
 42
0.4142123908030345
 10
193.038814
 20
-68.41154000000002
 10
193.038814
 20
-55.41154
 42
0.4142123908030449
 10
192.538814
 20
-54.91154
 10
178.938814
 20
-54.91154
 42
0.4142135623730951
  0
LWPOLYLINE
  5
156
330
1F
100
AcDbEntity
  8
0
100
AcDbPolyline
 90
        8
 70
     1
 43
0.0
 10
159.388814
 20
-55.41154
 10
159.388814
 20
-68.41154000000002
 42
0.4142135623730951
 10
159.888814
 20
-68.91153999999999
 10
173.488814
 20
-68.91153999999999
 42
0.4142123908030345
 10
173.988814
 20
-68.41154000000002
 10
173.988814
 20
-55.41154
 42
0.4142123908030449
 10
173.488814
 20
-54.91154
 10
159.888814
 20
-54.91154
 42
0.4142135623730951
  0
LWPOLYLINE
  5
157
330
1F
100
AcDbEntity
  8
0
100
AcDbPolyline
 90
        8
 70
     1
 43
0.0
 10
173.676314
 20
-36.36153999999999
 10
173.676314
 20
-49.36153999999998
 42
0.4142135623730951
 10
174.176314
 20
-49.86153999999999
 10
187.776314
 20
-49.86153999999999
 42
0.4142123908030658
 10
188.276314
 20
-49.36153999999998
 10
188.276314
 20
-36.36153999999999
 42
0.4142123908030658
 10
187.776314
 20
-35.86153999999999
 10
174.176314
 20
-35.86153999999999
 42
0.4142135623730951
  0
LWPOLYLINE
  5
158
330
1F
100
AcDbEntity
  8
0
100
AcDbPolyline
 90
        8
 70
     1
 43
0.0
 10
283.213822
 20
6.500960000000031
 10
283.213822
 20
-6.499039999999994
 42
0.4142135623730951
 10
283.7138220000001
 20
-6.999039999999983
 10
297.313822
 20
-6.999039999999983
 42
0.4142123908030449
 10
297.813822
 20
-6.499039999999994
 10
297.813822
 20
6.500960000000031
 42
0.4142123908030449
 10
297.313822
 20
7.000960000000021
 10
283.7138220000001
 20
7.000960000000021
 42
0.4142135623730951
  0
LWPOLYLINE
  5
159
330
1F
100
AcDbEntity
  8
0
100
AcDbPolyline
 90
        8
 70
     1
 43
0.0
 10
302.263822
 20
-93.51155599999997
 10
302.263822
 20
-106.511556
 42
0.414212390803097
 10
302.7638220000001
 20
-107.011556
 10
316.363822
 20
-107.011556
 42
0.4142135623730951
 10
316.8638220000001
 20
-106.511556
 10
316.8638220000001
 20
-93.51155599999997
 42
0.4142135623730951
 10
316.363822
 20
-93.011556
 10
302.7638220000001
 20
-93.011556
 42
0.4142123908030554
  0
LWPOLYLINE
  5
160
330
1F
100
AcDbEntity
  8
0
100
AcDbPolyline
 90
        8
 70
     1
 43
0.0
 10
283.213822
 20
-36.36155599999996
 10
283.213822
 20
-49.36155599999998
 42
0.4142123908030449
 10
283.7138220000001
 20
-49.86155599999998
 10
297.313822
 20
-49.86155599999998
 42
0.4142135623730951
 10
297.813822
 20
-49.36155599999998
 10
297.813822
 20
-36.36155599999996
 42
0.4142135623730951
 10
297.313822
 20
-35.86155599999998
 10
283.7138220000001
 20
-35.86155599999998
 42
0.4142123908030241
  0
LWPOLYLINE
  5
161
330
1F
100
AcDbEntity
  8
0
100
AcDbPolyline
 90
        8
 70
     1
 43
0.0
 10
68.901314
 20
-17.31153999999998
 10
68.901314
 20
-30.31153999999999
 42
0.4142123908030554
 10
69.40131400000001
 20
-30.81154
 10
83.00131400000001
 20
-30.81154
 42
0.4142135623730951
 10
83.50131399999998
 20
-30.31153999999999
 10
83.50131399999998
 20
-17.31153999999998
 42
0.4142135623730951
 10
83.00131400000001
 20
-16.81153999999999
 10
69.40131400000001
 20
-16.81153999999999
 42
0.4142123908030449
  0
LWPOLYLINE
  5
162
330
1F
100
AcDbEntity
  8
0
100
AcDbPolyline
 90
        8
 70
     1
 43
0.0
 10
49.85131400000001
 20
-17.31153999999998
 10
49.85131400000001
 20
-30.31153999999999
 42
0.4142123908030449
 10
50.351314
 20
-30.81154
 10
63.95131400000001
 20
-30.81154
 42
0.4142135623730951
 10
64.45131400000002
 20
-30.31153999999999
 10
64.45131400000002
 20
-17.31153999999998
 42
0.4142135623730951
 10
63.95131400000001
 20
-16.81153999999999
 10
50.351314
 20
-16.81153999999999
 42
0.4142123908030345
  0
LWPOLYLINE
  5
163
330
1F
100
AcDbEntity
  8
0
100
AcDbPolyline
 90
        8
 70
     1
 43
0.0
 10
302.263838
 20
6.500960000000031
 10
302.263838
 20
-6.499039999999994
 42
0.4142123908030449
 10
302.763838
 20
-6.999039999999983
 10
316.3638380000001
 20
-6.999039999999983
 42
0.4142135623730951
 10
316.863838
 20
-6.499039999999994
 10
316.863838
 20
6.500960000000031
 42
0.4142135623730951
 10
316.3638380000001
 20
7.000960000000021
 10
302.763838
 20
7.000960000000021
 42
0.4142123908030449
  0
LWPOLYLINE
  5
164
330
1F
100
AcDbEntity
  8
0
100
AcDbPolyline
 90
        8
 70
     1
 43
0.0
 10
135.576096
 20
6.500960000000031
 10
135.576096
 20
-6.499039999999994
 42
0.4142135623730951
 10
136.076096
 20
-6.999039999999983
 10
149.676096
 20
-6.999039999999983
 42
0.4142123908030658
 10
150.176096
 20
-6.499039999999994
 10
150.176096
 20
6.500960000000031
 42
0.4142123908030658
 10
149.676096
 20
7.000960000000021
 10
136.076096
 20
7.000960000000021
 42
0.4142135623730951
  0
LWPOLYLINE
  5
165
330
1F
100
AcDbEntity
  8
0
100
AcDbPolyline
 90
        8
 70
     1
 43
0.0
 10
6.988814000000003
 20
-55.41154
 10
6.988814000000003
 20
-68.41154000000002
 42
0.4142135623730951
 10
7.48881400000001
 20
-68.91153999999999
 10
21.08881400000001
 20
-68.91153999999999
 42
0.4142123908030449
 10
21.58881399999999
 20
-68.41154000000002
 10
21.58881399999999
 20
-55.41154
 42
0.4142123908030554
 10
21.08881400000001
 20
-54.91154
 10
7.48881400000001
 20
-54.91154
 42
0.4142135623730951
  0
LWPOLYLINE
  5
166
330
1F
100
AcDbEntity
  8
0
100
AcDbPolyline
 90
        8
 70
     1
 43
0.0
 10
11.75099199999999
 20
6.500960000000031
 10
11.75099199999999
 20
-6.499039999999994
 42
0.4142135623730951
 10
12.250992
 20
-6.999039999999983
 10
25.85099200000003
 20
-6.999039999999983
 42
0.4142123908030449
 10
26.35099200000002
 20
-6.499039999999994
 10
26.35099200000002
 20
6.500960000000031
 42
0.4142123908030449
 10
25.85099200000003
 20
7.000960000000021
 10
12.250992
 20
7.000960000000021
 42
0.4142135623730951
  0
LWPOLYLINE
  5
167
330
1F
100
AcDbEntity
  8
0
100
AcDbPolyline
 90
        8
 70
     1
 43
0.0
 10
302.263838
 20
-17.31153999999998
 10
302.263838
 20
-30.31153999999999
 42
0.4142123908030449
 10
302.763838
 20
-30.81154
 10
316.3638380000001
 20
-30.81154
 42
0.4142135623730951
 10
316.863838
 20
-30.31153999999999
 10
316.863838
 20
-17.31153999999998
 42
0.4142135623730951
 10
316.3638380000001
 20
-16.81153999999999
 10
302.763838
 20
-16.81153999999999
 42
0.4142123908030345
  0
LWPOLYLINE
  5
168
330
1F
100
AcDbEntity
  8
0
100
AcDbPolyline
 90
        8
 70
     1
 43
0.0
 10
283.213806
 20
-74.46153999999994
 10
283.213806
 20
-87.46153999999999
 42
0.4142135623730951
 10
283.713806
 20
-87.96154
 10
297.313806
 20
-87.96154
 42
0.4142123908030762
 10
297.813806
 20
-87.46153999999999
 10
297.813806
 20
-74.46153999999994
 42
0.4142123908030554
 10
297.313806
 20
-73.96153999999994
 10
283.713806
 20
-73.96153999999994
 42
0.4142135623730951
  0
LWPOLYLINE
  5
169
330
1F
100
AcDbEntity
  8
0
100
AcDbPolyline
 90
        8
 70
     1
 43
0.0
 10
221.301168
 20
6.500960000000031
 10
221.301168
 20
-6.499039999999994
 42
0.4142135623730951
 10
221.801168
 20
-6.999039999999983
 10
235.401168
 20
-6.999039999999983
 42
0.4142123908030658
 10
235.901168
 20
-6.499039999999994
 10
235.901168
 20
6.500960000000031
 42
0.4142123908030658
 10
235.401168
 20
7.000960000000021
 10
221.801168
 20
7.000960000000021
 42
0.4142135623730951
  0
LWPOLYLINE
  5
170
330
1F
100
AcDbEntity
  8
0
100
AcDbPolyline
 90
        8
 70
     1
 43
0.0
 10
302.263838
 20
-36.36155599999996
 10
302.263838
 20
-49.36155599999998
 42
0.4142123908030449
 10
302.763838
 20
-49.86155599999998
 10
316.3638380000001
 20
-49.86155599999998
 42
0.4142135623730951
 10
316.863838
 20
-49.36155599999998
 10
316.863838
 20
-36.36155599999996
 42
0.4142135623730951
 10
316.3638380000001
 20
-35.86155599999998
 10
302.763838
 20
-35.86155599999998
 42
0.4142123908030241
  0
LWPOLYLINE
  5
171
330
1F
100
AcDbEntity
  8
0
100
AcDbPolyline
 90
        8
 70
     1
 43
0.0
 10
197.488814
 20
-55.41154
 10
197.488814
 20
-68.41154000000002
 42
0.4142135623730951
 10
197.988814
 20
-68.91153999999999
 10
211.588814
 20
-68.91153999999999
 42
0.4142123908030345
 10
212.088814
 20
-68.41154000000002
 10
212.088814
 20
-55.41154
 42
0.4142123908030449
 10
211.588814
 20
-54.91154
 10
197.988814
 20
-54.91154
 42
0.4142135623730951
  0
LWPOLYLINE
  5
172
330
1F
100
AcDbEntity
  8
0
100
AcDbPolyline
 90
        8
 70
     1
 43
0.0
 10
45.08881400000001
 20
-55.41154
 10
45.08881400000001
 20
-68.41154000000002
 42
0.4142135623730951
 10
45.588814
 20
-68.91153999999999
 10
59.18881399999999
 20
-68.91153999999999
 42
0.4142123908030449
 10
59.688814
 20
-68.41154000000002
 10
59.688814
 20
-55.41154
 42
0.4142123908030554
 10
59.18881399999999
 20
-54.91154
 10
45.588814
 20
-54.91154
 42
0.4142135623730951
  0
LWPOLYLINE
  5
173
330
1F
100
AcDbEntity
  8
0
100
AcDbPolyline
 90
        8
 70
     1
 43
0.0
 10
30.80100800000001
 20
6.500960000000031
 10
30.80100800000001
 20
-6.499039999999994
 42
0.4142135623730951
 10
31.30100800000002
 20
-6.999039999999983
 10
44.90100800000003
 20
-6.999039999999983
 42
0.4142123908030449
 10
45.40100800000004
 20
-6.499039999999994
 10
45.40100800000004
 20
6.500960000000031
 42
0.4142123908030449
 10
44.90100800000003
 20
7.000960000000021
 10
31.30100800000002
 20
7.000960000000021
 42
0.4142135623730951
  0
LWPOLYLINE
  5
174
330
1F
100
AcDbEntity
  8
0
100
AcDbPolyline
 90
        8
 70
     1
 43
0.0
 10
116.52608
 20
6.500960000000031
 10
116.52608
 20
-6.499039999999994
 42
0.4142135623730951
 10
117.02608
 20
-6.999039999999983
 10
130.6260800000001
 20
-6.999039999999983
 42
0.4142123908030449
 10
131.1260800000001
 20
-6.499039999999994
 10
131.1260800000001
 20
6.500960000000031
 42
0.4142123908030449
 10
130.6260800000001
 20
7.000960000000021
 10
117.02608
 20
7.000960000000021
 42
0.4142135623730951
  0
LWPOLYLINE
  5
175
330
1F
100
AcDbEntity
  8
0
100
AcDbPolyline
 90
        8
 70
     1
 43
0.0
 10
54.61381400000003
 20
-74.46153999999994
 10
54.61381400000003
 20
-87.46153999999999
 42
0.4142123908030554
 10
55.11381400000004
 20
-87.96154
 10
68.713814
 20
-87.96154
 42
0.4142135623730951
 10
69.213814
 20
-87.46153999999999
 10
69.213814
 20
-74.46153999999994
 42
0.4142135623730951
 10
68.713814
 20
-73.96153999999994
 10
55.11381400000004
 20
-73.96153999999994
 42
0.4142123908030345
  0
LWPOLYLINE
  5
176
330
1F
100
AcDbEntity
  8
0
100
AcDbPolyline
 90
        8
 70
     1
 43
0.0
 10
168.913814
 20
-74.46153999999994
 10
168.913814
 20
-87.46153999999999
 42
0.4142123908030554
 10
169.4138140000001
 20
-87.96154
 10
183.013814
 20
-87.96154
 42
0.4142135623730951
 10
183.5138140000001
 20
-87.46153999999999
 10
183.5138140000001
 20
-74.46153999999994
 42
0.4142135623730951
 10
183.013814
 20
-73.96153999999994
 10
169.4138140000001
 20
-73.96153999999994
 42
0.4142123908030345
  0
LWPOLYLINE
  5
177
330
1F
100
AcDbEntity
  8
0
100
AcDbPolyline
 90
        8
 70
     1
 43
0.0
 10
283.213806
 20
-93.51155599999997
 10
283.213806
 20
-106.511556
 42
0.4142135623730951
 10
283.713806
 20
-107.011556
 10
297.313806
 20
-107.011556
 42
0.414212390803097
 10
297.813806
 20
-106.511556
 10
297.813806
 20
-93.51155599999997
 42
0.4142123908030554
 10
297.313806
 20
-93.011556
 10
283.713806
 20
-93.011556
 42
0.4142135623730951
  0
LWPOLYLINE
  5
178
330
1F
100
AcDbEntity
  8
0
100
AcDbPolyline
 90
        8
 70
     1
 43
0.0
 10
21.27631399999999
 20
-36.36153999999999
 10
21.27631399999999
 20
-49.36153999999998
 42
0.4142135623730951
 10
21.776314
 20
-49.86153999999999
 10
35.37631400000001
 20
-49.86153999999999
 42
0.4142123908030554
 10
35.87631400000002
 20
-49.36153999999998
 10
35.87631400000002
 20
-36.36153999999999
 42
0.4142123908030554
 10
35.37631400000001
 20
-35.86153999999999
 10
21.776314
 20
-35.86153999999999
 42
0.4142135623730951
  0
LWPOLYLINE
  5
179
330
1F
100
AcDbEntity
  8
0
100
AcDbPolyline
 90
        8
 70
     1
 43
0.0
 10
135.576314
 20
-36.36153999999999
 10
135.576314
 20
-49.36153999999998
 42
0.4142135623730951
 10
136.076314
 20
-49.86153999999999
 10
149.676314
 20
-49.86153999999999
 42
0.4142123908030658
 10
150.176314
 20
-49.36153999999998
 10
150.176314
 20
-36.36153999999999
 42
0.4142123908030658
 10
149.676314
 20
-35.86153999999999
 10
136.076314
 20
-35.86153999999999
 42
0.4142135623730951
  0
LWPOLYLINE
  5
180
330
1F
100
AcDbEntity
  8
0
100
AcDbPolyline
 90
        8
 70
     1
 43
0.0
 10
-26.35
 20
6.500000000000004
 10
-26.35
 20
-6.500000000000004
 42
0.4142135623730951
 10
-25.84999999999999
 20
-6.999999999999993
 10
-12.24999999999999
 20
-6.999999999999993
 42
0.4142123908030345
 10
-11.74999999999999
 20
-6.500000000000004
 10
-11.74999999999999
 20
6.500000000000004
 42
0.4142123908030449
 10
-12.24999999999999
 20
7.000000000000011
 10
-25.84999999999999
 20
7.000000000000011
 42
0.4142135623730951
  0
LWPOLYLINE
  5
181
330
1F
100
AcDbEntity
  8
0
100
AcDbPolyline
 90
        8
 70
     1
 43
0.0
 10
264.163806
 20
-17.31153999999998
 10
264.163806
 20
-30.31153999999999
 42
0.4142123908030449
 10
264.663806
 20
-30.81154
 10
278.263806
 20
-30.81154
 42
0.4142135623730951
 10
278.7638060000001
 20
-30.31153999999999
 10
278.7638060000001
 20
-17.31153999999998
 42
0.4142135623730951
 10
278.263806
 20
-16.81153999999999
 10
264.663806
 20
-16.81153999999999
 42
0.4142123908030345
  0
LWPOLYLINE
  5
182
330
1F
100
AcDbEntity
  8
0
100
AcDbPolyline
 90
        8
 70
     1
 43
0.0
 10
264.16379
 20
-93.51155599999997
 10
264.16379
 20
-106.511556
 42
0.4142135623730951
 10
264.66379
 20
-107.011556
 10
278.2637900000001
 20
-107.011556
 42
0.4142123908030554
 10
278.76379
 20
-106.511556
 10
278.76379
 20
-93.51155599999997
 42
0.4142123908030138
 10
278.2637900000001
 20
-93.011556
 10
264.66379
 20
-93.011556
 42
0.4142135623730951
  0
LWPOLYLINE
  5
183
330
1F
100
AcDbEntity
  8
0
100
AcDbPolyline
 90
        8
 70
     1
 43
0.0
 10
202.2513140000001
 20
-17.31153999999998
 10
202.2513140000001
 20
-30.31153999999999
 42
0.4142123908030449
 10
202.751314
 20
-30.81154
 10
216.351314
 20
-30.81154
 42
0.4142135623730951
 10
216.851314
 20
-30.31153999999999
 10
216.851314
 20
-17.31153999999998
 42
0.4142135623730951
 10
216.351314
 20
-16.81153999999999
 10
202.751314
 20
-16.81153999999999
 42
0.4142123908030345
  0
LWPOLYLINE
  5
184
330
1F
100
AcDbEntity
  8
0
100
AcDbPolyline
 90
        8
 70
     1
 43
0.0
 10
183.2013140000001
 20
-17.31153999999998
 10
183.2013140000001
 20
-30.31153999999999
 42
0.4142123908030449
 10
183.701314
 20
-30.81154
 10
197.301314
 20
-30.81154
 42
0.4142135623730951
 10
197.801314
 20
-30.31153999999999
 10
197.801314
 20
-17.31153999999998
 42
0.4142135623730951
 10
197.301314
 20
-16.81153999999999
 10
183.701314
 20
-16.81153999999999
 42
0.4142123908030345
  0
LWPOLYLINE
  5
185
330
1F
100
AcDbEntity
  8
0
100
AcDbPolyline
 90
        8
 70
     1
 43
0.0
 10
183.201136
 20
6.500960000000031
 10
183.201136
 20
-6.499039999999994
 42
0.4142135623730951
 10
183.701136
 20
-6.999039999999983
 10
197.3011360000001
 20
-6.999039999999983
 42
0.4142123908030449
 10
197.801136
 20
-6.499039999999994
 10
197.801136
 20
6.500960000000031
 42
0.4142123908030449
 10
197.3011360000001
 20
7.000960000000021
 10
183.701136
 20
7.000960000000021
 42
0.4142135623730951
  0
LWPOLYLINE
  5
186
330
1F
100
AcDbEntity
  8
0
100
AcDbPolyline
 90
        8
 70
     1
 43
0.0
 10
154.626112
 20
6.500960000000031
 10
154.626112
 20
-6.499039999999994
 42
0.4142135623730951
 10
155.126112
 20
-6.999039999999983
 10
168.7261120000001
 20
-6.999039999999983
 42
0.4142123908030449
 10
169.226112
 20
-6.499039999999994
 10
169.226112
 20
6.500960000000031
 42
0.4142123908030449
 10
168.7261120000001
 20
7.000960000000021
 10
155.126112
 20
7.000960000000021
 42
0.4142135623730951
  0
LWPOLYLINE
  5
187
330
1F
100
AcDbEntity
  8
0
100
AcDbPolyline
 90
        8
 70
     1
 43
0.0
 10
2.226313999999991
 20
-36.36153999999999
 10
2.226313999999991
 20
-49.36153999999998
 42
0.4142135623730951
 10
2.72631399999999
 20
-49.86153999999999
 10
16.326314
 20
-49.86153999999999
 42
0.4142123908030554
 10
16.82631399999999
 20
-49.36153999999998
 10
16.82631399999999
 20
-36.36153999999999
 42
0.4142123908030554
 10
16.326314
 20
-35.86153999999999
 10
2.72631399999999
 20
-35.86153999999999
 42
0.4142135623730951
  0
LWPOLYLINE
  5
188
330
1F
100
AcDbEntity
  8
0
100
AcDbPolyline
 90
        8
 70
     1
 43
0.0
 10
116.526314
 20
-36.36153999999999
 10
116.526314
 20
-49.36153999999998
 42
0.4142135623730951
 10
117.026314
 20
-49.86153999999999
 10
130.626314
 20
-49.86153999999999
 42
0.4142123908030658
 10
131.126314
 20
-49.36153999999998
 10
131.126314
 20
-36.36153999999999
 42
0.4142123908030658
 10
130.626314
 20
-35.86153999999999
 10
117.026314
 20
-35.86153999999999
 42
0.4142135623730951
  0
LWPOLYLINE
  5
189
330
1F
100
AcDbEntity
  8
0
100
AcDbPolyline
 90
        8
 70
     1
 43
0.0
 10
-26.34869399999999
 20
-17.31153999999998
 10
-26.34869399999999
 20
-30.31153999999999
 42
0.4142123908030501
 10
-25.84869399999999
 20
-30.81154
 10
-12.24869399999999
 20
-30.81154
 42
0.4142135623730951
 10
-11.748694
 20
-30.31153999999999
 10
-11.748694
 20
-17.31153999999998
 42
0.4142135623730951
 10
-12.24869399999999
 20
-16.81153999999999
 10
-25.84869399999999
 20
-16.81153999999999
 42
0.4142123908030397
  0
LWPOLYLINE
  5
190
330
1F
100
AcDbEntity
  8
0
100
AcDbPolyline
 90
        8
 70
     1
 43
0.0
 10
211.776314
 20
-36.36153999999999
 10
211.776314
 20
-49.36153999999998
 42
0.4142135623730951
 10
212.276314
 20
-49.86153999999999
 10
225.876314
 20
-49.86153999999999
 42
0.4142123908030658
 10
226.376314
 20
-49.36153999999998
 10
226.376314
 20
-36.36153999999999
 42
0.4142123908030658
 10
225.876314
 20
-35.86153999999999
 10
212.276314
 20
-35.86153999999999
 42
0.4142135623730951
  0
LWPOLYLINE
  5
191
330
1F
100
AcDbEntity
  8
0
100
AcDbPolyline
 90
        8
 70
     1
 43
0.0
 10
121.288814
 20
-55.41154
 10
121.288814
 20
-68.41154000000002
 42
0.4142135623730951
 10
121.7888140000001
 20
-68.91153999999999
 10
135.3888140000001
 20
-68.91153999999999
 42
0.4142123908030345
 10
135.888814
 20
-68.41154000000002
 10
135.888814
 20
-55.41154
 42
0.4142123908030449
 10
135.3888140000001
 20
-54.91154
 10
121.7888140000001
 20
-54.91154
 42
0.4142135623730951
  0
LWPOLYLINE
  5
192
330
1F
100
AcDbEntity
  8
0
100
AcDbPolyline
 90
        8
 70
     1
 43
0.0
 10
140.338814
 20
-55.41154
 10
140.338814
 20
-68.41154000000002
 42
0.4142135623730951
 10
140.838814
 20
-68.91153999999999
 10
154.438814
 20
-68.91153999999999
 42
0.4142123908030345
 10
154.938814
 20
-68.41154000000002
 10
154.938814
 20
-55.41154
 42
0.4142123908030449
 10
154.438814
 20
-54.91154
 10
140.838814
 20
-54.91154
 42
0.4142135623730951
  0
LWPOLYLINE
  5
193
330
1F
100
AcDbEntity
  8
0
100
AcDbPolyline
 90
        8
 70
     1
 43
0.0
 10
16.51380599999999
 20
-74.46153999999994
 10
16.51380599999999
 20
-87.46153999999999
 42
0.4142123908030449
 10
17.013806
 20
-87.96154
 10
30.61380600000003
 20
-87.96154
 42
0.4142135623730951
 10
31.11380600000001
 20
-87.46153999999999
 10
31.11380600000001
 20
-74.46153999999994
 42
0.4142135623730951
 10
30.61380600000003
 20
-73.96153999999994
 10
17.013806
 20
-73.96153999999994
 42
0.4142123908030241
  0
LWPOLYLINE
  5
194
330
1F
100
AcDbEntity
  8
0
100
AcDbPolyline
 90
        8
 70
     1
 43
0.0
 10
202.251152
 20
6.500960000000031
 10
202.251152
 20
-6.499039999999994
 42
0.4142135623730951
 10
202.751152
 20
-6.999039999999983
 10
216.351152
 20
-6.999039999999983
 42
0.4142123908030658
 10
216.851152
 20
-6.499039999999994
 10
216.851152
 20
6.500960000000031
 42
0.4142123908030658
 10
216.351152
 20
7.000960000000021
 10
202.751152
 20
7.000960000000021
 42
0.4142135623730951
  0
LWPOLYLINE
  5
195
330
1F
100
AcDbEntity
  8
0
100
AcDbPolyline
 90
        8
 70
     1
 43
0.0
 10
97.476314
 20
-36.36153999999999
 10
97.476314
 20
-49.36153999999998
 42
0.4142135623730951
 10
97.976314
 20
-49.86153999999999
 10
111.576314
 20
-49.86153999999999
 42
0.4142123908030449
 10
112.076314
 20
-49.36153999999998
 10
112.076314
 20
-36.36153999999999
 42
0.4142123908030449
 10
111.576314
 20
-35.86153999999999
 10
97.976314
 20
-35.86153999999999
 42
0.4142135623730951
  0
LWPOLYLINE
  5
196
330
1F
100
AcDbEntity
  8
0
100
AcDbPolyline
 90
        8
 70
     1
 43
0.0
 10
126.051314
 20
-17.31153999999998
 10
126.051314
 20
-30.31153999999999
 42
0.4142123908030449
 10
126.551314
 20
-30.81154
 10
140.151314
 20
-30.81154
 42
0.4142135623730951
 10
140.651314
 20
-30.31153999999999
 10
140.651314
 20
-17.31153999999998
 42
0.4142135623730951
 10
140.151314
 20
-16.81153999999999
 10
126.551314
 20
-16.81153999999999
 42
0.4142123908030345
  0
LWPOLYLINE
  5
197
330
1F
100
AcDbEntity
  8
0
100
AcDbPolyline
 90
        8
 70
     1
 43
0.0
 10
192.726314
 20
-36.36153999999999
 10
192.726314
 20
-49.36153999999998
 42
0.4142135623730951
 10
193.226314
 20
-49.86153999999999
 10
206.826314
 20
-49.86153999999999
 42
0.4142123908030658
 10
207.326314
 20
-49.36153999999998
 10
207.326314
 20
-36.36153999999999
 42
0.4142123908030658
 10
206.826314
 20
-35.86153999999999
 10
193.226314
 20
-35.86153999999999
 42
0.4142135623730951
  0
LWPOLYLINE
  5
198
330
1F
100
AcDbEntity
  8
0
100
AcDbPolyline
 90
        8
 70
     1
 43
0.0
 10
64.13881400000002
 20
-55.41154
 10
64.13881400000002
 20
-68.41154000000002
 42
0.4142135623730951
 10
64.63881400000001
 20
-68.91153999999999
 10
78.238814
 20
-68.91153999999999
 42
0.4142123908030449
 10
78.738814
 20
-68.41154000000002
 10
78.738814
 20
-55.41154
 42
0.4142123908030554
 10
78.238814
 20
-54.91154
 10
64.63881400000001
 20
-54.91154
 42
0.4142135623730951
  0
LWPOLYLINE
  5
199
330
1F
100
AcDbEntity
  8
0
100
AcDbPolyline
 90
        8
 70
     1
 43
0.0
 10
111.763814
 20
-74.46153999999994
 10
111.763814
 20
-87.46153999999999
 42
0.4142123908030345
 10
112.263814
 20
-87.96154
 10
125.863814
 20
-87.96154
 42
0.4142135623730951
 10
126.363814
 20
-87.46153999999999
 10
126.363814
 20
-74.46153999999994
 42
0.4142135623730951
 10
125.863814
 20
-73.96153999999994
 10
112.263814
 20
-73.96153999999994
 42
0.4142123908030138
  0
LWPOLYLINE
  5
200
330
1F
100
AcDbEntity
  8
0
100
AcDbPolyline
 90
        8
 70
     1
 43
0.0
 10
264.163806
 20
-36.36155599999996
 10
264.163806
 20
-49.36155599999998
 42
0.4142123908030449
 10
264.663806
 20
-49.86155599999998
 10
278.263806
 20
-49.86155599999998
 42
0.4142135623730951
 10
278.7638060000001
 20
-49.36155599999998
 10
278.7638060000001
 20
-36.36155599999996
 42
0.4142135623730951
 10
278.263806
 20
-35.86155599999998
 10
264.663806
 20
-35.86155599999998
 42
0.4142123908030241
  0
LWPOLYLINE
  5
201
330
1F
100
AcDbEntity
  8
0
100
AcDbPolyline
 90
        8
 70
     1
 43
0.0
 10
283.213822
 20
-17.31153999999998
 10
283.213822
 20
-30.31153999999999
 42
0.4142123908030449
 10
283.7138220000001
 20
-30.81154
 10
297.313822
 20
-30.81154
 42
0.4142135623730951
 10
297.813822
 20
-30.31153999999999
 10
297.813822
 20
-17.31153999999998
 42
0.4142135623730951
 10
297.313822
 20
-16.81153999999999
 10
283.7138220000001
 20
-16.81153999999999
 42
0.4142123908030345
  0
LWPOLYLINE
  5
202
330
1F
100
AcDbEntity
  8
0
100
AcDbPolyline
 90
        8
 70
     1
 43
0.0
 10
264.163806
 20
6.500960000000031
 10
264.163806
 20
-6.499039999999994
 42
0.4142135623730951
 10
264.663806
 20
-6.999039999999983
 10
278.263806
 20
-6.999039999999983
 42
0.4142123908030449
 10
278.7638060000001
 20
-6.499039999999994
 10
278.7638060000001
 20
6.500960000000031
 42
0.4142123908030449
 10
278.263806
 20
7.000960000000021
 10
264.663806
 20
7.000960000000021
 42
0.4142135623730951
  0
LWPOLYLINE
  5
203
330
1F
100
AcDbEntity
  8
0
100
AcDbPolyline
 90
        8
 70
     1
 43
0.0
 10
26.03881400000002
 20
-55.41154
 10
26.03881400000002
 20
-68.41154000000002
 42
0.4142135623730951
 10
26.538814
 20
-68.91153999999999
 10
40.13881400000002
 20
-68.91153999999999
 42
0.4142123908030345
 10
40.63881400000002
 20
-68.41154000000002
 10
40.63881400000002
 20
-55.41154
 42
0.4142123908030449
 10
40.13881400000002
 20
-54.91154
 10
26.538814
 20
-54.91154
 42
0.4142135623730951
  0
LWPOLYLINE
  5
204
330
1F
100
AcDbEntity
  8
0
100
AcDbPolyline
 90
        8
 70
     1
 43
0.0
 10
107.001314
 20
-17.31153999999998
 10
107.001314
 20
-30.31153999999999
 42
0.4142123908030449
 10
107.501314
 20
-30.81154
 10
121.101314
 20
-30.81154
 42
0.4142135623730951
 10
121.601314
 20
-30.31153999999999
 10
121.601314
 20
-17.31153999999998
 42
0.4142135623730951
 10
121.101314
 20
-16.81153999999999
 10
107.501314
 20
-16.81153999999999
 42
0.4142123908030345
  0
LWPOLYLINE
  5
205
330
1F
100
AcDbEntity
  8
0
100
AcDbPolyline
 90
        8
 70
     1
 43
0.0
 10
-21.586186
 20
-36.36153999999999
 10
-21.586186
 20
-49.36153999999998
 42
0.4142123908030501
 10
-21.086186
 20
-49.86153999999999
 10
-7.486185999999995
 20
-49.86153999999999
 42
0.4142135623730951
 10
-6.986185999999996
 20
-49.36153999999998
 10
-6.986185999999996
 20
-36.36153999999999
 42
0.4142135623730951
 10
-7.486185999999995
 20
-35.86153999999999
 10
-21.086186
 20
-35.86153999999999
 42
0.4142123908030501
  0
LWPOLYLINE
  5
206
330
1F
100
AcDbEntity
  8
0
100
AcDbPolyline
 90
        8
 70
     1
 43
0.0
 10
83.18881399999998
 20
-55.41154
 10
83.18881399999998
 20
-68.41154000000002
 42
0.4142135623730951
 10
83.688814
 20
-68.91153999999999
 10
97.28881399999999
 20
-68.91153999999999
 42
0.4142123908030554
 10
97.788814
 20
-68.41154000000002
 10
97.788814
 20
-55.41154
 42
0.4142123908030658
 10
97.28881399999999
 20
-54.91154
 10
83.688814
 20
-54.91154
 42
0.4142135623730951
  0
LWPOLYLINE
  5
207
330
1F
100
AcDbEntity
  8
0
100
AcDbPolyline
 90
        8
 70
     1
 43
0.0
 10
73.66381399999999
 20
-74.46153999999994
 10
73.66381399999999
 20
-87.46153999999999
 42
0.4142123908030449
 10
74.163814
 20
-87.96154
 10
87.76381400000002
 20
-87.96154
 42
0.4142135623730951
 10
88.26381400000002
 20
-87.46153999999999
 10
88.26381400000002
 20
-74.46153999999994
 42
0.4142135623730951
 10
87.76381400000002
 20
-73.96153999999994
 10
74.163814
 20
-73.96153999999994
 42
0.4142123908030241
  0
LWPOLYLINE
  5
208
330
1F
100
AcDbEntity
  8
0
100
AcDbPolyline
 90
        8
 70
     1
 43
0.0
 10
40.32631400000002
 20
-36.36153999999999
 10
40.32631400000002
 20
-49.36153999999998
 42
0.4142135623730951
 10
40.82631400000001
 20
-49.86153999999999
 10
54.42631400000004
 20
-49.86153999999999
 42
0.4142123908030345
 10
54.92631400000003
 20
-49.36153999999998
 10
54.92631400000003
 20
-36.36153999999999
 42
0.4142123908030345
 10
54.42631400000004
 20
-35.86153999999999
 10
40.82631400000001
 20
-35.86153999999999
 42
0.4142135623730951
  0
CIRCLE
  5
10048
330
1F
100
AcDbEntity
  8
0
100
AcDbCircle
 10
257.1750000000001
 20
-23.81249999999996
 30
0.0
 40
1.25
  0
LWPOLYLINE
  5
10049
330
1F
100
AcDbEntity
  8
0
100
AcDbPolyline
 90
        8
 70
     1
 43
0.0
 10
221.3013140000001
 20
-17.31153999999998
 10
221.3013140000001
 20
-30.31153999999999
 42
0.4142135623730951
 10
221.801314
 20
-30.81154
 10
235.401314
 20
-30.81154
 42
0.4142123908030449
 10
235.901314
 20
-30.31153999999999
 10
235.901314
 20
-17.31153999999998
 42
0.4142123908030345
 10
235.401314
 20
-16.81153999999999
 10
221.801314
 20
-16.81153999999999
 42
0.4142135623730951
  0
LWPOLYLINE
  5
1004A
330
1F
100
AcDbEntity
  8
0
100
AcDbPolyline
 90
        8
 70
     1
 43
0.0
 10
240.351314
 20
-17.31153999999998
 10
240.351314
 20
-30.31153999999999
 42
0.4142135623730951
 10
240.851314
 20
-30.81154
 10
254.4513140000001
 20
-30.81154
 42
0.4142123908030449
 10
254.951314
 20
-30.31153999999999
 10
254.951314
 20
-17.31153999999998
 42
0.4142123908030345
 10
254.4513140000001
 20
-16.81153999999999
 10
240.851314
 20
-16.81153999999999
 42
0.4142135623730951
  0
CIRCLE
  5
1004B
330
1F
100
AcDbEntity
  8
0
100
AcDbCircle
 10
-23.542436
 20
-88.16153999999999
 30
0.0
 40
1.25
  0
LWPOLYLINE
  5
1004C
330
1F
100
AcDbEntity
  8
0
100
AcDbPolyline
 90
        8
 70
     1
 43
0.0
 10
-23.14243599999999
 20
-74.48653999999999
 10
-23.14243599999999
 20
-86.20454000000001
 10
-20.142436
 20
-87.93654000000002
 10
5.857564000000002
 20
-87.93654000000002
 10
8.857564
 20
-86.20454000000001
 10
8.857564
 20
-74.48653999999999
 42
0.4142135623730951
 10
8.357564000000002
 20
-73.98653999999999
 10
-22.642436
 20
-73.98653999999999
 42
0.4142123908030605
  0
LWPOLYLINE
  5
1004D
330
1F
100
AcDbEntity
  8
0
100
AcDbPolyline
 90
        8
 70
     1
 43
0.0
 10
233.2066040000001
 20
-74.46058
 10
233.2066040000001
 20
-87.46058
 42
0.4142123908030345
 10
233.706604
 20
-87.96058000000001
 10
247.306604
 20
-87.96058000000001
 42
0.4142135623730951
 10
247.806604
 20
-87.46058
 10
247.806604
 20
-74.46058
 42
0.4142135623730951
 10
247.306604
 20
-73.96057999999998
 10
233.706604
 20
-73.96057999999998
 42
0.4142123908030345
  0
LWPOLYLINE
  5
1004E
330
1F
100
AcDbEntity
  8
0
100
AcDbPolyline
 90
        8
 70
     1
 43
0.0
 10
207.014198
 20
-74.46153999999994
 10
207.014198
 20
-87.46153999999999
 42
0.4142135623730951
 10
207.5141980000001
 20
-87.96154
 10
221.114198
 20
-87.96154
 42
0.4142123908030554
 10
221.614198
 20
-87.46153999999999
 10
221.614198
 20
-74.46153999999994
 42
0.4142123908030345
 10
221.114198
 20
-73.96153999999994
 10
207.5141980000001
 20
-73.96153999999994
 42
0.4142135623730951
  0
CIRCLE
  5
1004F
330
1F
100
AcDbEntity
  8
0
100
AcDbCircle
 10
252.1450640000001
 20
-69.11153999999998
 30
0.0
 40
1.25
  0
LWPOLYLINE
  5
10050
330
1F
100
AcDbEntity
  8
0
100
AcDbPolyline
 90
        8
 70
     1
 43
0.0
 10
238.795064
 20
-68.38654
 10
250.513064
 20
-68.38654
 10
252.245064
 20
-65.38654
 10
252.245064
 20
-39.38654
 10
250.513064
 20
-36.38653999999999
 10
238.795064
 20
-36.38653999999999
 42
0.4142135623730951
 10
238.295064
 20
-36.88654
 10
238.295064
 20
-67.88654
 42
0.4142123908030554
  0
LWPOLYLINE
  5
10051
330
1F
100
AcDbEntity
  8
0
100
AcDbPolyline
 90
        8
 70
     1
 43
0.0
 10
216.538814
 20
-55.41154
 10
216.538814
 20
-68.41154000000002
 42
0.4142135623730951
 10
217.038814
 20
-68.91153999999999
 10
230.638814
 20
-68.91153999999999
 42
0.4142123908030345
 10
231.138814
 20
-68.41154000000002
 10
231.138814
 20
-55.41154
 42
0.4142123908030449
 10
230.638814
 20
-54.91154
 10
217.038814
 20
-54.91154
 42
0.4142135623730951
  0
CIRCLE
  5
10052
330
1F
100
AcDbEntity
  8
0
100
AcDbCircle
 10
232.171875
 20
-100.0125
 30
0.0
 40
1.25
  0
CIRCLE
  5
10053
330
1F
100
AcDbEntity
  8
0
100
AcDbCircle
 10
184.546875
 20
-100.0125
 30
0.0
 40
1.25
  0
CIRCLE
  5
10054
330
1F
100
AcDbEntity
  8
0
100
AcDbCircle
 10
123.825
 20
-100.0125
 30
0.0
 40
1.25
  0
CIRCLE
  5
10055
330
1F
100
AcDbEntity
  8
0
100
AcDbCircle
 10
80.9625
 20
-100.0125
 30
0.0
 40
1.25
  0
CIRCLE
  5
10056
330
1F
100
AcDbEntity
  8
0
100
AcDbCircle
 10
-3.571874999999993
 20
-100.0125
 30
0.0
 40
1.25
  0
CIRCLE
  5
10057
330
1F
100
AcDbEntity
  8
0
100
AcDbCircle
 10
42.86250000000002
 20
-100.0125
 30
0.0
 40
1.25
  0
LWPOLYLINE
  5
10058
330
1F
100
AcDbEntity
  8
0
100
AcDbPolyline
 90
        8
 70
     1
 43
0.0
 10
177.75
 20
-106.9625
 42
0.4142135623730951
 10
178.25
 20
-106.4625
 10
178.25
 20
-93.56250000000001
 42
0.4142135623730951
 10
177.75
 20
-93.0625
 10
165.15
 20
-93.0625
 42
0.4142135623730951
 10
164.65
 20
-93.56250000000001
 10
164.65
 20
-106.4625
 42
0.4142135623730951
 10
165.15
 20
-106.9625
  0
LWPOLYLINE
  5
10059
330
1F
100
AcDbEntity
  8
0
100
AcDbPolyline
 90
        8
 70
     1
 43
0.0
 10
63.44339999998838
 20
-106.9625
 42
0.4142123908166451
 10
63.94339999999999
 20
-106.4624999999884
 10
63.94339999999999
 20
-93.5625000000116
 42
0.4142123908166451
 10
63.44339999998838
 20
-93.0625
 10
50.84340000001162
 20
-93.0625
 42
0.4142123908166451
 10
50.34340000000001
 20
-93.5625000000116
 10
50.34340000000001
 20
-106.4624999999884
 42
0.4142123908166451
 10
50.84340000001162
 20
-106.9625
  0
LWPOLYLINE
  5
1005A
330
1F
100
AcDbEntity
  8
0
100
AcDbPolyline
 90
        8
 70
     1
 43
0.0
 10
252.570123
 20
-106.51154
 10
252.570123
 20
-93.51154
 42
0.4142135623730951
 10
252.0701230000001
 20
-93.01153999999998
 10
236.089123
 20
-93.01153999999998
 42
0.4142123908030345
 10
235.589123
 20
-93.51154
 10
235.589123
 20
-106.51154
 42
0.4142123908030345
 10
236.089123
 20
-107.01154
 10
252.0701230000001
 20
-107.01154
 42
0.4142135623730951
  0
LWPOLYLINE
  5
1005B
330
1F
100
AcDbEntity
  8
0
100
AcDbPolyline
 90
        8
 70
     1
 43
0.0
 10
211.776563
 20
-93.51154
 10
211.776563
 20
-106.51154
 42
0.4142123908030554
 10
212.276563
 20
-107.01154
 10
228.257563
 20
-107.01154
 42
0.4142135623730951
 10
228.757563
 20
-106.51154
 10
228.757563
 20
-93.51154
 42
0.4142135623730951
 10
228.257563
 20
-93.01153999999998
 10
212.276563
 20
-93.01153999999998
 42
0.4142123908030554
  0
LWPOLYLINE
  5
1005C
330
1F
100
AcDbEntity
  8
0
100
AcDbPolyline
 90
        8
 70
     1
 43
0.0
 10
187.964003
 20
-93.51154
 10
187.964003
 20
-106.51154
 42
0.4142123908030138
 10
188.464003
 20
-107.01154
 10
204.445003
 20
-107.01154
 42
0.4142135623730951
 10
204.945003
 20
-106.51154
 10
204.945003
 20
-93.51154
 42
0.4142135623730951
 10
204.445003
 20
-93.01153999999998
 10
188.464003
 20
-93.01153999999998
 42
0.4142123908030138
  0
LWPOLYLINE
  5
1005D
330
1F
100
AcDbEntity
  8
0
100
AcDbPolyline
 90
        8
 70
     1
 43
0.0
 10
23.65733900000001
 20
-93.51154
 10
23.65733900000001
 20
-106.51154
 42
0.4142123908030345
 10
24.157339
 20
-107.01154
 10
40.13833900000001
 20
-107.01154
 42
0.4142135623730951
 10
40.63833900000002
 20
-106.51154
 10
40.63833900000002
 20
-93.51154
 42
0.4142135623730951
 10
40.13833900000001
 20
-93.01153999999998
 10
24.157339
 20
-93.01153999999998
 42
0.4142123908030345
  0
LWPOLYLINE
  5
1005E
330
1F
100
AcDbEntity
  8
0
100
AcDbPolyline
 90
        8
 70
     1
 43
0.0
 10
-0.1552209999999921
 20
-93.51179199999999
 10
-0.1552209999999921
 20
-106.511792
 42
0.4142123908030449
 10
0.3447790000000062
 20
-107.011792
 10
16.32577899999998
 20
-107.011792
 42
0.4142135623730951
 10
16.82577899999999
 20
-106.511792
 10
16.82577899999999
 20
-93.51179199999999
 42
0.4142135623730951
 10
16.32577899999998
 20
-93.01179199999999
 10
0.3447790000000062
 20
-93.01179199999999
 42
0.4142123908030449
  0
LWPOLYLINE
  5
1005F
330
1F
100
AcDbEntity
  8
0
100
AcDbPolyline
 90
        8
 70
     1
 43
0.0
 10
-23.967781
 20
-93.51154
 10
-23.967781
 20
-106.51154
 42
0.4142123908030397
 10
-23.467781
 20
-107.01154
 10
-7.486780999999993
 20
-107.01154
 42
0.4142135623730951
 10
-6.986780999999995
 20
-106.51154
 10
-6.986780999999995
 20
-93.51154
 42
0.4142135623730951
 10
-7.486780999999993
 20
-93.01153999999998
 10
-23.467781
 20
-93.01153999999998
 42
0.4142123908030397
  0
LWPOLYLINE
  5
10060
330
1F
100
AcDbEntity
  8
0
100
AcDbPolyline
 90
        8
 70
     1
 43
0.0
 10
121.102266
 20
-107.01058
 42
0.4142135623730951
 10
121.602266
 20
-106.51058
 10
121.602266
 20
-93.51058
 42
0.4142135623730951
 10
121.102266
 20
-93.01057999999999
 10
107.5022660000116
 20
-93.01058000000003
 42
0.4142123908166451
 10
107.002266
 20
-93.51058000001161
 10
107.002266
 20
-106.5105799999884
 42
0.4142123908166451
 10
107.5022660000116
 20
-107.01058
  0
ENDSEC
  0
SECTION
  2
OBJECTS
  0
DICTIONARY
  5
C
330
0
100
AcDbDictionary
281
     1
  3
ACAD_COLOR
350
10046
  3
ACAD_DETAILVIEWSTYLE
350
10044
  3
ACAD_GROUP
350
D
  3
ACAD_LAYOUT
350
10018
  3
ACAD_MATERIAL
350
1001B
  3
ACAD_MLEADERSTYLE
350
1003A
  3
ACAD_MLINESTYLE
350
17
  3
ACAD_PLOTSETTINGS
350
10003
  3
ACAD_PLOTSTYLENAME
350
10004
  3
ACAD_SCALELIST
350
10006
  3
ACAD_SECTIONVIEWSTYLE
350
10045
  3
ACAD_TABLESTYLE
350
10038
  3
ACAD_VISUALSTYLE
350
1001F
  3
AcDbVariableDictionary
350
1003C
  3
ACDB_RECOMPOSE_DATA
350
10067
  3
EZDXF_META
350
10063
  0
DICTIONARY
  5
10046
330
C
100
AcDbDictionary
281
     1
  0
DICTIONARY
  5
10044
102
{ACAD_REACTORS
330
C
102
}
330
C
100
AcDbDictionary
281
     1
  0
DICTIONARY
  5
D
330
C
100
AcDbDictionary
281
     1
  0
DICTIONARY
  5
10018
102
{ACAD_REACTORS
330
C
102
}
330
C
100
AcDbDictionary
281
     1
  3
Layout1
350
1001A
  3
Model
350
10019
  0
DICTIONARY
  5
1001B
102
{ACAD_REACTORS
330
C
102
}
330
C
100
AcDbDictionary
281
     1
  3
ByBlock
350
1001D
  3
ByLayer
350
1001C
  3
Global
350
1001E
  0
DICTIONARY
  5
1003A
102
{ACAD_REACTORS
330
C
102
}
330
C
100
AcDbDictionary
281
     1
  3
Standard
350
1003B
  0
DICTIONARY
  5
17
330
C
100
AcDbDictionary
281
     1
  3
Standard
350
10002
  0
DICTIONARY
  5
10003
102
{ACAD_REACTORS
330
C
102
}
330
C
100
AcDbDictionary
281
     1
  0
ACDBDICTIONARYWDFLT
  5
10004
102
{ACAD_REACTORS
330
C
102
}
330
C
100
AcDbDictionary
281
     1
  3
Normal
350
10005
100
AcDbDictionaryWithDefault
340
10005
  0
DICTIONARY
  5
10006
102
{ACAD_REACTORS
330
C
102
}
330
C
100
AcDbDictionary
281
     1
  3
A0
350
10007
  3
A1
350
10008
  3
A2
350
10009
  3
A3
350
1000A
  3
A4
350
1000B
  3
A5
350
1000C
  3
A6
350
1000D
  3
A7
350
1000E
  3
A8
350
1000F
  3
A9
350
10010
  3
B1
350
10011
  3
B2
350
10012
  3
B3
350
10013
  3
B4
350
10014
  3
B5
350
10015
  3
B6
350
10016
  3
B7
350
10017
  0
DICTIONARY
  5
10045
102
{ACAD_REACTORS
330
C
102
}
330
C
100
AcDbDictionary
281
     1
  0
DICTIONARY
  5
10038
102
{ACAD_REACTORS
330
C
102
}
330
C
100
AcDbDictionary
281
     1
  3
Standard
350
10039
  0
DICTIONARY
  5
1001F
102
{ACAD_REACTORS
330
C
102
}
330
C
100
AcDbDictionary
281
     1
  3
2dWireframe
350
10024
  3
Basic
350
10027
  3
Brighten
350
1002B
  3
ColorChange
350
1002F
  3
Conceptual
350
10029
  3
Dim
350
1002A
  3
EdgeColorOff
350
10032
  3
Facepattern
350
1002E
  3
Flat
350
10020
  3
FlatWithEdges
350
10021
  3
Gouraud
350
10022
  3
GouraudWithEdges
350
10023
  3
Hidden
350
10026
  3
JitterOff
350
10030
  3
Linepattern
350
1002D
  3
OverhangOff
350
10031
  3
Realistic
350
10028
  3
Shaded
350
10037
  3
Shaded with edges
350
10036
  3
Shades of Gray
350
10033
  3
Sketchy
350
10034
  3
Thicken
350
1002C
  3
Wireframe
350
10025
  3
X-Ray
350
10035
  0
DICTIONARY
  5
1003C
102
{ACAD_REACTORS
330
C
102
}
330
C
100
AcDbDictionary
281
     1
  3
CANNOSCALE
350
1003D
  3
CMLEADERSTYLE
350
10042
  3
CTABLESTYLE
350
10041
  3
MSLTSCALE
350
10043
  0
XRECORD
  5
10067
102
{ACAD_REACTORS
330
C
102
}
330
C
100
AcDbXrecord
280
     1
 90
        1
330
10039
  0
DICTIONARY
  5
10063
330
C
100
AcDbDictionary
281
     1
  3
WRITTEN_BY_EZDXF
350
10064
  0
LAYOUT
  5
1001A
102
{ACAD_REACTORS
330
10018
102
}
330
10018
100
AcDbPlotSettings
  1

  2
none_device
  4

  6

 40
0.0
 41
0.0
 42
0.0
 43
0.0
 44
0.0
 45
0.0
 46
0.0
 47
0.0
 48
0.0
 49
0.0
140
0.0
141
0.0
142
1.0
143
1.0
 70
   688
 72
     0
 73
     0
 74
     5
  7

 75
    16
 76
     0
 77
     2
 78
   300
147
1.0
148
0.0
149
0.0
100
AcDbLayout
  1
Layout1
 70
     1
 71
     1
 10
0.0
 20
0.0
 11
12.0
 21
9.0
 12
0.0
 22
0.0
 32
0.0
 14
1.000000000000000E+20
 24
1.000000000000000E+20
 34
1.000000000000000E+20
 15
-1.000000000000000E+20
 25
-1.000000000000000E+20
 35
-1.000000000000000E+20
146
0.0
 13
0.0
 23
0.0
 33
0.0
 16
1.0
 26
0.0
 36
0.0
 17
0.0
 27
1.0
 37
0.0
 76
     0
330
1B
  0
LAYOUT
  5
10019
102
{ACAD_REACTORS
330
10018
102
}
330
10018
100
AcDbPlotSettings
  1

  2
none_device
  4
Letter_(8.50_x_11.00_Inches)
  6

 40
6.35
 41
6.35
 42
6.35000508
 43
6.35000508
 44
215.9
 45
279.4
 46
0.0
 47
0.0
 48
0.0
 49
0.0
140
0.0
141
0.0
142
1.0
143
2.219594649946486
 70
  1712
 72
     0
 73
     0
 74
     0
  7

 75
     0
 76
     0
 77
     2
 78
   300
147
0.4505327132700153
148
-39.40881537143161
149
0.0
100
AcDbLayout
  1
Model
 70
     1
 71
     0
 10
0.0
 20
0.0
 11
12.0
 21
9.0
 12
0.0
 22
0.0
 32
0.0
 14
1.000000000000000E+20
 24
1.000000000000000E+20
 34
1.000000000000000E+20
 15
-1.000000000000000E+20
 25
-1.000000000000000E+20
 35
-1.000000000000000E+20
146
0.0
 13
0.0
 23
0.0
 33
0.0
 16
1.0
 26
0.0
 36
0.0
 17
0.0
 27
1.0
 37
0.0
 76
     0
330
1F
331
10001
  0
MATERIAL
  5
1001D
102
{ACAD_REACTORS
330
1001B
102
}
330
1001B
100
AcDbMaterial
  1
ByBlock
 72
     1
273
     1
 94
      127
  0
MATERIAL
  5
1001C
102
{ACAD_REACTORS
330
1001B
102
}
330
1001B
100
AcDbMaterial
  1
ByLayer
 72
     1
273
     1
 94
      127
  0
MATERIAL
  5
1001E
102
{ACAD_REACTORS
330
1001B
102
}
330
1001B
100
AcDbMaterial
  1
Global
 72
     1
273
     1
 94
      127
  0
MLEADERSTYLE
  5
1003B
102
{ACAD_REACTORS
330
1003A
102
}
330
1003A
100
AcDbMLeaderStyle
179
     2
170
     2
171
     1
172
     0
 90
        2
 40
0.0
 41
0.0
173
     1
 91
-1056964608
340
14
 92
       -2
290
     1
 42
0.09
291
     1
 43
0.36
  3
Standard
341
0
 44
0.18
300

342
11
174
     1
178
     6
175
     1
176
     0
 93
-1056964608
 45
0.18
292
     0
297
     0
 46
0.18
343
0
 94
-1056964608
 47
1.0
 49
1.0
140
1.0
293
     1
141
0.0
294
     1
177
     0
142
1.0
295
     0
296
     0
143
0.125
271
     0
272
     9
273
     9
298
     0
  0
MLINESTYLE
  5
10002
102
{ACAD_REACTORS
330
17
102
}
330
17
100
AcDbMlineStyle
  2
Standard
 70
     0
  3

 62
   256
 51
90.0
 52
90.0
 71
     2
 49
0.5
 62
   256
  6
BYLAYER
 49
-0.5
 62
   256
  6
BYLAYER
  0
ACDBPLACEHOLDER
  5
10005
102
{ACAD_REACTORS
330
10004
102
}
330
10004
  0
SCALE
  5
10007
102
{ACAD_REACTORS
330
10006
102
}
330
10006
100
AcDbScale
 70
     0
300
1:1
140
1.0
141
1.0
290
     1
  0
SCALE
  5
10008
102
{ACAD_REACTORS
330
10006
102
}
330
10006
100
AcDbScale
 70
     0
300
1/128" = 1'-0"
140
0.0078125
141
12.0
290
     0
  0
SCALE
  5
10009
102
{ACAD_REACTORS
330
10006
102
}
330
10006
100
AcDbScale
 70
     0
300
1/64" = 1'-0"
140
0.015625
141
12.0
290
     0
  0
SCALE
  5
1000A
102
{ACAD_REACTORS
330
10006
102
}
330
10006
100
AcDbScale
 70
     0
300
1/32" = 1'-0"
140
0.03125
141
12.0
290
     0
  0
SCALE
  5
1000B
102
{ACAD_REACTORS
330
10006
102
}
330
10006
100
AcDbScale
 70
     0
300
1/16" = 1'-0"
140
0.0625
141
12.0
290
     0
  0
SCALE
  5
1000C
102
{ACAD_REACTORS
330
10006
102
}
330
10006
100
AcDbScale
 70
     0
300
3/32" = 1'-0"
140
0.09375
141
12.0
290
     0
  0
SCALE
  5
1000D
102
{ACAD_REACTORS
330
10006
102
}
330
10006
100
AcDbScale
 70
     0
300
1/8" = 1'-0"
140
0.125
141
12.0
290
     0
  0
SCALE
  5
1000E
102
{ACAD_REACTORS
330
10006
102
}
330
10006
100
AcDbScale
 70
     0
300
3/16" = 1'-0"
140
0.1875
141
12.0
290
     0
  0
SCALE
  5
1000F
102
{ACAD_REACTORS
330
10006
102
}
330
10006
100
AcDbScale
 70
     0
300
1/4" = 1'-0"
140
0.25
141
12.0
290
     0
  0
SCALE
  5
10010
102
{ACAD_REACTORS
330
10006
102
}
330
10006
100
AcDbScale
 70
     0
300
3/8" = 1'-0"
140
0.375
141
12.0
290
     0
  0
SCALE
  5
10011
102
{ACAD_REACTORS
330
10006
102
}
330
10006
100
AcDbScale
 70
     0
300
1/2" = 1'-0"
140
0.5
141
12.0
290
     0
  0
SCALE
  5
10012
102
{ACAD_REACTORS
330
10006
102
}
330
10006
100
AcDbScale
 70
     0
300
3/4" = 1'-0"
140
0.75
141
12.0
290
     0
  0
SCALE
  5
10013
102
{ACAD_REACTORS
330
10006
102
}
330
10006
100
AcDbScale
 70
     0
300
1" = 1'-0"
140
1.0
141
12.0
290
     0
  0
SCALE
  5
10014
102
{ACAD_REACTORS
330
10006
102
}
330
10006
100
AcDbScale
 70
     0
300
1-1/2" = 1'-0"
140
1.5
141
12.0
290
     0
  0
SCALE
  5
10015
102
{ACAD_REACTORS
330
10006
102
}
330
10006
100
AcDbScale
 70
     0
300
3" = 1'-0"
140
3.0
141
12.0
290
     0
  0
SCALE
  5
10016
102
{ACAD_REACTORS
330
10006
102
}
330
10006
100
AcDbScale
 70
     0
300
6" = 1'-0"
140
6.0
141
12.0
290
     0
  0
SCALE
  5
10017
102
{ACAD_REACTORS
330
10006
102
}
330
10006
100
AcDbScale
 70
     0
300
1'-0" = 1'-0"
140
12.0
141
12.0
290
     0
  0
TABLESTYLE
  5
10039
102
{ACAD_REACTORS
330
10038
102
}
102
{ACAD_XDICTIONARY
360
10065
102
}
330
10038
100
AcDbTableStyle
  3
Standard
 70
     0
 71
     0
 40
0.06
 41
0.06
280
     0
281
     0
  7
STANDARD
140
0.18
170
     2
 62
     0
 63
   257
283
     0
 90
        4
 91
        0
  1

274
    -2
284
     1
 64
     0
275
    -2
285
     1
 65
     0
276
    -2
286
     1
 66
     0
277
    -2
287
     1
 67
     0
278
    -2
288
     1
 68
     0
279
    -2
289
     1
 69
     0
  7
STANDARD
140
0.25
170
     5
 62
     0
 63
   257
283
     0
 90
        4
 91
        0
  1

274
    -2
284
     1
 64
     0
275
    -2
285
     1
 65
     0
276
    -2
286
     1
 66
     0
277
    -2
287
     1
 67
     0
278
    -2
288
     1
 68
     0
279
    -2
289
     1
 69
     0
  7
STANDARD
140
0.18
170
     5
 62
     0
 63
   257
283
     0
 90
        4
 91
        0
  1

274
    -2
284
     1
 64
     0
275
    -2
285
     1
 65
     0
276
    -2
286
     1
 66
     0
277
    -2
287
     1
 67
     0
278
    -2
288
     1
 68
     0
279
    -2
289
     1
 69
     0
  0
VISUALSTYLE
  5
10024
102
{ACAD_REACTORS
330
1001F
102
}
330
1001F
100
AcDbVisualStyle
  2
2dWireframe
 70
     4
177
     3
291
     0
 70
    58
 90
        0
176
     1
 90
        2
176
     1
 90
        0
176
     1
 90
        0
176
     1
 40
0.6
176
     1
 40
30.0
176
     1
 62
     7
420
 16777215
176
     1
 90
        1
176
     1
 90
        4
176
     1
 62
     7
176
     1
 62
   257
176
     1
 90
        1
176
     1
 90
        1
176
     1
 40
1.0
176
     1
 90
        0
176
     1
 62
   257
176
     1
 40
1.0
176
     1
 90
        1
176
     1
 90
        6
176
     1
 90
        2
176
     1
 62
     7
176
     1
 90
        5
176
     1
 90
        0
176
     1
 90
        0
176
     1
290
     0
176
     1
 90
        1
176
     1
 40
0.0
176
     1
 90
        0
176
     1
290
     1
176
     1
290
     1
176
     1
290
     0
176
     1
290
     0
176
     1
290
     0
176
     1
290
     0
176
     1
290
     0
176
     1
290
     0
176
     1
290
     0
176
     1
 90
       50
176
     1
 40
0.0
176
     1
 40
1.0
176
     1
 90
        0
176
     1
 62
    18
420
        0
176
     1
 90
       50
176
     1
 90
        3
176
     1
 62
     5
420
      255
176
     1
290
     0
176
     1
 90
       50
176
     1
 90
       50
176
     1
 90
       50
176
     1
290
     0
176
     1
 90
       50
176
     1
 62
   256
176
     0
 40
1.0
176
     0
 90
        2
176
     1
  1
strokes_ogs.tif
176
     1
290
     0
176
     1
 40
1.0
176
     1
 40
1.0
176
     1
  0
VISUALSTYLE
  5
10027
102
{ACAD_REACTORS
330
1001F
102
}
330
1001F
100
AcDbVisualStyle
  2
Basic
 70
     7
177
     3
291
     1
 70
    58
 90
        1
176
     1
 90
        0
176
     1
 90
        1
176
     1
 90
        0
176
     1
 40
0.6
176
     1
 40
30.0
176
     1
 62
     7
420
 16777215
176
     1
 90
        0
176
     1
 90
        4
176
     1
 62
     7
176
     1
 62
   257
176
     1
 90
        1
176
     1
 90
        1
176
     1
 40
1.0
176
     1
 90
        8
176
     1
 62
     7
176
     1
 40
1.0
176
     1
 90
        1
176
     1
 90
        6
176
     1
 90
        2
176
     1
 62
     7
176
     1
 90
        5
176
     1
 90
        0
176
     1
 90
        0
176
     1
290
     0
176
     1
 90
        1
176
     1
 40
0.0
176
     1
 90
        0
176
     1
290
     0
176
     1
290
     1
176
     1
290
     1
176
     1
290
     0
176
     1
290
     0
176
     1
290
     0
176
     1
290
     0
176
     1
290
     0
176
     1
290
     0
176
     1
 90
       50
176
     1
 40
0.0
176
     1
 40
1.0
176
     1
 90
        0
176
     1
 62
    18
420
        0
176
     1
 90
       50
176
     1
 90
        3
176
     1
 62
     5
420
      255
176
     1
290
     0
176
     1
 90
       50
176
     1
 90
       50
176
     1
 90
       50
176
     1
290
     0
176
     1
 90
       50
176
     1
 62
   256
176
     0
 40
1.0
176
     0
 90
        2
176
     1
  1
strokes_ogs.tif
176
     1
290
     0
176
     1
 40
1.0
176
     1
 40
1.0
176
     1
  0
VISUALSTYLE
  5
1002B
102
{ACAD_REACTORS
330
1001F
102
}
330
1001F
100
AcDbVisualStyle
  2
Brighten
 70
    12
177
     3
291
     1
 70
    58
 90
        2
176
     1
 90
        2
176
     1
 90
        0
176
     1
 90
        0
176
     1
 40
0.6
176
     1
 40
30.0
176
     1
 62
     7
420
 16777215
176
     1
 90
        1
176
     1
 90
        4
176
     1
 62
     7
176
     1
 62
   257
176
     1
 90
        1
176
     1
 90
        1
176
     1
 40
1.0
176
     1
 90
        8
176
     1
 62
     7
176
     1
 40
1.0
176
     1
 90
        1
176
     1
 90
        6
176
     1
 90
        2
176
     1
 62
     7
176
     1
 90
        5
176
     1
 90
        0
176
     1
 90
        0
176
     1
290
     0
176
     1
 90
        1
176
     1
 40
50.0
176
     1
 90
        0
176
     1
290
     0
176
     1
290
     1
176
     1
290
     1
176
     1
290
     0
176
     1
290
     0
176
     1
290
     0
176
     1
290
     0
176
     1
290
     0
176
     1
290
     0
176
     1
 90
       50
176
     1
 40
0.0
176
     1
 40
1.0
176
     1
 90
        0
176
     1
 62
    18
420
        0
176
     1
 90
       50
176
     1
 90
        3
176
     1
 62
     5
420
      255
176
     1
290
     0
176
     1
 90
       50
176
     1
 90
       50
176
     1
 90
       50
176
     1
290
     0
176
     1
 90
       50
176
     1
 62
   256
176
     0
 40
1.0
176
     0
 90
        2
176
     1
  1
strokes_ogs.tif
176
     1
290
     0
176
     1
 40
1.0
176
     1
 40
1.0
176
     1
  0
VISUALSTYLE
  5
1002F
102
{ACAD_REACTORS
330
1001F
102
}
330
1001F
100
AcDbVisualStyle
  2
ColorChange
 70
    16
177
     3
291
     1
 70
    58
 90
        2
176
     1
 90
        2
176
     1
 90
        3
176
     1
 90
        0
176
     1
 40
0.6
176
     1
 40
30.0
176
     1
 62
     8
420
  8421504
176
     1
 90
        1
176
     1
 90
        4
176
     1
 62
     7
176
     1
 62
   257
176
     1
 90
        1
176
     1
 90
        1
176
     1
 40
1.0
176
     1
 90
        8
176
     1
 62
     8
420
  8421504
176
     1
 40
1.0
176
     1
 90
        1
176
     1
 90
        6
176
     1
 90
        2
176
     1
 62
     7
176
     1
 90
        5
176
     1
 90
        0
176
     1
 90
        0
176
     1
290
     0
176
     1
 90
        1
176
     1
 40
0.0
176
     1
 90
        0
176
     1
290
     0
176
     1
290
     1
176
     1
290
     1
176
     1
290
     0
176
     1
290
     0
176
     1
290
     0
176
     1
290
     0
176
     1
290
     0
176
     1
290
     0
176
     1
 90
       50
176
     1
 40
0.0
176
     1
 40
1.0
176
     1
 90
        0
176
     1
 62
    18
420
        0
176
     1
 90
       50
176
     1
 90
        3
176
     1
 62
     5
420
      255
176
     1
290
     0
176
     1
 90
       50
176
     1
 90
       50
176
     1
 90
       50
176
     1
290
     0
176
     1
 90
       50
176
     1
 62
   256
176
     0
 40
1.0
176
     0
 90
        2
176
     1
  1
strokes_ogs.tif
176
     1
290
     0
176
     1
 40
1.0
176
     1
 40
1.0
176
     1
  0
VISUALSTYLE
  5
10029
102
{ACAD_REACTORS
330
1001F
102
}
330
1001F
100
AcDbVisualStyle
  2
Conceptual
 70
     9
177
     3
291
     0
 70
    58
 90
        3
176
     1
 90
        2
176
     1
 90
        0
176
     1
 90
        0
176
     1
 40
0.6
176
     1
 40
30.0
176
     1
 62
     7
420
 16777215
176
     1
 90
        2
176
     1
 90
        2
176
     1
 62
     7
176
     1
 62
   257
176
     1
 90
        1
176
     1
 90
        1
176
     1
 40
179.0
176
     1
 90
        8
176
     1
 62
     7
176
     1
 40
1.0
176
     1
 90
        1
176
     1
 90
        6
176
     1
 90
        2
176
     1
 62
     7
176
     1
 90
        3
176
     1
 90
        0
176
     1
 90
        0
176
     1
290
     0
176
     1
 90
        1
176
     1
 40
0.0
176
     1
 90
        0
176
     1
290
     0
176
     1
290
     1
176
     1
290
     1
176
     1
290
     0
176
     1
290
     0
176
     1
290
     0
176
     1
290
     0
176
     1
290
     0
176
     1
290
     0
176
     1
 90
       50
176
     1
 40
0.0
176
     1
 40
1.0
176
     1
 90
        0
176
     1
 62
    18
420
        0
176
     1
 90
       50
176
     1
 90
        3
176
     1
 62
     5
420
      255
176
     1
290
     0
176
     1
 90
       50
176
     1
 90
       50
176
     1
 90
       50
176
     1
290
     0
176
     1
 90
       50
176
     1
 62
   256
176
     0
 40
1.0
176
     0
 90
        2
176
     1
  1
strokes_ogs.tif
176
     1
290
     0
176
     1
 40
1.0
176
     1
 40
1.0
176
     1
  0
VISUALSTYLE
  5
1002A
102
{ACAD_REACTORS
330
1001F
102
}
330
1001F
100
AcDbVisualStyle
  2
Dim
 70
    11
177
     3
291
     1
 70
    58
 90
        2
176
     1
 90
        2
176
     1
 90
        0
176
     1
 90
        0
176
     1
 40
0.6
176
     1
 40
30.0
176
     1
 62
     7
420
 16777215
176
     1
 90
        1
176
     1
 90
        4
176
     1
 62
     7
176
     1
 62
   257
176
     1
 90
        1
176
     1
 90
        1
176
     1
 40
1.0
176
     1
 90
        8
176
     1
 62
     7
176
     1
 40
1.0
176
     1
 90
        1
176
     1
 90
        6
176
     1
 90
        2
176
     1
 62
     7
176
     1
 90
        5
176
     1
 90
        0
176
     1
 90
        0
176
     1
290
     0
176
     1
 90
        1
176
     1
 40
-50.0
176
     1
 90
        0
176
     1
290
     0
176
     1
290
     1
176
     1
290
     1
176
     1
290
     0
176
     1
290
     0
176
     1
290
     0
176
     1
290
     0
176
     1
290
     0
176
     1
290
     0
176
     1
 90
       50
176
     1
 40
0.0
176
     1
 40
1.0
176
     1
 90
        0
176
     1
 62
    18
420
        0
176
     1
 90
       50
176
     1
 90
        3
176
     1
 62
     5
420
      255
176
     1
290
     0
176
     1
 90
       50
176
     1
 90
       50
176
     1
 90
       50
176
     1
290
     0
176
     1
 90
       50
176
     1
 62
   256
176
     0
 40
1.0
176
     0
 90
        2
176
     1
  1
strokes_ogs.tif
176
     1
290
     0
176
     1
 40
1.0
176
     1
 40
1.0
176
     1
  0
VISUALSTYLE
  5
10032
102
{ACAD_REACTORS
330
1001F
102
}
330
1001F
100
AcDbVisualStyle
  2
EdgeColorOff
 70
    22
177
     3
291
     1
 70
    58
 90
        2
176
     0
 90
        2
176
     0
 90
        0
176
     0
 90
        0
176
     0
 40
0.6
176
     0
 40
30.0
176
     0
 62
     7
420
 16777215
176
     0
 90
        1
176
     0
 90
        4
176
     0
 62
     7
176
     0
 62
   257
176
     0
 90
        1
176
     0
 90
        1
176
     0
 40
1.0
176
     0
 90
        8
176
     2
 62
     7
176
     0
 40
1.0
176
     0
 90
        1
176
     0
 90
        6
176
     0
 90
        2
176
     0
 62
     7
176
     0
 90
        5
176
     0
 90
        0
176
     0
 90
        0
176
     0
290
     0
176
     0
 90
        1
176
     0
 40
0.0
176
     0
 90
        0
176
     0
290
     0
176
     0
290
     1
176
     0
290
     1
176
     0
290
     0
176
     0
290
     0
176
     0
290
     0
176
     0
290
     0
176
     0
290
     0
176
     0
290
     0
176
     0
 90
       50
176
     0
 40
0.0
176
     0
 40
1.0
176
     0
 90
        0
176
     0
 62
    18
420
        0
176
     0
 90
       50
176
     0
 90
        3
176
     0
 62
     5
420
      255
176
     0
290
     0
176
     0
 90
       50
176
     0
 90
       50
176
     0
 90
       50
176
     0
290
     0
176
     0
 90
       50
176
     0
 62
   256
176
     0
 40
1.0
176
     0
 90
        2
176
     0
  1
strokes_ogs.tif
176
     0
290
     0
176
     0
 40
1.0
176
     0
 40
1.0
176
     0
  0
VISUALSTYLE
  5
1002E
102
{ACAD_REACTORS
330
1001F
102
}
330
1001F
100
AcDbVisualStyle
  2
Facepattern
 70
    15
177
     3
291
     1
 70
    58
 90
        2
176
     1
 90
        2
176
     1
 90
        0
176
     1
 90
        0
176
     1
 40
0.6
176
     1
 40
30.0
176
     1
 62
     7
420
 16777215
176
     1
 90
        1
176
     1
 90
        4
176
     1
 62
     7
176
     1
 62
   257
176
     1
 90
        1
176
     1
 90
        1
176
     1
 40
1.0
176
     1
 90
        8
176
     1
 62
     7
176
     1
 40
1.0
176
     1
 90
        1
176
     1
 90
        6
176
     1
 90
        2
176
     1
 62
     7
176
     1
 90
        5
176
     1
 90
        0
176
     1
 90
        0
176
     1
290
     0
176
     1
 90
        1
176
     1
 40
0.0
176
     1
 90
        0
176
     1
290
     0
176
     1
290
     1
176
     1
290
     1
176
     1
290
     0
176
     1
290
     0
176
     1
290
     0
176
     1
290
     0
176
     1
290
     0
176
     1
290
     0
176
     1
 90
       50
176
     1
 40
0.0
176
     1
 40
1.0
176
     1
 90
        0
176
     1
 62
    18
420
        0
176
     1
 90
       50
176
     1
 90
        3
176
     1
 62
     5
420
      255
176
     1
290
     0
176
     1
 90
       50
176
     1
 90
       50
176
     1
 90
       50
176
     1
290
     0
176
     1
 90
       50
176
     1
 62
   256
176
     0
 40
1.0
176
     0
 90
        2
176
     1
  1
strokes_ogs.tif
176
     1
290
     0
176
     1
 40
1.0
176
     1
 40
1.0
176
     1
  0
VISUALSTYLE
  5
10020
102
{ACAD_REACTORS
330
1001F
102
}
330
1001F
100
AcDbVisualStyle
  2
Flat
 70
     0
177
     3
291
     1
 70
    58
 90
        2
176
     1
 90
        1
176
     1
 90
        1
176
     1
 90
        2
176
     1
 40
0.6
176
     1
 40
30.0
176
     1
 62
     7
420
 16777215
176
     1
 90
        0
176
     1
 90
        0
176
     1
 62
     7
176
     1
 62
   257
176
     1
 90
        1
176
     1
 90
        1
176
     1
 40
1.0
176
     1
 90
        8
176
     1
 62
     7
176
     1
 40
1.0
176
     1
 90
        1
176
     1
 90
        6
176
     1
 90
        2
176
     1
 62
     7
176
     1
 90
        5
176
     1
 90
        0
176
     1
 90
        0
176
     1
290
     0
176
     1
 90
       13
176
     1
 40
0.0
176
     1
 90
        0
176
     1
290
     0
176
     1
290
     1
176
     1
290
     1
176
     1
290
     0
176
     1
290
     0
176
     1
290
     0
176
     1
290
     0
176
     1
290
     0
176
     1
290
     0
176
     1
 90
       50
176
     1
 40
0.0
176
     1
 40
1.0
176
     1
 90
        0
176
     1
 62
    18
420
        0
176
     1
 90
       50
176
     1
 90
        3
176
     1
 62
     5
420
      255
176
     1
290
     0
176
     1
 90
       50
176
     1
 90
       50
176
     1
 90
       50
176
     1
290
     0
176
     1
 90
       50
176
     1
 62
   256
176
     0
 40
1.0
176
     0
 90
        2
176
     1
  1
strokes_ogs.tif
176
     1
290
     0
176
     1
 40
1.0
176
     1
 40
1.0
176
     1
  0
VISUALSTYLE
  5
10021
102
{ACAD_REACTORS
330
1001F
102
}
330
1001F
100
AcDbVisualStyle
  2
FlatWithEdges
 70
     1
177
     3
291
     1
 70
    58
 90
        2
176
     1
 90
        1
176
     1
 90
        1
176
     1
 90
        2
176
     1
 40
0.6
176
     1
 40
30.0
176
     1
 62
     7
420
 16777215
176
     1
 90
        1
176
     1
 90
        0
176
     1
 62
     7
176
     1
 62
   257
176
     1
 90
        1
176
     1
 90
        1
176
     1
 40
1.0
176
     1
 90
        0
176
     1
 62
   257
176
     1
 40
1.0
176
     1
 90
        1
176
     1
 90
        6
176
     1
 90
        2
176
     1
 62
     7
176
     1
 90
        5
176
     1
 90
        0
176
     1
 90
        0
176
     1
290
     0
176
     1
 90
       13
176
     1
 40
0.0
176
     1
 90
        0
176
     1
290
     0
176
     1
290
     1
176
     1
290
     1
176
     1
290
     0
176
     1
290
     0
176
     1
290
     0
176
     1
290
     0
176
     1
290
     0
176
     1
290
     0
176
     1
 90
       50
176
     1
 40
0.0
176
     1
 40
1.0
176
     1
 90
        0
176
     1
 62
    18
420
        0
176
     1
 90
       50
176
     1
 90
        3
176
     1
 62
     5
420
      255
176
     1
290
     0
176
     1
 90
       50
176
     1
 90
       50
176
     1
 90
       50
176
     1
290
     0
176
     1
 90
       50
176
     1
 62
   256
176
     0
 40
1.0
176
     0
 90
        2
176
     1
  1
strokes_ogs.tif
176
     1
290
     0
176
     1
 40
1.0
176
     1
 40
1.0
176
     1
  0
VISUALSTYLE
  5
10022
102
{ACAD_REACTORS
330
1001F
102
}
330
1001F
100
AcDbVisualStyle
  2
Gouraud
 70
     2
177
     3
291
     1
 70
    58
 90
        2
176
     1
 90
        2
176
     1
 90
        1
176
     1
 90
        2
176
     1
 40
0.6
176
     1
 40
30.0
176
     1
 62
     7
420
 16777215
176
     1
 90
        0
176
     1
 90
        0
176
     1
 62
     7
176
     1
 62
   257
176
     1
 90
        1
176
     1
 90
        1
176
     1
 40
1.0
176
     1
 90
        0
176
     1
 62
     7
176
     1
 40
1.0
176
     1
 90
        1
176
     1
 90
        6
176
     1
 90
        2
176
     1
 62
     7
176
     1
 90
        5
176
     1
 90
        0
176
     1
 90
        0
176
     1
290
     0
176
     1
 90
       13
176
     1
 40
0.0
176
     1
 90
        0
176
     1
290
     0
176
     1
290
     1
176
     1
290
     1
176
     1
290
     0
176
     1
290
     0
176
     1
290
     0
176
     1
290
     0
176
     1
290
     0
176
     1
290
     0
176
     1
 90
       50
176
     1
 40
0.0
176
     1
 40
1.0
176
     1
 90
        0
176
     1
 62
    18
420
        0
176
     1
 90
       50
176
     1
 90
        3
176
     1
 62
     5
420
      255
176
     1
290
     0
176
     1
 90
       50
176
     1
 90
       50
176
     1
 90
       50
176
     1
290
     0
176
     1
 90
       50
176
     1
 62
   256
176
     0
 40
1.0
176
     0
 90
        2
176
     1
  1
strokes_ogs.tif
176
     1
290
     0
176
     1
 40
1.0
176
     1
 40
1.0
176
     1
  0
VISUALSTYLE
  5
10023
102
{ACAD_REACTORS
330
1001F
102
}
330
1001F
100
AcDbVisualStyle
  2
GouraudWithEdges
 70
     3
177
     3
291
     1
 70
    58
 90
        2
176
     1
 90
        2
176
     1
 90
        1
176
     1
 90
        2
176
     1
 40
0.6
176
     1
 40
30.0
176
     1
 62
     7
420
 16777215
176
     1
 90
        1
176
     1
 90
        0
176
     1
 62
     7
176
     1
 62
   257
176
     1
 90
        1
176
     1
 90
        1
176
     1
 40
1.0
176
     1
 90
        0
176
     1
 62
   257
176
     1
 40
1.0
176
     1
 90
        1
176
     1
 90
        6
176
     1
 90
        2
176
     1
 62
     7
176
     1
 90
        5
176
     1
 90
        0
176
     1
 90
        0
176
     1
290
     0
176
     1
 90
       13
176
     1
 40
0.0
176
     1
 90
        0
176
     1
290
     0
176
     1
290
     1
176
     1
290
     1
176
     1
290
     0
176
     1
290
     0
176
     1
290
     0
176
     1
290
     0
176
     1
290
     0
176
     1
290
     0
176
     1
 90
       50
176
     1
 40
0.0
176
     1
 40
1.0
176
     1
 90
        0
176
     1
 62
    18
420
        0
176
     1
 90
       50
176
     1
 90
        3
176
     1
 62
     5
420
      255
176
     1
290
     0
176
     1
 90
       50
176
     1
 90
       50
176
     1
 90
       50
176
     1
290
     0
176
     1
 90
       50
176
     1
 62
   256
176
     0
 40
1.0
176
     0
 90
        2
176
     1
  1
strokes_ogs.tif
176
     1
290
     0
176
     1
 40
1.0
176
     1
 40
1.0
176
     1
  0
VISUALSTYLE
  5
10026
102
{ACAD_REACTORS
330
1001F
102
}
330
1001F
100
AcDbVisualStyle
  2
Hidden
 70
     6
177
     3
291
     0
 70
    58
 90
        1
176
     1
 90
        2
176
     1
 90
        2
176
     1
 90
        0
176
     1
 40
0.6
176
     1
 40
30.0
176
     1
 62
     7
420
 16777215
176
     1
 90
        2
176
     1
 90
        2
176
     1
 62
     7
176
     1
 62
   257
176
     1
 90
        2
176
     1
 90
        1
176
     1
 40
40.0
176
     1
 90
        0
176
     1
 62
   257
176
     1
 40
1.0
176
     1
 90
        1
176
     1
 90
        6
176
     1
 90
        2
176
     1
 62
     7
176
     1
 90
        3
176
     1
 90
        0
176
     1
 90
        0
176
     1
290
     0
176
     1
 90
        1
176
     1
 40
0.0
176
     1
 90
        0
176
     1
290
     0
176
     1
290
     1
176
     1
290
     1
176
     1
290
     0
176
     1
290
     0
176
     1
290
     0
176
     1
290
     0
176
     1
290
     0
176
     1
290
     0
176
     1
 90
       50
176
     1
 40
0.0
176
     1
 40
1.0
176
     1
 90
        0
176
     1
 62
    18
420
        0
176
     1
 90
       50
176
     1
 90
        3
176
     1
 62
     5
420
      255
176
     1
290
     0
176
     1
 90
       50
176
     1
 90
       50
176
     1
 90
       50
176
     1
290
     0
176
     1
 90
       50
176
     1
 62
   256
176
     0
 40
1.0
176
     0
 90
        2
176
     1
  1
strokes_ogs.tif
176
     1
290
     0
176
     1
 40
1.0
176
     1
 40
1.0
176
     1
  0
VISUALSTYLE
  5
10030
102
{ACAD_REACTORS
330
1001F
102
}
330
1001F
100
AcDbVisualStyle
  2
JitterOff
 70
    20
177
     3
291
     1
 70
    58
 90
        2
176
     0
 90
        2
176
     0
 90
        0
176
     0
 90
        0
176
     0
 40
0.6
176
     0
 40
30.0
176
     0
 62
     7
420
 16777215
176
     0
 90
        1
176
     0
 90
        4
176
     0
 62
     7
176
     0
 62
   257
176
     0
 90
        1
176
     0
 90
        1
176
     0
 40
1.0
176
     0
 90
       10
176
     2
 62
     7
176
     0
 40
1.0
176
     0
 90
        1
176
     0
 90
        6
176
     0
 90
        2
176
     0
 62
     7
176
     0
 90
        5
176
     0
 90
        0
176
     0
 90
        0
176
     0
290
     0
176
     0
 90
        1
176
     0
 40
0.0
176
     0
 90
        0
176
     0
290
     0
176
     0
290
     1
176
     0
290
     1
176
     0
290
     0
176
     0
290
     0
176
     0
290
     0
176
     0
290
     0
176
     0
290
     0
176
     0
290
     0
176
     0
 90
       50
176
     0
 40
0.0
176
     0
 40
1.0
176
     0
 90
        0
176
     0
 62
    18
420
        0
176
     0
 90
       50
176
     0
 90
        3
176
     0
 62
     5
420
      255
176
     0
290
     0
176
     0
 90
       50
176
     0
 90
       50
176
     0
 90
       50
176
     0
290
     0
176
     0
 90
       50
176
     0
 62
   256
176
     0
 40
1.0
176
     0
 90
        2
176
     0
  1
strokes_ogs.tif
176
     0
290
     0
176
     0
 40
1.0
176
     0
 40
1.0
176
     0
  0
VISUALSTYLE
  5
1002D
102
{ACAD_REACTORS
330
1001F
102
}
330
1001F
100
AcDbVisualStyle
  2
Linepattern
 70
    14
177
     3
291
     1
 70
    58
 90
        2
176
     1
 90
        2
176
     1
 90
        0
176
     1
 90
        0
176
     1
 40
0.6
176
     1
 40
30.0
176
     1
 62
     7
420
 16777215
176
     1
 90
        1
176
     1
 90
        4
176
     1
 62
     7
176
     1
 62
   257
176
     1
 90
        7
176
     1
 90
        7
176
     1
 40
1.0
176
     1
 90
        8
176
     1
 62
     7
176
     1
 40
1.0
176
     1
 90
        1
176
     1
 90
        6
176
     1
 90
        2
176
     1
 62
     7
176
     1
 90
        5
176
     1
 90
        0
176
     1
 90
        0
176
     1
290
     0
176
     1
 90
        1
176
     1
 40
0.0
176
     1
 90
        0
176
     1
290
     0
176
     1
290
     1
176
     1
290
     1
176
     1
290
     0
176
     1
290
     0
176
     1
290
     0
176
     1
290
     0
176
     1
290
     0
176
     1
290
     0
176
     1
 90
       50
176
     1
 40
0.0
176
     1
 40
1.0
176
     1
 90
        0
176
     1
 62
    18
420
        0
176
     1
 90
       50
176
     1
 90
        3
176
     1
 62
     5
420
      255
176
     1
290
     0
176
     1
 90
       50
176
     1
 90
       50
176
     1
 90
       50
176
     1
290
     0
176
     1
 90
       50
176
     1
 62
   256
176
     0
 40
1.0
176
     0
 90
        2
176
     1
  1
strokes_ogs.tif
176
     1
290
     0
176
     1
 40
1.0
176
     1
 40
1.0
176
     1
  0
VISUALSTYLE
  5
10031
102
{ACAD_REACTORS
330
1001F
102
}
330
1001F
100
AcDbVisualStyle
  2
OverhangOff
 70
    21
177
     3
291
     1
 70
    58
 90
        2
176
     0
 90
        2
176
     0
 90
        0
176
     0
 90
        0
176
     0
 40
0.6
176
     0
 40
30.0
176
     0
 62
     7
420
 16777215
176
     0
 90
        1
176
     0
 90
        4
176
     0
 62
     7
176
     0
 62
   257
176
     0
 90
        1
176
     0
 90
        1
176
     0
 40
1.0
176
     0
 90
        9
176
     2
 62
     7
176
     0
 40
1.0
176
     0
 90
        1
176
     0
 90
        6
176
     0
 90
        2
176
     0
 62
     7
176
     0
 90
        5
176
     0
 90
        0
176
     0
 90
        0
176
     0
290
     0
176
     0
 90
        1
176
     0
 40
0.0
176
     0
 90
        0
176
     0
290
     0
176
     0
290
     1
176
     0
290
     1
176
     0
290
     0
176
     0
290
     0
176
     0
290
     0
176
     0
290
     0
176
     0
290
     0
176
     0
290
     0
176
     0
 90
       50
176
     0
 40
0.0
176
     0
 40
1.0
176
     0
 90
        0
176
     0
 62
    18
420
        0
176
     0
 90
       50
176
     0
 90
        3
176
     0
 62
     5
420
      255
176
     0
290
     0
176
     0
 90
       50
176
     0
 90
       50
176
     0
 90
       50
176
     0
290
     0
176
     0
 90
       50
176
     0
 62
   256
176
     0
 40
1.0
176
     0
 90
        2
176
     0
  1
strokes_ogs.tif
176
     0
290
     0
176
     0
 40
1.0
176
     0
 40
1.0
176
     0
  0
VISUALSTYLE
  5
10028
102
{ACAD_REACTORS
330
1001F
102
}
330
1001F
100
AcDbVisualStyle
  2
Realistic
 70
     8
177
     3
291
     0
 70
    58
 90
        2
176
     1
 90
        3
176
     1
 90
        0
176
     1
 90
        2
176
     1
 40
0.6
176
     1
 40
30.0
176
     1
 62
     7
420
 16777215
176
     1
 90
        0
176
     1
 90
        0
176
     1
 62
     7
176
     1
 62
   257
176
     1
 90
        1
176
     1
 90
        1
176
     1
 40
1.0
176
     1
 90
        8
176
     1
 62
   257
176
     1
 40
1.0
176
     1
 90
        1
176
     1
 90
        6
176
     1
 90
        2
176
     1
 62
     7
176
     1
 90
        3
176
     1
 90
        0
176
     1
 90
        0
176
     1
290
     0
176
     1
 90
       13
176
     1
 40
0.0
176
     1
 90
        0
176
     1
290
     0
176
     1
290
     1
176
     1
290
     1
176
     1
290
     0
176
     1
290
     0
176
     1
290
     0
176
     1
290
     0
176
     1
290
     0
176
     1
290
     0
176
     1
 90
       50
176
     1
 40
0.0
176
     1
 40
1.0
176
     1
 90
        0
176
     1
 62
    18
420
        0
176
     1
 90
       50
176
     1
 90
        3
176
     1
 62
     5
420
      255
176
     1
290
     0
176
     1
 90
       50
176
     1
 90
       50
176
     1
 90
       50
176
     1
290
     0
176
     1
 90
       50
176
     1
 62
   256
176
     0
 40
1.0
176
     0
 90
        2
176
     1
  1
strokes_ogs.tif
176
     1
290
     0
176
     1
 40
1.0
176
     1
 40
1.0
176
     1
  0
VISUALSTYLE
  5
10037
102
{ACAD_REACTORS
330
1001F
102
}
330
1001F
100
AcDbVisualStyle
  2
Shaded
 70
    27
177
     3
291
     0
 70
    58
 90
        2
176
     1
 90
        2
176
     1
 90
        1
176
     1
 90
        2
176
     1
 40
0.6
176
     1
 40
30.0
176
     1
 62
     7
420
 16777215
176
     1
 90
        0
176
     1
 90
        4
176
     1
 62
     7
176
     1
 62
   257
176
     1
 90
        1
176
     1
 90
        1
176
     1
 40
1.0
176
     1
 90
        8
176
     1
 62
   257
176
     1
 40
1.0
176
     1
 90
        1
176
     1
 90
        6
176
     1
 90
        2
176
     1
 62
     8
420
  7895160
176
     1
 90
        3
176
     1
 90
        0
176
     1
 90
        0
176
     1
290
     0
176
     1
 90
        5
176
     1
 40
0.0
176
     1
 90
        0
176
     1
290
     0
176
     1
290
     1
176
     1
290
     1
176
     1
290
     0
176
     1
290
     0
176
     1
290
     0
176
     1
290
     0
176
     1
290
     0
176
     1
290
     0
176
     1
 90
       50
176
     1
 40
0.0
176
     1
 40
1.0
176
     1
 90
        0
176
     1
 62
    18
420
        0
176
     1
 90
       50
176
     1
 90
        3
176
     1
 62
     5
420
      255
176
     1
290
     0
176
     1
 90
       50
176
     1
 90
       50
176
     1
 90
       50
176
     1
290
     0
176
     1
 90
       50
176
     1
 62
   256
176
     0
 40
1.0
176
     0
 90
        2
176
     1
  1
strokes_ogs.tif
176
     1
290
     0
176
     1
 40
1.0
176
     1
 40
1.0
176
     1
  0
VISUALSTYLE
  5
10036
102
{ACAD_REACTORS
330
1001F
102
}
330
1001F
100
AcDbVisualStyle
  2
Shaded with edges
 70
    26
177
     3
291
     0
 70
    58
 90
        2
176
     1
 90
        2
176
     1
 90
        1
176
     1
 90
        2
176
     1
 40
0.6
176
     1
 40
30.0
176
     1
 62
     7
420
 16777215
176
     1
 90
        1
176
     1
 90
       10
176
     1
 62
     7
176
     1
 62
   257
176
     1
 90
        2
176
     1
 90
        1
176
     1
 40
1.0
176
     1
 90
        8
176
     1
 62
   257
176
     1
 40
1.0
176
     1
 90
        1
176
     1
 90
        6
176
     1
 90
        2
176
     1
 62
     7
176
     1
 90
        3
176
     1
 90
        0
176
     1
 90
        0
176
     1
290
     0
176
     1
 90
        5
176
     1
 40
0.0
176
     1
 90
        0
176
     1
290
     0
176
     1
290
     1
176
     1
290
     1
176
     1
290
     0
176
     1
290
     0
176
     1
290
     0
176
     1
290
     0
176
     1
290
     0
176
     1
290
     0
176
     1
 90
       50
176
     1
 40
0.0
176
     1
 40
1.0
176
     1
 90
        0
176
     1
 62
    18
420
        0
176
     1
 90
       50
176
     1
 90
        3
176
     1
 62
     5
420
      255
176
     1
290
     0
176
     1
 90
       50
176
     1
 90
       50
176
     1
 90
       50
176
     1
290
     0
176
     1
 90
       50
176
     1
 62
   256
176
     0
 40
1.0
176
     0
 90
        2
176
     1
  1
strokes_ogs.tif
176
     1
290
     0
176
     1
 40
1.0
176
     1
 40
1.0
176
     1
  0
VISUALSTYLE
  5
10033
102
{ACAD_REACTORS
330
1001F
102
}
330
1001F
100
AcDbVisualStyle
  2
Shades of Gray
 70
    23
177
     3
291
     0
 70
    58
 90
        2
176
     1
 90
        2
176
     1
 90
        3
176
     1
 90
        0
176
     1
 40
0.6
176
     1
 40
30.0
176
     1
 62
     7
420
 16777215
176
     1
 90
        2
176
     1
 90
        2
176
     1
 62
     7
176
     1
 62
     7
176
     1
 90
        1
176
     1
 90
        1
176
     1
 40
40.0
176
     1
 90
        8
176
     1
 62
     7
176
     1
 40
1.0
176
     1
 90
        1
176
     1
 90
        6
176
     1
 90
        2
176
     1
 62
     7
176
     1
 90
        3
176
     1
 90
        0
176
     1
 90
        0
176
     1
290
     0
176
     1
 90
        1
176
     1
 40
0.0
176
     1
 90
        0
176
     1
290
     0
176
     1
290
     1
176
     1
290
     1
176
     1
290
     0
176
     1
290
     0
176
     1
290
     0
176
     1
290
     0
176
     1
290
     0
176
     1
290
     0
176
     1
 90
       50
176
     1
 40
0.0
176
     1
 40
1.0
176
     1
 90
        0
176
     1
 62
    18
420
        0
176
     1
 90
       50
176
     1
 90
        3
176
     1
 62
     5
420
      255
176
     1
290
     0
176
     1
 90
       50
176
     1
 90
       50
176
     1
 90
       50
176
     1
290
     0
176
     1
 90
       50
176
     1
 62
   256
176
     0
 40
1.0
176
     0
 90
        2
176
     1
  1
strokes_ogs.tif
176
     1
290
     0
176
     1
 40
1.0
176
     1
 40
1.0
176
     1
  0
VISUALSTYLE
  5
10034
102
{ACAD_REACTORS
330
1001F
102
}
330
1001F
100
AcDbVisualStyle
  2
Sketchy
 70
    24
177
     3
291
     0
 70
    58
 90
        1
176
     1
 90
        2
176
     1
 90
        2
176
     1
 90
        0
176
     1
 40
0.6
176
     1
 40
30.0
176
     1
 62
     7
420
 16777215
176
     1
 90
        2
176
     1
 90
        2
176
     1
 62
     7
176
     1
 62
     7
176
     1
 90
        1
176
     1
 90
        1
176
     1
 40
40.0
176
     1
 90
       11
176
     1
 62
     7
176
     1
 40
1.0
176
     1
 90
        1
176
     1
 90
        6
176
     1
 90
        2
176
     1
 62
     7
176
     1
 90
        6
176
     1
 90
        0
176
     1
 90
        0
176
     1
290
     0
176
     1
 90
        1
176
     1
 40
0.0
176
     1
 90
        0
176
     1
290
     0
176
     1
290
     1
176
     1
290
     1
176
     1
290
     0
176
     1
290
     0
176
     1
290
     0
176
     1
290
     0
176
     1
290
     0
176
     1
290
     0
176
     1
 90
       50
176
     1
 40
0.0
176
     1
 40
1.0
176
     1
 90
        0
176
     1
 62
    18
420
        0
176
     1
 90
       50
176
     1
 90
        3
176
     1
 62
     5
420
      255
176
     1
290
     0
176
     1
 90
       50
176
     1
 90
       50
176
     1
 90
       50
176
     1
290
     0
176
     1
 90
       50
176
     1
 62
   256
176
     0
 40
1.0
176
     0
 90
        2
176
     1
  1
strokes_ogs.tif
176
     1
290
     0
176
     1
 40
1.0
176
     1
 40
1.0
176
     1
  0
VISUALSTYLE
  5
1002C
102
{ACAD_REACTORS
330
1001F
102
}
330
1001F
100
AcDbVisualStyle
  2
Thicken
 70
    13
177
     3
291
     1
 70
    58
 90
        2
176
     1
 90
        2
176
     1
 90
        0
176
     1
 90
        0
176
     1
 40
0.6
176
     1
 40
30.0
176
     1
 62
     7
420
 16777215
176
     1
 90
        1
176
     1
 90
        4
176
     1
 62
     7
176
     1
 62
   257
176
     1
 90
        1
176
     1
 90
        1
176
     1
 40
1.0
176
     1
 90
       12
176
     1
 62
     7
176
     1
 40
1.0
176
     1
 90
        1
176
     1
 90
        6
176
     1
 90
        2
176
     1
 62
     7
176
     1
 90
        5
176
     1
 90
        0
176
     1
 90
        0
176
     1
290
     0
176
     1
 90
        1
176
     1
 40
0.0
176
     1
 90
        0
176
     1
290
     0
176
     1
290
     1
176
     1
290
     1
176
     1
290
     0
176
     1
290
     0
176
     1
290
     0
176
     1
290
     0
176
     1
290
     0
176
     1
290
     0
176
     1
 90
       50
176
     1
 40
0.0
176
     1
 40
1.0
176
     1
 90
        0
176
     1
 62
    18
420
        0
176
     1
 90
       50
176
     1
 90
        3
176
     1
 62
     5
420
      255
176
     1
290
     0
176
     1
 90
       50
176
     1
 90
       50
176
     1
 90
       50
176
     1
290
     0
176
     1
 90
       50
176
     1
 62
   256
176
     0
 40
1.0
176
     0
 90
        2
176
     1
  1
strokes_ogs.tif
176
     1
290
     0
176
     1
 40
1.0
176
     1
 40
1.0
176
     1
  0
VISUALSTYLE
  5
10025
102
{ACAD_REACTORS
330
1001F
102
}
330
1001F
100
AcDbVisualStyle
  2
Wireframe
 70
     5
177
     3
291
     0
 70
    58
 90
        0
176
     1
 90
        2
176
     1
 90
        0
176
     1
 90
        0
176
     1
 40
0.6
176
     1
 40
30.0
176
     1
 62
     7
420
 16777215
176
     1
 90
        1
176
     1
 90
        4
176
     1
 62
     7
176
     1
 62
   257
176
     1
 90
        1
176
     1
 90
        1
176
     1
 40
1.0
176
     1
 90
        0
176
     1
 62
   257
176
     1
 40
1.0
176
     1
 90
        1
176
     1
 90
        6
176
     1
 90
        2
176
     1
 62
     7
176
     1
 90
        3
176
     1
 90
        0
176
     1
 90
        0
176
     1
290
     0
176
     1
 90
        1
176
     1
 40
0.0
176
     1
 90
        0
176
     1
290
     0
176
     1
290
     1
176
     1
290
     1
176
     1
290
     0
176
     1
290
     0
176
     1
290
     0
176
     1
290
     0
176
     1
290
     0
176
     1
290
     0
176
     1
 90
       50
176
     1
 40
0.0
176
     1
 40
1.0
176
     1
 90
        0
176
     1
 62
    18
420
        0
176
     1
 90
       50
176
     1
 90
        3
176
     1
 62
     5
420
      255
176
     1
290
     0
176
     1
 90
       50
176
     1
 90
       50
176
     1
 90
       50
176
     1
290
     0
176
     1
 90
       50
176
     1
 62
   256
176
     0
 40
1.0
176
     0
 90
        2
176
     1
  1
strokes_ogs.tif
176
     1
290
     0
176
     1
 40
1.0
176
     1
 40
1.0
176
     1
  0
VISUALSTYLE
  5
10035
102
{ACAD_REACTORS
330
1001F
102
}
330
1001F
100
AcDbVisualStyle
  2
X-Ray
 70
    25
177
     3
291
     0
 70
    58
 90
        2
176
     1
 90
        2
176
     1
 90
        1
176
     1
 90
        1
176
     1
 40
0.5
176
     1
 40
30.0
176
     1
 62
     7
420
 16777215
176
     1
 90
        1
176
     1
 90
        0
176
     1
 62
     7
176
     1
 62
   257
176
     1
 90
        1
176
     1
 90
        1
176
     1
 40
1.0
176
     1
 90
        8
176
     1
 62
     7
176
     1
 40
1.0
176
     1
 90
        1
176
     1
 90
        6
176
     1
 90
        2
176
     1
 62
     7
176
     1
 90
        3
176
     1
 90
        0
176
     1
 90
        0
176
     1
290
     0
176
     1
 90
       13
176
     1
 40
0.0
176
     1
 90
        0
176
     1
290
     0
176
     1
290
     1
176
     1
290
     1
176
     1
290
     0
176
     1
290
     0
176
     1
290
     0
176
     1
290
     0
176
     1
290
     0
176
     1
290
     0
176
     1
 90
       50
176
     1
 40
0.0
176
     1
 40
1.0
176
     1
 90
        0
176
     1
 62
    18
420
        0
176
     1
 90
       50
176
     1
 90
        3
176
     1
 62
     5
420
      255
176
     1
290
     0
176
     1
 90
       50
176
     1
 90
       50
176
     1
 90
       50
176
     1
290
     0
176
     1
 90
       50
176
     1
 62
   256
176
     0
 40
1.0
176
     0
 90
        2
176
     1
  1
strokes_ogs.tif
176
     1
290
     0
176
     1
 40
1.0
176
     1
 40
1.0
176
     1
  0
DICTIONARYVAR
  5
1003D
102
{ACAD_REACTORS
330
1003C
102
}
330
1003C
100
DictionaryVariables
280
     0
  1
1:1
  0
DICTIONARYVAR
  5
10042
102
{ACAD_REACTORS
330
1003C
102
}
330
1003C
100
DictionaryVariables
280
     0
  1
Standard
  0
DICTIONARYVAR
  5
10041
102
{ACAD_REACTORS
330
1003C
102
}
330
1003C
100
DictionaryVariables
280
     0
  1
Standard
  0
DICTIONARYVAR
  5
10043
102
{ACAD_REACTORS
330
1003C
102
}
330
1003C
100
DictionaryVariables
280
     0
  1
0
  0
DICTIONARYVAR
  5
10064
330
10063
100
DictionaryVariables
280
     0
  1
1.3.0 @ 2024-07-02T18:35:53.904026+00:00
  0
DICTIONARY
  5
10065
330
10039
100
AcDbDictionary
280
     1
281
     1
  3
ACAD_ROUNDTRIP_2008_TABLESTYLE_CELLSTYLEMAP
360
10066
  0
CELLSTYLEMAP
  5
10066
102
{ACAD_REACTORS
330
10065
102
}
330
10065
100
AcDbCellStyleMap
 90
        3
300
CELLSTYLE
  1
TABLEFORMAT_BEGIN
 90
        5
170
     1
 91
        0
 92
    32768
 62
   257
 93
        1
300
CONTENTFORMAT
  1
CONTENTFORMAT_BEGIN
 90
        0
 91
        0
 92
        4
 93
        0
300

 40
0.0
140
1.0
 94
        5
 62
     0
340
11
144
0.25
309
CONTENTFORMAT_END
171
     1
301
MARGIN
  1
CELLMARGIN_BEGIN
 40
0.06
 40
0.06
 40
0.06
 40
0.06
 40
0.06
 40
0.06
309
CELLMARGIN_END
 94
        6
 95
        1
302
GRIDFORMAT
  1
GRIDFORMAT_BEGIN
 90
        0
 91
        1
 62
     0
 92
       -2
340
14
 93
        0
 40
0.045
309
GRIDFORMAT_END
 95
        2
302
GRIDFORMAT
  1
GRIDFORMAT_BEGIN
 90
        0
 91
        1
 62
     0
 92
       -2
340
14
 93
        0
 40
0.045
309
GRIDFORMAT_END
 95
        4
302
GRIDFORMAT
  1
GRIDFORMAT_BEGIN
 90
        0
 91
        1
 62
     0
 92
       -2
340
14
 93
        0
 40
0.045
309
GRIDFORMAT_END
 95
        8
302
GRIDFORMAT
  1
GRIDFORMAT_BEGIN
 90
        0
 91
        1
 62
     0
 92
       -2
340
14
 93
        0
 40
0.045
309
GRIDFORMAT_END
 95
       16
302
GRIDFORMAT
  1
GRIDFORMAT_BEGIN
 90
        0
 91
        1
 62
     0
 92
       -2
340
14
 93
        0
 40
0.045
309
GRIDFORMAT_END
 95
       32
302
GRIDFORMAT
  1
GRIDFORMAT_BEGIN
 90
        0
 91
        1
 62
     0
 92
       -2
340
14
 93
        0
 40
0.045
309
GRIDFORMAT_END
309
TABLEFORMAT_END
  1
CELLSTYLE_BEGIN
 90
        1
 91
        1
300
_TITLE
309
CELLSTYLE_END
300
CELLSTYLE
  1
TABLEFORMAT_BEGIN
 90
        5
170
     1
 91
        0
 92
        0
 62
   257
 93
        1
300
CONTENTFORMAT
  1
CONTENTFORMAT_BEGIN
 90
        0
 91
        0
 92
        4
 93
        0
300

 40
0.0
140
1.0
 94
        5
 62
     0
340
11
144
0.18
309
CONTENTFORMAT_END
171
     1
301
MARGIN
  1
CELLMARGIN_BEGIN
 40
0.06
 40
0.06
 40
0.06
 40
0.06
 40
0.06
 40
0.06
309
CELLMARGIN_END
 94
        6
 95
        1
302
GRIDFORMAT
  1
GRIDFORMAT_BEGIN
 90
        0
 91
        1
 62
     0
 92
       -2
340
14
 93
        0
 40
0.045
309
GRIDFORMAT_END
 95
        2
302
GRIDFORMAT
  1
GRIDFORMAT_BEGIN
 90
        0
 91
        1
 62
     0
 92
       -2
340
14
 93
        0
 40
0.045
309
GRIDFORMAT_END
 95
        4
302
GRIDFORMAT
  1
GRIDFORMAT_BEGIN
 90
        0
 91
        1
 62
     0
 92
       -2
340
14
 93
        0
 40
0.045
309
GRIDFORMAT_END
 95
        8
302
GRIDFORMAT
  1
GRIDFORMAT_BEGIN
 90
        0
 91
        1
 62
     0
 92
       -2
340
14
 93
        0
 40
0.045
309
GRIDFORMAT_END
 95
       16
302
GRIDFORMAT
  1
GRIDFORMAT_BEGIN
 90
        0
 91
        1
 62
     0
 92
       -2
340
14
 93
        0
 40
0.045
309
GRIDFORMAT_END
 95
       32
302
GRIDFORMAT
  1
GRIDFORMAT_BEGIN
 90
        0
 91
        1
 62
     0
 92
       -2
340
14
 93
        0
 40
0.045
309
GRIDFORMAT_END
309
TABLEFORMAT_END
  1
CELLSTYLE_BEGIN
 90
        2
 91
        1
300
_HEADER
309
CELLSTYLE_END
300
CELLSTYLE
  1
TABLEFORMAT_BEGIN
 90
        5
170
     1
 91
        0
 92
        0
 62
   257
 93
        1
300
CONTENTFORMAT
  1
CONTENTFORMAT_BEGIN
 90
        0
 91
        0
 92
        4
 93
        0
300

 40
0.0
140
1.0
 94
        2
 62
     0
340
11
144
0.18
309
CONTENTFORMAT_END
171
     1
301
MARGIN
  1
CELLMARGIN_BEGIN
 40
0.06
 40
0.06
 40
0.06
 40
0.06
 40
0.06
 40
0.06
309
CELLMARGIN_END
 94
        6
 95
        1
302
GRIDFORMAT
  1
GRIDFORMAT_BEGIN
 90
        0
 91
        1
 62
     0
 92
       -2
340
14
 93
        0
 40
0.045
309
GRIDFORMAT_END
 95
        2
302
GRIDFORMAT
  1
GRIDFORMAT_BEGIN
 90
        0
 91
        1
 62
     0
 92
       -2
340
14
 93
        0
 40
0.045
309
GRIDFORMAT_END
 95
        4
302
GRIDFORMAT
  1
GRIDFORMAT_BEGIN
 90
        0
 91
        1
 62
     0
 92
       -2
340
14
 93
        0
 40
0.045
309
GRIDFORMAT_END
 95
        8
302
GRIDFORMAT
  1
GRIDFORMAT_BEGIN
 90
        0
 91
        1
 62
     0
 92
       -2
340
14
 93
        0
 40
0.045
309
GRIDFORMAT_END
 95
       16
302
GRIDFORMAT
  1
GRIDFORMAT_BEGIN
 90
        0
 91
        1
 62
     0
 92
       -2
340
14
 93
        0
 40
0.045
309
GRIDFORMAT_END
 95
       32
302
GRIDFORMAT
  1
GRIDFORMAT_BEGIN
 90
        0
 91
        1
 62
     0
 92
       -2
340
14
 93
        0
 40
0.045
309
GRIDFORMAT_END
309
TABLEFORMAT_END
  1
CELLSTYLE_BEGIN
 90
        3
 91
        2
300
_DATA
309
CELLSTYLE_END
  0
ENDSEC
  0
EOF
